<mxfile host="app.diagrams.net" modified="2020-11-30T06:21:53.734Z" agent="5.0 (Windows NT 10.0; Win64; x64) AppleWebKit/537.36 (KHTML, like Gecko) Chrome/86.0.4240.198 Safari/537.36" etag="g_6lC4SyC-6ZcXcbjnZd" version="13.10.4" type="github">
  <diagram id="qfHB6F6a2rPwO3lI_0RF" name="Page-1">
    <mxGraphModel dx="782" dy="468" grid="0" gridSize="10" guides="1" tooltips="1" connect="1" arrows="1" fold="1" page="1" pageScale="1" pageWidth="827" pageHeight="1169" math="0" shadow="0">
      <root>
        <mxCell id="0" />
        <mxCell id="1" parent="0" />
        <mxCell id="8Trs2bP28vxkENtVIcJS-1" value="" style="shape=image;verticalLabelPosition=bottom;labelBackgroundColor=#ffffff;verticalAlign=top;aspect=fixed;imageAspect=0;image=data:image/png,iVBORw0KGgoAAAANSUhEUgAAASYAAAD+CAYAAACX3qgsAAAgAElEQVR4AeydhXsd19Xu77900/tBv37FUJtSkjZN2kCTQpI21EADjmNmW7JlW2gxW8zMzMxkoWXLttAyBdZ9fut4H42OzhFZhjhnP888c2Bgz549axa8613/R9zNPQLuEXCPwAM2Av/nAeuPuzvuEXCPgHsExC2Y3JPAPQLuEXjgRsAtmB64W+LukHsE3CPgFkzuOeAeAfcIPHAj4BZMD9wtcXfIPQLuEXALJvcccI+AewQeuBFwC6YH7pa4O+QeAfcIuAWTew64R8A9Ag/cCLgF0wN3S9wdco+AewTcgsk9B9wj4B6BB24E3ILpgbsl7g65R8A9Am7B5J4D7hFwj8ADNwJuwfTA3RJ3h9wj4B4Bt2ByzwH3CLhH4IEbAbdgeuBuybezQ998/Y1MDE9K0LuJsuMHJ+XT/+thX7b9P0/Z8T8nZdePTtt/s/5vPnv8MUhCtyfIsaeDV2x3+JdnpCGnQ25cv/HtHCB3rzc0Am7BtKHh+u5ujOCpS2mXuJ3ZEvFR2ool/KNUCfhnnOx7zFe++L6X7H/cb0lAPeIh2/7fcdn2H8dl+3+fEP8PYqQxq0taC3olN6RcTrwUpv/t/NFJ2f+U79J+FuGGYDv1cqSEfpC84twRH6dJumeJdNb3yI1rbsH1MMxSt2B6GO7iXbqGG1dvSnVCq6QeKZKkA/ly/A9h8sV/e8kX3z+pa6PpsN72H57i/060FIfWSVV8izRmdEltcrtUxDTpkrA3T7UghFbE9hS5vmATILPTc9JZ3i9VcS0Ssz1LNavPHvFUAWf2NevI7Smy7xc+K7Spz77nKXt/5iM+b0ZJ3O5sST5UIENNY3dpVNyHvRcj4BZM92KUH/BzXJy4InUZ7VJwpnrZkn2yTDyeDZFt3/OU+N05kn2qTHJOl0tBQJUufGZB6KANeb8RIec6xuTLm1+uuOKLQ5clfleOak7HngmRqzPXVmwz3n1BYj7PFATT4V8HyuLVa/LNN9/YtxvpmZDysw0S8EacCqfDvzqj5zf9YH30N0GC6Rj6fsqya+HaikPrpatsUL669bX9mO4PD+YIuAXTg3lf7kmvzjWPq2aT5Jkvh545I3sf95bTf42UoPcTxPtvkWqOGa0ox6dcZi7OO+3X7NSCxGzPFDSXmJ0ZcmVi1ul2l0ZnxOeNaBU8ZRENsjh7fcV2Y10XJOS9ZNn9E28pia6Tr259tWKbjpJ+OfVKpHj8LkTaC/uW/V8R3SQJe3Ll6G0/1fb/OqHaF6Yln33/GiuVsc1Sm9wmMxfmlwm+ZQdyf7mvI+AWTPd1+O/dyecvL8pAw6h0lw/al6C3bY7qky9GSvA7SZLqVSgdtb0yMTIpXfV9kuVVJoFvJag2hIAqCq6TuamrTjt9Y/GWBL2ToCZeaXiDzF1aud3NGzf1+EbYoSE5awjMTx/xUF/V9as3V2yCH6kstkG1Js/nQlf8//XXX0thSI0c+IWf7PrhafH/+1nJOF6i18g1H/yNv5qeeX6VqkH11Y7IaPeETF92LlBXnMD9w10fAbdguutDfP9OcOvmLbk8MStjXZOChnLw5/4r/DMIiZqkNnEmAOg5Zo/f387afUolYfVONR1MrmuL1+TIbwJVqNSmtMnN67dWXPzV6Wty/PkwNekaMzrl2m1fk3XD8Z6Lcvy5MNVwEFJf3lypNbXk9QjOcrQmBJ5jm740I4mHcvR6Q/+VbP8bJ35RXKX4vh4jO39wSv/f8xNvOf1muOREFgvCkuV835SwrbvdnxFwC6b7M+53/ayYSX3Ng3LmvTiNcmHKOFvwDR1/LlRasrvl5rWVgsR0FBPo8/88Lgd/EaBm0FdfrhQWbBv+YaqeL+jf8TLUPmJ2t68RYAjMvY/anNit+b1OzTXMPoQm/bs0PG3f33wY7Tsv4TuS5OBT/tJZ1ysWV5TZRPL9q9S8xDS0+qrMBpGfptsFLlE/xmfvT33k8/84Lnt+4iOXx2bl2twN+fort0/KjNm9WrsF070a6Xt8Hp/XYmwP9v87Ljk+FS7P7vWnCN1u1w9PqVblckMRu9M5/LNkGe4ed7mp95+j9ZhlUQ3iVIB9I+r3QfD4/S1WBupHVxwLoWBMvqlzV1b8zw+91cO6DRrP11+uFB74koAvBL6dINeurnS2X716VSI+SVWfV9rRIj0HPi7jn+L8If9Klqlh5+d32in3j1syAm7BtCXDeH8PQsQr9IOUZRrR5/95Qv0rZRGNLs00ek10TKNcj3jIkd8GaWjf1dWghYFXAosUuztTLo5ddrppXW6rHPtDsOz831NSFFzrVFuZnpxTM4x+5oXUyryDIxwfVcAb8WryAQU417JSEK4lmOanr0q2b7lqefkBVSv6ihYVuz1LhZsRTAg4zM1LI9MKXQAewfkZo87SAfnqK+ea4oqDu3+4oxFwC6Y7Gr77uzMARUwswu/GX2K0DNZEyQ79IkDKoxpXfaAuj86oCYYJc+yZYCkKqXV5YcUxXXLomUjZ/ePTEvBWqtTlDK/YdnHhugIhOT/m0Zk34yX1RIGUZlVIeU6VZMTkKhjTIMT3PeEnp/8cLcnH86WvfVAF2Vdffi2TA5fsYMugtxJkpO38snMNNo7Kvkd91MQM/3fqCggCPqLKuGY1BxEsztrZL7KXCSazDftO9F7U8WMsEVDAE068EC4EC9KO2TQss717vbUj4BZMWzue9+RovOkBLxKR8vxjiBREVNgjbdaoG9EohAMPVN6ZSpmfcx7up9M4e6M/y1D/Cukf6Z7FTq9l+uKipJ8oVxPpi/85JUd/F6HRLqJ61gWBBB6Jh1pD9o/7yOHf+cvh3wfIvl97q9ZF5M0IUpDhex7zFq9XwoXIGcdCGPE726B9nXo5SiI/TpPcoDIZ6hmWucsLUhxRK5894qECbPbCwoo+V8e36v6nXopc8R8/oFEe+XWQGI3JcaOskCLZ+6SPnHg+XAoDayTNo1iFLSZi5CfpCkAVt4/ccdju+LtbMN3xEN7bA0yNX5HisFqNWgX+I146ywdkdtq5wMF3k+ldKsf/FCoHf+kvqccLVvUNjXVOSvTnmfog45wGQd1Y1CZX5xc1rE7aR/yuXMGHZLQdI1iWrR/xkIhPU6QspkEd5UXhNRKzO128X42RU69Eid9HEVJxtkn/A0/EUpXQKsmHC8Tjd6GqnYAu9/x9qETvT5PSqHo5+nSQ9gvT78Cv/MTv7Rg5uyNLAt+O1985P87swdaRZVE6I5iOPhMkA60rtbue+kHxf+usRH6eJlPnV5qmU5OXxevFcBVGDemdauK15PZI2rFiFbj0EeAoTnJ327oRcAumrRvLu3Kkm9e/lOasLsn1qVCUc+zOLDn0ywB9GL1fjZb2ov5VzzszNSd1WW0S8NZZ2fMzbwn7JFkqY5pd7tNVOSinXrU5xD//r+Pi9VqYJB3KUywQWgsCgMhV2AcrkdUGOV4YVCvDneMafeNE1xevy1jfefXRtBf3SXdrn3x5azk6nMgXfp2mrC4BB1US1iDN2d0yPnReBQ1CgeNne5dJxOepcuKVUE2ROfXnSPF+K1w++55N+wr6V4KkexbZEeHB7yYpfGHXj05J1Pa0FdcNrODsnizxfCFEqlOdjwvmMteNSWwazvmUQ4V6bP7jM8jz7tp+FeRmO/d6cyPgFkybG7e7vtdXPKjjMwpqPHEb94N5dPD3vrLr0ZNq4uATQjiB6eHhd9XA+XRW9qtfh/SSA0/6q3Aa6R6XWzdu6YPUXTWoOW7ZPmXi/fco2f+YnyTszRWff0bKoT/5iu9bURK3K1sfQMLwwy0Trk53V3/nWkb7z0tjXofUp3ZIc16XtNV0SsrhQjm7K0sd1QgKXR7xsJmTt03G3T/2lprEtmW4KKKGgC/RAJP25zvtuzPBxIaATeN359qFE+dEk8sNqJCuigGZvTTn9HjuH9ceAbdgWnuM7vkWoLQ7ywclzatEfSsmm59ctcKEcknxypeozzLk5J8i1Jw48ttAqUxolL7aYfnaBSgQDWWgadge8uchCvs8UWpT26Qkpla8/xIlmEl7H/MT39fjhDw58EadTT1Sklku3S19TkPu93xwVjnh4sKi+sbMeFnXOL/xeZFEjEAjcDAxeEFpVEC4Mx6Ygs6aK8HEtgtXFtWPx/7er0VL2IcpGm30/luU5AVVynDr/RHgzq7j2/SbWzA9YHdr5sKCmjKefwiVw78NkOhtGS57SEJq8DuJgv8EJzF+GPxKc9MLK0CBoLAvjU1LfVqHTZvAJPu5t+x+0k8OPxskXi9GqA8o2aNERgdX+lpcduJb8geQCpznhP4JCCBIInYmSXNhp+b58T3wnwlChNKxrSaYgFtg2nJMYBLgpaCHCXonUU1u9j3fP+V4SPf3NUbALZjWGKB79fe1+RsyMzkvaUeLVcgc+LWf5ASXrOlURRPqrhlQrA4PF0tuRJmM9Z6X6Yk5uTI+qwjmrqp+Cf0sUc0OtIYjvw6UzMg8SQqplObqXpmbWRnRulfXvtnzEJ3cSNrI9YWbknq0SCERXP++J3wF3xNRQwQLPjRwWrMXl4/FaoIJ+pawj1LVYR/jmSwXxi/q5WByVic1K8Ld64VwmT4/p9qZMwT6Zq//Yd7PLZju893F6XvrxpdKI3L4l4F2bQYBQ2Qs06tU/1/rAcRxDNYGzcmE6Umz4KEzAouHj7d7xL/TnIIe7/NQrHp6cE3kzDFWrFmuLVyX2ctzQtLuZlpPW7+knSoU79diFP6AKcv4gVXiPCzcH5+/2FD0ZZENK8aNHMOkQwXqo4o7mSYXz1+ydwXhVJvRpveDwENdcZP2Gb+WW0DZh8npB7dgcjos9+7Huvxm8fxDiAoVY2IYQQLOZ/t/2ZDHg50jcsshkmXtJYJr/tKiJO7Ot4MtEVBWIRX1abqgNayWE2c95oP0GYc73FDQ8wIaRePh85FngqQsq2FDmpO5LvNSQLig+WCCMfbcB44NiLS5tEM8XwjV3xMOZ8mF8eVmGfsCF0ALLUuqkYW55doW5jYMB9zLHf/jpcc9ezRdgH24m+sRcAsm12NzV/8B9+L1QoSaE6HvpUhnyaDgB7Eu4GWY0AiXg78MUBPElTOVN/DV2WuKt+HBCvggRtpKe+zHIxHWGRXJXb3ILTx48NuJqs0YwWGEOKRwex/3UbBpZmDBskgYuXIez4S4jLY5dg8h010xJIFvJdq1zP1P2nicOC9mnyMqnvsI5S/aVmtp9zIMFcdfmFmUivgG2fXjU5IZWiCnX42SfY/7qGBtLehZFZHv2L/v0ne3YLoPd/vK2Kz4/CVWtn3vuLTm9crkwGWnWgwPSn/diHSWDaj/g4cDf4X/63GSF1IhUxOX9A1dl9uiv2Fy8MACqhzpGpcb11bSgax2uXUpHepjgQblQWug2Ll+l8sjHrLvSW998BkflsO/spnGVtqTta6LIAGpMIw7S9yxbNn3c18dV84duyNTLp9fYjsgr07xXY94SGtJt9y4vnzM0WQHm0Zlxw+9JO5MspxrG5fBxjE5+adIfdGUxzbKwsxK7qq1+vmw/+8WTPf4DpP6QboFkxk+ImecRY5d+vLWV9JW0Kc5WviReEAO/spfzrwTJ6EfJmtaCloVxyQUfvn8jPOsfscDW76D74H+hONTcMBZu3nzlgIgwftEb8tUJkhn292N3/prR/TcADCBShgBBf7I//WzKoRM+or5z6zBbaUeK5aR/iX/z3r7eGH0knSU9ktNSqv4vxGrmmvQuwmKL+MYVrgAPE9zMytR+Gi5O3/kJQnBqXaNiuvhRUJEtTqxdb3d+c5s5xZM9+hWk4Ca51upGgkPDAKACFG6R7G0lfXI1dnFNXvSUTIgOQGVcuw5m88D7WjfUz4S/kWiUpaQfoHfZDMtcW+eXSsgMmUaxyuLbFQQIikqJ1+KVH8K14DTuL9uJWWJ2Xer16C/GS/fv9iQ2PQB5/7JFyMk9VS+lITVKdQCkjkjlMx6549OS/BHtmoqNxaXazXr6SfRz96acxICkvz/esihpwK0L0n78u0mJmk3F84tF36LC9ekOr1RzTcSlK00MD2V51SzQ3sqCquR4S53AQVzL9yCyYzEXVpfv3ZdUcA87Gg0RMpIqmVtHhqQ1pknS6S5oGuZmeDYpd6aYck9UyXHfh+irJKZJ0qVF3uk/86FAyDLQ0/bGC5Bk/dUD0l3w6DSlkAOZ3w6ps+sj/0uWKoSmxy7ede+R326pClZ+4FwitiRLAWBNVqlhfw18z++uZOv2FJs+A3iOcyvzbaBulFJPJgnvm/YOKc4pgkwwMyAmWZtk4NTErkjWeEcRBYdW8bxUu0rfOthnyZLdUKLXJma/s5H7dyCyXGmbOH3uSsL0pDbrjSuZKdTnogySJQ4IrcKAn9+I4TPBD/2fKCknyxSE4+UBvK40Fgmhi5q3ljAm3Eq3BAcRHu2sp0fvSBRO1K1H3t+6i2+b8SI9ztLD5950K1rTJvhzuUP4lb2yRzLwAFwZvPw0wfyBSM/S9ekYyhPnAlOtvN4LliLK0CPwljHfpEl8JPfSQNE2VnVp8cj6Tnkg0TVgDlfaUy9XJ1bEnyYbGhXh5464/SUBQHVGrUDU3Xy5XDZ+6i3ZPgWSVN2l2xGs3N6km/hj27BdJduGo7nyuQmCXj7rAS8cVaaMrtcnin5YIGmiuALMQ/+oWcCJDesVDpL+yVmf7qaLId/G6h+ib6alVnyLg++zj+IBiIozfmdraElOflypBK4QeJGsu7dbAhlCij0VA0J2iIpN2ie9A2/0nCbjTxuYXrRXjABriT6xgKkgG3xPcGUeTcazm1eIAhH/F3eb0ZqehDAVhpJ1vTBlWDCt0flYeZJU1G7os9P/ClcNWrmDPCO72JzC6a7dNc7KvuECZbtVyZXJlemOTg7LT4ozBCSdVUw3K4UQqoJv1elNsnCOnxRzo7t7DcgBqRgEIUK/yjNdk7HyNcjHkpEx/kTPXNUe3N2rLvxG4EBeI+svE06Lrf7CO0Lbf7KVbtgMmRyXFuub4VeE3ikuF05d6OL9mMiRKkIbCJ0JBUD0aBg6GqCqTS8XvY/5ithH6VoIvatm1/KQMuwkP8IFKIlp+eONTx7J79FH9yCaYtvFs5NKGgp2EiSLSYXpoMz/4KzU4M2pqIJDyOTnFw4qtVuFVKY45g+ElGiuq71YXf8jP8Gig9XycHOruFOfqOOHOO3OHddFuevS+i/UmT3T08rhgiskOkfhRFImMUpDTSChxiNZbRzUscbupeUowW6PYRzQC/udmNsiRjCJoqWtu9xXzn2u5BVBZPxMbGfacyVzto+3X//477SUzFk/vrOrN2CaQtvNQ9JX9uQIoYVGPk9Txut69uJ0r1O8wtuaiY1BPsgiuGg3iqhxKWCs2mt7FSfiKarWFgkzUPvuIaXCVPvXrT2wn41W/c+5i2p/nlyffGmFGdUyMWJS6qRmL6FfpQs87PzQqGCg08GqAO6vqBFrl29rik3XJvxOzGe4MbuReN+1ad2yskXImxO8dvj68qUcyaY6CcmIqYojnUqyXzXmlswbdEdH20/r5GXvY/5rDA9tkNo/6iv+hkgMhvuWxlFu7pwVd/wVCvhgQIUuDi75ETdim4Sum4oaLWXTjIPOWuiVVlepdJS3CW+b0fZNROzzYEn/LT/hRGVMnOXCkNCDEe6CedkDHb+8KSO6e6fnlIOKSKZCBl4oqYvzMmXX34pI50TClRln0ujtmjW+aGLEvL+Enqb/6DW3UoBv9r9IOUHlD1FNMnF4/zc14KgCs2/s+7rSjCxDZWCqWIDI4LvX2M0AGLd92H+7BZMW3B3qeRK4UUeHKqVEDIGVMfSVtItZ96Oswsr8qU8nguR069EL1tOvhQhRMMgMwNTRFLuVrfRjvPi/dpKoZNyPF+6qweV+AynfXViywrBxMPFsv9JX/H6U7j2nSIDMEpOTS7H7my235iWVPs153K2RoNASJIGAo0JvOdmu9ywMpmfXpCapFYFi5rfWWNehbyXtNmubWo/TOa5SwtKHYypeeBJXymMrZTFedsLZ6BrSM68f1b9aHBtOWumDBe4NzQoWDy/C80tmO7wLlPShwcEwdRZOqhVXFHDTVPGxa5Jjc4UhlXL8VdtPgfrQ2M+J+zJ1Sicqzpq5pibXcMdVBW/XOgUBFXLxZHLy6huQZnTJ9gNyNc78IS/3SwyfWWNlnXg537i/4+zWmWFYpdmSdidq6ySG/WPwArZVti3bCmKqpY4jwwJ+zhZPJ4N1bw0az/MZ0p/B72dIJ7whn/fS4sFcKy69DZB0+upvD++Goom5AaW6csJrFjUtgw1jXMDymXfkz7i9Wqocqs7u68IJnxrifvyFBqBSVjgpBSVs32/zb+5BdMd3D1CwUwckLsdxatzb3Ma3ubwIpVHN0rysTy7FoUJVRXXotGxu21uIJyIBBFlo9w3b3TrOZWqI80WSSLXDCGLiZUfUqsOfSME1lqjPeIn2yykQP11HYPSnNMtVcnNUlfUJL0NQyrgCbEzXghV/3eWUOCOfQI6UBBcJb1NA05TRe7g1m9oV2rRTU/NSkl4nWrVaD9wpvMyw2SlgCg4Msc2P7sgaNKeLwZJR1mfjHdd0Dp4AF4Bkz7MzS2YNnl3xwcmJfyTFDUp0Co20mYuzkvMznQVTJQNciQm28ixNrMtkT/SO1g7trHuSYnenqEPDGaSaYtXb2hOF/ldCB1HIeDsO2WYNoO5wreSfbpMAj86q+OL4zpiW4pkepVInn+llEc2qiYHLfDpv0fa0nuOFUjUzjTZ86i3HYlNn/Y94SOh/07U/diX4AIheGhOtrIhRKzpJs6ODVUxBUCP/jbIDm+gj9E7MhQL5bhPUWi1HHjSTzJ9SuTKBRvkhErBRPCAlFC04WFtbsG0yTtbEFYp+3/lq8DImsRWISMfAUWpI6sGYj08uJyJvgta8YSoUegHSSuKNFq3vx+fEVg4W4EqwJnt2DCNyFfDR+YKX8TDdvBJf026ddx/Pd/BVvHwwWNk0j2sgg+upOMvhIvXS7ZUE/x2pdF1MtI3Lrl+FeqjC34/UQ7+yuZIt+7L8WBowJeFALzTRmh/lDzI4AqpPNusc+DKxOpFCCpimgRQLfxSaEw+f42S9tKVkTdeDBSPcIzKQc3CfpjaC3PXNsVFdafXfbf3dwumDY4w+Jj++pFlpP468aHdeNxXSs/WCsm2+J5YzjWPa0VX1vUZHRK7K1M1jsC34uXC8NSmk2432O11bT49OS/pHiWqDR38hb9UxrnOg8OMDXkvWSsBm5QaxoEHhpQZihlM9m3eKU4+W+LefD0H57EuYK8g0DMCB2Fjigx0lw/JlclZGRuYlPygSvH6Y4RLn1Rv1bl1jctqG12fvyERH6TYU1Lwx+HIhnsdOt3VmqbYPBus84EaeVbwLNoVOZWYfY4lujDpoHXh5VEe1yjj/Rfky5srtd/Vzv2g/+cWTBu4Q1fG5yQ/rEIpRw798ozSkODHMAsPDCA/61uet17oe8laoNKAJkPfT5bx/kmXmtUGurRlmzKxoY41aTHHXwiVixPL2RqdnezS6IwkHSiwjwGMA5iDJr/N2T53+lt7cb+yHCCYgA9YBSPRL/io+huGhQKeOPupkAKli9UEJedupO3OK5hoMYInzshn37NVDDbCkuq+FdGuBbsZAxgRgJh4PB8i1WlNQnl1UOQdlb0arcN0PtdiS70x+6CRc23mXKGfx8tg04hTTi+zz7dt7RZM67hjTATC6HBloxWRJuHoV2IbfEegkcHi8IDv+elpO+c2bzd+c1X1BLQzvqbZqYV7glI2l02/OfdA84iEf5xin+xU232QGyYnDyZmZ4ZnqeKd4NUGEW59McTvyVUhiQCFsoR7wDLUNqI4qM1cI3zjQBtYri/ekvSADjnydIgeV4GdtyEN63H8T0/NSfqpYqXdPfL0GanJaFLQKJoS19datJIVE6E/0nFeTekvfuCl13z65Sjpqx526jfczDXe733cgmkdd0ATctPrZecPT0myV+6q1CTWw1GT7eRr4fqgULtstQagkonIWx06k3vSvhEtNxT6QfIKc+fbIpjQUk3r7xyU069GqpmHSclydle2XL/uuhio2Xcja0xATERoX6Yvz9h8PLcRImEfpgrlzYs2kOA82nteonalqqChz1bfGi4Ax3Z1/qpUpNbJF//jJXEnMhSbxrwhBep+QSIc+3in392CaR0jCLYGvueIvclKIm/FKa22O1EgQruRO7JlbBX2xKHWYTllOIMe8ZDgD+JldGjlhFztXJv5j0z9gz/3V63OqmXgJ1lLkG7mfFu1DxEwqIWPPHNGqjPr7YfVHMC568q3ZNdoFm5suckM8ygmJAtaGnmROaertBgE0T78Y5R2X2+j6jK1AKuSm2waqyVNyJlggmWBxGQ09+uLN+Ta3HVJOVykGlvE9mQ517kys2C9fXlQtnMLpjXuBJn3APaIjpwfuLhuZ3VbZbd4vRSuYeGikDqBHtdVw+eE89b4DNDMjjwdqHw/1n3gEyJFAUDnajQq1n1W+0yahjUx1pw/6K3EB7pwAT6Yppwuifg4VcshrXaNd+M/6IvNWLFGy9n7M19lJHWF2CcJevryvMxcmXM6hzCpr81fF1gt8VlyTI7tTDABWuVFQhl3ua2pkQKDL400HnyF3/bmFkyr3EFs+XMtY6pio15HfpIuud4VSktxfdG5ecBDU53dJKf+EqF+g+xT5U6jMzibK9PrpT6jTdHeTLbC6Crxem0p2//486FyYcIWuUs7VqT+FJMcDNncnTqYSUPhbW99yPC/QL/yoLeFK9cE/vT70fAFthf3SV1Gm2b+c++KoqvkXOu4S4oSyr77/j1W/P4eq1ABVwIM/xVFEIyPqTS2ToG55jovTUxr/t3O/z2pRHkINNPwO1FNGCgHRS6+zc0tmFzcPR764fZxLfXM2wnNAjse08fv9RiJ+sC+9ggAACAASURBVCxdSfsh7rcukK15/jFYHZL4igxhmONpoPXweCFIjj8foohv/h8dHJe4Q5maM4ewAK8T+XmqckETvkdrM0IEfwKVXhcX1uYKdzy3+Q662uuP4XpMnLZQ15KOcuEhLBFurnkz696mQck8VaL3mbQhTDleQNevLYE0KUKwGsAS6IC5dyDimSfj3baqvY59gvqlJrlVX0QeL4RIb+05uznaUdKnpeMhlxvtmFy2K0Iqbqetxl26Z/GmnfvLDnqfvrgFk5OB13SI+nOCU1hD/D88KT7vhEvAhzFy6s+R6pw0k8zVGhAiQDvrG82cCm6gusxOu7qOo3R6ck7wnfQ3nFOgnmGTxMQL+ShRBR0RKJy9TGzOS6HM6uRmc9hNrSnySPQIDigYEra6cf0Lc1dlYnhSpi/P6gM9NXlZehpGpK2wX9pretS8YTvKlE8Mn3eKgt7qfm3kePEHsgSGA8YcvxLmNDgtFpJqrT5H8EcILdMuDF4StOYstvcutZvsRGnx8XEM0Ojgr6wN5gRMMzQnTH0gA1DWlEbVaz9wvjtr8bty9f8TfwyXutS2b23dOrdgcnJ3wYSEfJCkJYFSjxRJjk+5tNd3SXdrn7QU9Oh3GApTDxfpcnZnlpx8JVwFDRpV8oECl4T3M5PzOhG9Xo1SP8HR5wMFsGXWyVIFYpruGEpW8zDAwMgERpDk+dmAg/wX+UnafZ98PJjzMwuavwaqmVxAFqq2gLehOi3O/JGecSmLapCkY7nSWtIvTdnd0lLRKbWZrVIe3STN+Z0yNjguY/3npS2/134cjgUmqKd+YEWlWzNed2uNwARLxFg7LgREEg7mLBNMLfk9UhpRr7XkEFIDjSPi8XywvkwQKlTGid6RJfufuM1SCu3ubwKkKHxl7ht+RAMQBapSFFqr8xKhFvnxSlQ+Y2AEE33lJQZ3+LexuQWTw10DVYsvCYoJ0hbW08Z7JyXs4ySdfPl+lfLVraU3puP+E70XJfLjdOVbQhuL3JksaccL5chvgiRhb5605PVosqYRTJhY/m+elUVSD277E1g3pHdI4DvxkuVTuowZwPF8d+P77IUF5d+mr7rkdktlQoPWmoNelutjoYwS9LYGlQwTJrAITGNAkoZsH/pZkooJ7ZPSg/DGlwcm7PP/OC4447knJfHV0lLSqeeEUK6/dlimRu5uqW2c1ggm+nzihXD7tXF9KUcKZfrKcnoaA/sI/lei1Ge1a/ItoFwgBHAykRB9cXxmmbA78uwZKY11zp+OoPf5e7Ts/PFJDaTgUgC0i8ntrBnBxPwF8gGQtLt8awtXODvvVv/mFkyWESUlABMKgGRx6FIY2rLJio84NTGFPv9PLzn9mo2D2nEjKu/C0QQHtGkghpmosBMgZE7/OUqO/jZYUzxIC+GYmA2KUO4el6GmMT3GtXmbXwMzsbmwU9orN5ZAbM6/0TUlhcZ7L8ho+6Q0ZXVrPprvX2O1v6dfiVJBTh9x3ppGkmnqsQIZbl+qpMJ1s9+pl6JkanhJqCCcIrenSktpp9ldi4FivvZWDevna4vXVWuA9YB7BGFcQ0a7PeXHWVKy/WB38AHtmD475qw5O2TK0ULZ+zObqY0ZjqDCEc365Ms20jfGj8ibVQOD2+p8v3NnfmdNr8TuyZTDvzyj+5AcbV5S1j7AMgrn1O6f+Uiuf5UWcqA6Dwm/oNytJqZ1vwfxs1swWe5KdXqTOq4xldbTbl77Ssqjm9VZvf+XwVIQuzIScuvWLUk6mK8T6uwX2WI4rfEz4WMgkdNEYHg4QWFT0odJu+9RX02YZcLhCOc3svWZYFCl4IyP3527nq5ueBvMM2htQUyTipMRkys+/4xSXBZC08qhzTa8oeGnvjB0yf4A8PCwLSWOCGfb2zeiDwu5hAbvAzUIJhBjYqKNCBr4usmTO2/BgQG/iPw0TW5cvyFob2hp8EL11Q1r6SSSc3E2W/toP/dd/nBlakYSD+XZ/YDGpAJq0t9yTl9GRiChDSM0TEoN0TS0RVcNDZ6X1Zl/xDuFSYR/mKLuhIjt2TJ6O4ABWSHaGn7Jb1PFFbdguj0LeIgUT/TfXurDgR5Vl+tfKswfh7ht+Uq1Ah6o+txhOfFqsk4WwrTO2mD3sAS+f1aFCg8okRQcoTTz1vP721l1iiKYcn0qdXJBwkaiJkLJTGTWPMxTE1ckZkeGmhdWEntn59/Ib/QHwcl1z1yck6qkBmV+BEKQEZon2eFF4vVKmPIIkUlvLbCAJrfnpz6SGVAkJDqbayOCBe9Q8LtJ9nQJLFLMPAQrxRrMm5ykVkyg2SvLk1/RGkmKNQ0eKa/XQqWhzOb4V+hFWr3s/slpyYsqE++/R6p/pS65Xc/59VdLIXVzjLu5RmsEoMr9QpDw4mENOynmu7mfmK+NmZ1SFFKrEVewS57PhdmFtWMfwU8d/U2QslrkRi7PDlAh/rYtSAK1imnMH/+/n9U+ABS2OurNNg/i2i2Ybt+V8yOTCgPAl8CbDAejyW+L+CRVEk9nSWJwmkR5x0nIJwk6QZhwTCZ8IebN73iTgRKYTHj8JTyMRHXwXfB25aFk38HOYck7UyFeL9ioPNASMP/Y3kxk1uCp6BeCi/+S9uc7nnLT3y9fnJYMn2J9gEhGRiDcuHpTsTlGMNPX1COFcuKFMKlJbLGfC0GEhkLZobK4OpmfsWlIkPMjxDgeDlzTEH44Z4PeSbQnqQ42jEjIe/GqEZjtWDsKpt7GQQn+d5yEWUqZE6on8DDcOq5m39z0vIb4T7ycIFUZd84iYO3PWp8pZkrOHsIIRk/MX4QQc8t6L5k7COjITzLE729x+h+/8SJwZpYyliQlsw3UwtaGH4zzZXiXyPQlW007/kcQmZcbrgOrO8G6/4P22S2Ybt+RkPeT7KFcx8kD3w/Ox50/OSk7fuKlOUpMArajsusyM8XhDg+0jNg4vy1RHR5ITDYe4q76XoE1cnL0okR8lqoTGjwRERmwKqj6mEcXz11WgjEzuYM/ipeOqh5NJHU45aa+5pwul7KoRqF4JOA/svPDdybpAzXYMSrUOzONlItcnwr1eYCXsbb6xDZlXcS0o/8spE7AxnB2R7b9N35Xx/7f48T71Rj9nfQdhC0C/8TzYepcbq/tEpgOOJ6pPnzrxi2lZHHUUvE7WevKgfmJ2Z4h8YdyJTeqRCulIGDvpBFppO9+b8ZKZWaD3Lr1pTSUt4jf67EqQPmPlwdzg3uFYCIYQr8w2RAq/If2E/p+iu0F84OTen28sPiP/V296DpLBvT8jB30MrwQMGl5UbBvVUKLXQM11wmWjv9YEFLfhuYWTCLqo+CNzgIosr9+VB2HVIElLwmEb8QnGernoWCASePQogGjqxezhBwOLAvbmsnBw8fDyMS9cO6SvtWogUbeFdvAcEjlWCYxDxvaAFEp+meOASEauJY7aUzqitgmpXlNOJItg21LFX4xjy6MXJae6nPi/ZdoDXMTVTMN3w4IcYQOpqhZfF7Fmd9pHz/GkAWMFAhpHNfmN9ZEKdH6MH2svw80jEhndZ9khhZJ+J5kCfgoR/zeTFZ/VU1qixKzgaJeXFyqJMNY1WZRwsn2GykemH1h/06RSxNXVLDhw8qPLJeFmY0DUxFq5D9yD7b/9wk59NszGl078rszy/INEUDGJ8hnGCX6mgdVA6aPAGVxSgOD4CXE8YLfSZKJnos6BqShuDK5eKFh8rIP89A27rE6NwLfj5MhS6DB3CurYCINCRbMB719pwUThShxHiMo0k4USlNulyK1jX+Em4cjlkTJsZ6L0lE8IHEHM2TvEz7i83qk8nev9wbzpiIEzoNphAvrmQsLknOqXCt/hHyYpNAAzDS0Bkw/tAicu/TRaEvshwN4sw1/UOSn6Vq3LiuwWCK2pYrvGzES9F6C1Ca3LzssCabthX1qfga+laAh+8qURkk7Vizx+3KkOKpGqWqhq2UB5sDD46yBdCayZG0ACXnLd5QOWH9WTYC0n7H+SSH7frj7knSVD2uia15oucTtztJIGcR7fe3Dgt8KrYrQ+nD7Es8SGg4RMRq+H/p3/E8hCmPgZYG5vN6GsIBr23r/HD+jQQKFKIysEq+/2Cq48EIJ/ShJhQ3CGeHEfmfejJOkw3kS9H6CCv719gMNfVk1mdt+q6qkZq2r53gcq2DivPicnOXgOe53P79/ZwUTwmd2ak7fNMlH82RyeGpdQEW4p0mUzA+stPtR1nsDYYgEIBm5LU21IcjEqH6B1gGOqT6tXdI9i3TSYu4BKuSN7zj5+U74GqbMjTSE7KXxaWWpLIu0ASCHgSK0jqmWQxiaMHZxWK0S2XFsHkbC1Qd+4S9n3omThvxW6a0f0u3binoVd7TePkyNTkvQh/EaXECw4XuaGr0i2T7latqs5zigyKnXBjaHMHxJZL1khBTpg41zGROHajWmWQUTv+HTA4JQdbZFoERGA2ov6RNq7q2nEbyI3pbp9J5wX+J35+h9iz+QLYeeXaL2xS8IvzuLQe7z8vF7I1YKg6u11Nd6zm+2wZzO969a9rIypq7ZhjVRPkCdaN+h2xIl5USRHHwqQNJulzC3bvsgff7OCiZoMTJPlqhggk2ScPWq7RuRiphm9fnwxuPNu5mGf2Ska0I1DtIG0I6Y0BmeJVqKuyalVVNQalPaVPNA3UdTItkWIYbJo47U73lKmsdy/85q/QEjw9s+YX+uOs9544LbsmqHmK3RX+TKqb/ES9T2NCXOJ9wfsT1F0jyKpLduyGmYerXzWv9DMOEb45hcB4LhyvlZgVaW3zbT0GYBXXI8swC3IMIJxMCVYDIJwNzHjBPFyhW+3sIJmELmXNb1iT+EqTaEVoyQPPTrAIneni5oUaydvWCIZEJmN7GJhGSCDaS0GBPfmWDChEYoIrD7Wgfl8tScBPwjXjyeCZbmrAcXFf6dFUyT/ZfUXEKdd2V6mAcFEwDthKgGkyvlYMEdORERTv1N52T/Y776Jgt+J1Hr0XE+NLfhnnFZmFtUgnrME952+WeqtZ+91cMKyqQfaB1rtemLs9JXd04rauCoZ4n+PEN8/x4txRG1qqVZq7R0lI/K8ZfiVYtjW7BXOacrXKbYcH4iSDwAI+3nlwEsHfsGqp63tbXhVOeNjt9kqxraYPLhfE1/ob7dmX/Gy9wVGz7IaExGMHHOwsAaOfb7YDWrBhvG1M+zmb7UJrdJwOtxsvs25izkw0Q5P3xRX3rjfUtUuIeeClTzknvLfTzwiwBJO14sU+Obc0wTIOE4HSX9y140iqD3qVCWi+jP0+0OdV6wOOm5v+M9zhOJN3P9W7nPd1IwIYhqk9rUQTkxMCsDDWPCAw8zobMFGl0mEU5LYP534jzk3M25XRLyabwd0+KYJY6a3lrYLcH/jtc3HQ8Wb0e2o4YdkxBHOXXVVms4q6nmEvZpkuaxmW3BKvU3D0n4RykKDuXBNNcNB3Xwu4mS7lliNne6vnHtlpwfuqz74VsK+VeyPmzQkbhqCAPSKdBMOB/XMzU+LflBNSuoil0dY72/4wAnQx8kdNS2NCmJrtHImDPBxFwI25Yq6X6lkudfJanHitX35MoBvVofekoHJeDvZ9UxfeafcTLYMiKMFcySaL4IEQT95YlZ1UgNmvvAr/wk3adIqBCz0RbwFji4E5rDSTI4DYugOKRO59iR3wTK4uJy7RhzFC2KaOyD2L6Tgkn5br5/UtNIQraVye6f2TQXHniXyyMeitK2plFs5oZCBOZ4juacnmU8PpRIOvp0kOJSjj4TLNcWr2n6BkIJmAITPOyTJBnqGHHaBczSy2MzknKoQB8EtAaEgjO2A5PBfuDn/oorgt4DlgNXDaFJpeCW4n4JuR1Roj9McjA5gPhcNRDkEf9OVT8W24LxglqGqiL43u60XZ1eFLA+jo1oH6H44PcSNfIF+2N/45idvA9tLfTzTKkvHVBYRE/TiGKJ0AJXy3t0PI/5XnW2WaED3Gcih21FfRo9A9uEWYfQoGFG53iXa4SPbfc+6qtZAoy/1cQ2x3W1Hug6J0eesWlfpAGBPWvJ61W/JVq+s4Rf4yfDhfAgtu+cYGKi4VcwwkGBij/wUqpSJiwZ49js5DnxsBGSRVMC9LaWybeeG9xfO6ImoQoYC78SuCWiZTxYYFwIM1O+B/6faws35NjTISqU8Bfse9xvmQZkzstkxqyaODepDwTHMAvXBJJ87vJVrWVHzhoLKR9gjByLK5hjmjV9Y3vwSxpVesRDTWGOD5Mi6RRrIYuBBuAfszb6TM4bxHebbt+I9i3Pt0JmzjtP6UBYj/TasET0OdazRC6O2+AP+Ini9mQrPQt9QNNkvLZ//7iaOmirVpT7evqJD8/4fphrRFi5dsbR2si/0xp9t1+Kex73lqL0shVYJOs+zj7zgmGuAtfgRYe2hAuAIImzZgQT9e24vgetfecEE6W8ETJmsnDjipMrZKhnRC6MTUlf+6AUplRJ4ukCSTxQIIH/SNDt7xSYZ248ztr2im6ls+ABZ/LQF4Rf4Jtx0lt5TiNhmBwsEMrl+FXawZ9dZQP6pndmZkDfmxtZonljhIPNMVhTkJN0CASidYk/liUXRi7ZKVpNPx3XaGtMfNNfQIBQwphzILR4EKddCAaON9Y1qbAI67GhBqnNaZLu+s0FEzjW4uw1FZKYSePdrjE6CEHT3+PPh0tHaZ/6fxBMoNlNIzE7bneOxPomid9bsRL8TvKGw+vcH4M34v4C++DcK9o3ov4/tmFBU75+zTncYsW+lh84H1go7jH3iDJW0P0ieJw1I5jYFuDrg9a+U4IJPqDIHSmqHQG0AySIWk0VFAQPE4c1wEXqe6EOk05CqsNWNZtWc0uY/OBRcFAG/iNeHyw0NHA5lB83jQmHxjTSPS6Xx2ecpiqwLYBI/EbUKCNx09EE0fy3yXkNswMSBdhJoisgRFfMi/QNbYqHykQPmfhoTTjMR7rGJdO3SP9H2H/2iIeai6bvjuvpC7MSczBdPH4XqlqXhq1PF0r4pylSk9TquPmy76ODE1qSnb7AwU6onAY+zHZuT/VZ4T9bT2PsyTMkiRoNijC+aZi8Hr8PldGBCZm7tCBFsVWSdCxvQ07x0vB6nWcIGziVVssOwPRirAG4poXlbMiMM31mPTZwXs68a0tt4bykNVGowFkzgontYFytzV27Bp6z49yt375TgqkyrlkOPuWvOVZWFLOzwQVY2JzfrW+xrRRMzs5FCkhjbof4/CVaE1EhpnNsCEyEmrOG7yblSJEcfSZI35ZgoChY0FrYo+ku7MO+Q81jEvRuojQV97hEFrMtPjj2B53MxLUuMB6Y43v+IVRJznjLm214qF01BGGaZ5GSxxHBYwEuEPN5ppoervYjx87juWCB55rz8JZHO6KPONPNuaEb3ggtMP5CtLgc7wpJOpwrI902sCUOaLBGi/PXddwWZq5K1LYMyT1Tsar/zdr/PB8bQvzw02ek5OxKEjjrtuYz6S2z067Hz2znas0LZnJwSql7GBNnJd7Zt7mkXY6/GGILvmCSf/+ECn1Xx70fv39nBFNrXo9QFBDKCHwdazXqw3u9GKH4ofZS56Rcax1jI/9fu3pdkg8VaKQQ/p/1NpDLZ3dlSV12i0IagDWwhH2QomktRNhAPhOdStyfryk216459ymgaRGNI22BiU3dstBtCcpDhHOc39DqCD03ZnfqeXBah36YahcOqwkmHPAc27GVRjSs6uMiidcIH1DSlYmNUhxdLd5vOwjORzw0H47rrc9sWzf4E+BrfmC1AIqE7J8XBb48MgNMIyXI/41Yid+b49S/Z7YzayOYzvwjTmYvOfd7mW23cg2IlmDCaoIJTNWO//VSfnBy76CBRmt0ZfZtZf/We6zvjGACiHbipTApT2xcc2yADpAgys0FCf3ll+szD9Y88BobjHVMKtG9Y0loV7sBiOS6Wgt6V7zJSRolZw2HN9dSFdeiZpwrrYtzlEc1yr5HffS6gUfUpbbLUPuIwKIIOh0tBaFJNY4Lo1NSndqsuV5Hn14SHKsJJkphER3DuU8GPoBRlqQD+dJT5ZoBwAgmootDLaOaCzc/O6/5ZwAozeL3Tpbs+F9bvuHxP4ZKSXStXJ5cIudzNY78jtAsDK5VJzj5a84EEzl9OKtxLK9V/htKYfpFFPZeN1KfmLtw1uPDszbyG6H19XgmVFOI+A9nOcEeTOQHpX0nBBMPI+WPYnZmyiWHiYqJNNw3Kg2ZHZp/BBUsDzKaASZKTWLbg3KvlvVj7sqCZHgVa9SFcLjjBGRjIm340niIVhNI5sD4jpjQOLapYUcDXAqlLD4mQsv9zePSlNsj8XuztYIL44UTXMGij3iu6mOihHqGT5FqPPiI2BdSPvqIsHLV7IJpjw324Gq7nvqLUhzWoD4szL1jvw+Ssth6zXV0tY/1dzSlsohGFZrOBBOCm9ZRPiwR2/NcwjWsx7wfn+vSWgW6XuZvRZzNd4T/FHQ9mhF+wozjpQKzKo0kcyKj+O8oiuAssHKvr+M7IZgm+i7q5DeaA9qDLvEtig4O35moPgzeGjyYLDhFyeV6ENuFkXkpjm5SOhVC0PBBQfJvv67b14fKTtqNqzJBjtcGCR28PvhXQMTTgB8Ao2BMQGhnnC6X0E9SJfyTVCmPbZSxvkmtFHLo5wFrOr+vTM5K2ukCuXJpRvmozPkxYcsjXWuyRjCR40Z5Iq4TExJgJ1FWR6HLy4SM/qPPBisFC8nZG2kERNDiSGtRYGv7eX0BGMF0eeKqFES2SPTuVLk4tjm09kb6s9Ft6VPioRy9ZydfihCCDkBkSATnPmLqjnYsr4iD9k3uHs+IMyzYRvtwp9t/JwQTb2XKXhuh47hWLNP/nJTDzwTI7p/ZHkIKAzyI7crErFSkdEvMnkKlC8GUi/gkXcLeT9EojOcLIartAYOgjDYpLhtpwArQFuD6welLlIuKMXBSMW7ABkqj6zVvrjatVc4eyJJDvw0X0mp2/uCUwhJc4b2UXeBXgdodSOkoEEkybvKRfK2su6Kf39hSdIgMOt4zoAkaoft9qAIYyeiHYsY0/DpQ3LIfD+J6G0Lu5o1bMt5/QWsHwsAZ8XG6HHsuWOrTl0CgmGh7H/eRoqhqOT+0/grN6+3HnW7Xktcth39zRg49FSA5vmUaGUSLpPzYeM9KSAWCibHiJYSWfL/bQy+YFuevqUbBoJPGAaEW0Rzr4v9GnGpUJQnVEvBurOz435Oa2Hm/b46z8xeH1Uh5fJ3TNzXaTZp3gfj+LUZ9Jq3F3dJZ0b9qnpvjOUgXgQuK6GVlcqNqI5cuXNGIHyYAJaRARONrYkx3/tRfwr4oE4CjBpeFE91ZO99/UU68GKp9g1wt5Wi+1k4L+ShBOipW8qWDywJeAJvDwV8G6MNl7ptjBWH6QnVc+mYWwKn8vhHBBM855H7V2Y2KuIfoDUEd8lmcDHXakPbXF26o6Xnw5wGK5I49lC6Y1o6am7MxuFe/QW+c41+meCbGwCzddaDblwS46c+SYPKWm3fI82WOeSfrh14w1WY1i8fzIRrtokzSzOUlsjPHgeNNj2/F959R0lG98eojTExuOmDDu2Gnz1++qoRxcCaBiyGcrTCCr79RbQFMz74nfO1+HjiXcDajBW2EiB6TjtA8Ggl8UVxL2IepdiQzQEsWM9kRWJjBRO4Ab5IXRpQRPiXYOQ2wEMrXuNNp4vuXWOFazIOMeQbzgWODxRGhwHnyg6tkdmopukX5Ivpnln2PO08r+vy/jqtZ53hsx+9cIxoX/jq0T4SiaeEfpUnCsWwZG7SZP/hh/P56Vh33AGAJMCBYEWoPUuMlA50O40faEAEM/GiOjRcaZbjYjvGGVsYVts1x37v1/aEWTPBqw/CHCmv8A6sNJMUjebCIXGym3bh2Q5or2jShFcyOOIcdbebQmhJh6E64HuVyOpItva0DMntlXqqzmzTnqiCmQq5dvaHCIP1YsdSmtEppZJ3SdLiAQa3oDyHzFC+btgHA9NqcLY0CqAVmr/9fYsXv1aUikJhVUZ+mafY6poPvazGSHpAvmTF5UplXIxcnLuk5QGWjZVgbQgvksZVA3/xvFUxEkiDqcybwOcb4ufPKGUX/WBgjHrTTb0RIZ9PaL5mZK/NSn9uhGDdKaQF2BLSK8GQeIeRhLeAz/i1SeawNrJvS+m7hPee68PewOLtu6/ldfSbCyzgQzDnXPaovMsdtgQyotvsIiHEbDc9aOD/HY2z194daMGUcL9G3BE5M3gprNbA/3MTNCKb52etSlNCqZgfJmjiQXZk0a/XD8X/8PNDtHnjCTxJPZkuKb7ac+HOIajDk9nEuNBzoXHmD8zBhvrTk9up14ydJOJAjvU1LBGqO57B+5yHorx+5PaG9ZP6yzUzBhEEbZA0jAWOlyyO2iU8/EAjkhaFB7fiBl+x/0k+jbxzfMSVl+tKMhH6ULAH/ipHOmpVYMatg4ri8zSHjd9Z4iNF46R8LCcL0DeK29bz9B9uHpTa3WZ3djCGmGfTHYJyyT5dLbmC5RHyaIuHbkyRib7JTwXToqTMyULdUzcVZPzfyG+lQQDSIpDkyi673OEYw4dh25vtD465JthU4OPjUGWkq6lfBnuqbf0/xV47X81ALJhy13BBwGms1eId4sKN3pslY3/KIxVr78v9E75R43QYmmgcW8OOdNlJXoEJtL++VyYEpfWDmpxfk0ti0wCkFpgYuodbSLvWtgH7uaRyUif4LmsrC+WHBpMQ4woZo03oaWldDTruGlolQOr5BefjB/vDAmOu1rnGier0RLKXJ1fZ0DPqdFVIkx58LlcYyGwDy8visFgwoi2xY0S2rYDLH5kEFeW5d0HD6Ogbt2gBRqIhP09Rf2N2weg7exNBFyfGvEK8XwyV+T469Dwg6kOFEqSBgo0jDuc4xidufJQd/6a+luO0bi2jaEshwGEitpaas22z0M5xJpPlwf6d2rgAAIABJREFU7cwBZ0Rwax0TgkAKO6BFliXVqjZt3QeYBi+PE38Kl8G2Eb1XaFcEgcBi3a/2UAsmwsxFITUyO+WcxgNVvTa5WevJIZSww0sj6506B9e6QYSVCV+bB4j1lgmm1+OUPN/4ZExf4MOO2ZMuvn+N0fw+Hiac0Gghpqprf8uQNOS2aaoGJlppYs2yogPmWI5rznVx+Ir9evBfWRv/44/Bv2K9Zj6nHMuXjtJ+Ges9vwz4SUQx4UC29Faf0xJD9JfmyseEzwYtidw+QJ4AX4lC8pCSimLC3ySs4lQnw568QyAPFN+EmRLzerUGgLSzsl+vpb2sV7Wm9spu1TThWsf3YhgB0C4YE9wChscI4Yn2iCBG8FPMAsrhrQDlGiI5xtT3n9HSVb26kHV2nczLprwufcEc+m3AshcMAFCE3/6nfCXDr0gFOywKbcV9svdRH+mvH16b2dXZSbfgt4dSMGGKdLf2qc+BaAMPEeFpSmozse1MjtsyxfO5EDU9uPkkct4J3xKTALS1WdB27qTBqYRvgwgUCadU34XrB0pariPgrTgJ/XeSkq5Zz4PzGtAjWJWW0nZpr+rWv8d6LkjysTyZGLigDxD9Xa2RXAo0ALMMWhLr9RDmx3+37wk/Cf8sQ1HOvJUZx64KGwOC47ERlpREtzbGKsmjRLqqlyOkESilmbAqnFBN1pDnQ6yPwMfB3pzTbR/r6sQWxZ4Zpzw4ptFO15ovJc9z/Ssl8J14BdfSJxK3SaAeaB5WUxATmDFwbKC/DQAV8wgBAoc4n2GEpIINnFp32kpj63QOYyLCNop5udHG3J8amba/PMwLBiwYhUiBeFDiShkmbh8cxz++QsbQvOA2et473f6hFEz4ZOIOZaq/x/ZAl0nsrgw5/VqE+mN4eBwXKCKgHHlQGqZUfVa7OrSpWeb1ZrDmap16MVIJ2eCKRjNACDlr8DvxRmwv7dX8LyYoPq/4XbnKpoCvRkPcX7v21rLP1blrKhioEDtqUe3Jnj/+fKiURjfIcMekZrGbwp6ufGsk7EbtTlFHPNgyXhSNWZ2S4lksrcXLtQGiea3VHYqfwiHbXTW46tsbbaY5u1s5rMin6290/bYnUZYCo1UJzWoK41MEB8X1kuUPZ3hZRINiuJyNLSY0sAlI3opD6+Wz79mq3ZhtAadi0l2dv7MX09zMgsD9jrlFGfbNNhgSTrwGn5enkNYDzQvpJzwDQW8lOtXsYdbEiiACeT/aQymYcHR7PGMjVjMCCNU+6O0Exd/AlW1dMBe8/x61rOzP/bgZ1nMCgovbl6XlxMHnNFe1SX1Gu1KO4PM5/OwZqUpanaqir2ZEOYHQNnjzYQ5pysFtWENjDoKhy6WpS38YS4P8xkw0DT9KQ3qH3a8DvcZagmnu8oLkBJfq2JNoiok5f2VBUeb4wRwb4XvMOExsEpXR2npqBmV+1jlLJhCFky9GCHXnKALprGGqgO9pKGjXYgxsg3Avi22QluJuTUkpj1p9XNkHzQO/3bFnQ7RcOw5z0xBM3q9FSUvB2r5Ns8/dXDOO9fmtdpCseSZWq7RjKH+3QvPbzLU9dIKJt961heua78UNwO9AUmbO6TKl/bBGaMjEnrkyp86/rIAShe5vZhC3eh/ejuXRTfpWdjz2tas3FYkcfyhLLp63heEdt7F+523L278qvlmyvcv0L4QNpaIKgmokw6tEc78WZpw/yK4EkzkH5h2aCkT8mHL7n/AXig44a2BooA+xNjSjpIP5KjStv/MZzTdpf579XnI/vd+IksKIahWwVkyOLbrUrCYI2o9j4+GcGLqgEACAl1m+pYo2N4UY2kp7JPTjBPUXOe7r6jtVX868d1Yo9W7C+UNNYxL1uY2JAHN7qGnc1e739HcgB/G7cuy4MDBN3DNXzS2YXI3MJn9nAkLkj2MUig2qm7pqPHQF0RVKpwtXEULtQWg1Ca3KmzR9eVZAXeMfQ1gNt0xITXqnRG/PUmGw3r4SMi6Nqpeumn4lxqcQwMmXIzSsTiXbrDNNUpfR5xQhvppgwqeCSWjewKxTjxQrKNNZ3zCBiBriNDcLzvnko/mqfTnbh99itmeqP+voc4Gy80e2fC/AnKDP9Tj1I9JW3KP14o48HayVlB2PRaQu80yR/R6TREy+Hxxd+KzQ2ArOrF7cwfGYEAr2tA5oH0jjwDSG5iRqR6qM9EwosBW6lAdlXtF/tG3uExxYzqJuBCQYD+iS2Q582Wokd45jslXfHzqNibA2SOT9T/iuWXGCB8s4SxUct1WjegfHwSENPxFEXmnBuXL2dKrEe6epwx6bHyAfiasbbSCl8bdhyhGtvDAxpSBMJiJJwAFvxktjZpcsziyvcmIXTI94rMDoYM6RU4epBc4IrJXRQJz1D9Dp2Z3Zen6oUogIZfoUie/r0euqLNze0KX8UOwHIBAWBELbBkwJR3pjQZ+gVZoGpxJJufi3Mk6XKfLZaDcXz09pFVy0h81WNgY2sedRbyHdpiCyQrz/FmWHp2CCkwcIq8KD0oxganJSUw4zFwiIeSYQTLzgqSJzr9tDJZiYcDAYkobQVNS6as4PDyTcQdwEkMvO3h73+mbwZoWq5NQrUapy4/uyLjyA6y3K6Kzv7MvDDBbIoNInx6a0phl8SLwdIYqzJnEimBCGZPY7M0t4uwKsRPW37ud4fu7NpYkrkhVSLND8IoAJtXN8IlwFAVX21BXHfZ19RxOmCgxodFDhCG3SZxxbe1GfpB4rVLO3LLlO/WVE9oi20QfMG0zd1Rrll+inEWjWbaFlzg4rlrMeabL70dOaUGw0pJH+cUk8maXmqHWf+/nZCCYijqDYTeN5gP7kxB8j9MXOM8HcI/AAbQ7/38v2UAkmtKXY7dka3kYbctWgzR3uHNfteCuc6xhbFzrY1fG26ndMtzSvQmUU5OF1XAjv3olg4sGilhvHMVYrGo8WSvz6G6lP65Dg95KEiJtpPGTkuF0nzcUykc3//Kb9vO4aWY8vb2xoQqKOJ8rJlyI1gRoBCQ9T4v48OfZssAS9HycDzeuPAHEtCEIEBgKOPhhha/pGMur05RmZuTKr5hQPF/zpaFsIW6rl1qV0rEnzgfCLPZImY4PO/UX4Lf1fj1Uwr7VsO6krIPJPvxL1QMwvxsUIpvhjmXJ+dMkXiKZ05s04u/aJc58xhTf8zJsJ0ls5bIb1nqwfKsGEOYakB3dzfWGlM5c6bDF70xR3go8CDeTgk/4yc+HBULUzvUo1fcNRqOK45IGO/neaXBhYcngz8Y/+JkiiP8/UyYKwuXzJVqve6hi2ziQcyjinMbswiaDvQCOgEQInogRSHt+IaQiWjTZoWkkgpX84gXFOz00vaBUTUi2gQMF3AeUvtdAIaVcntCi963jvRcXQXLlwZdP+mdaCPimLr5d03yKJ/DRNQHjTELRoTAA0wVDdWEfiLViy/U/6SnWi64IJmLCUCLcKJvxvBjnuqozSRsf1TrfnvpDiQioT/aOBCWM8MIt5YaA5ff2VTZuCXYHsiY363+60nw+VYCIszuD6vBatfM0d1V0S+Vmq4n3A/Hj8IUR2/djmPEVT4iaAueFhvd+N6BSMBiCRrY0CkyHvJqvJ2VMxZC/zzDaYIFwHSGga/hSfv8ao2YWTOe2oc5I4rpfoUcAb8Vq8kn3bC/sUL4PWOTV+RZqKOjYkFDCNAt6Ms481GCrOgflHP8lbpBExTTmZZ2eVHGwZVf8P/53rHJWGAhs5GwUREvblqkZUEdUkULjAD7WeNjl6SUb7JgViuqmxaRlsHpXG3HaJ3Z6l5hhaAD43g+i2HpPUIuYKAgVtjMaDeubNeH2hcV2uGjTMRjCRqhP8QYJUJDcoaJeXB1FUZ+agq+Pdjd+nJ+bsdezQjHkJ4XPEZMMcH2mbWNZHBBNzDHbTe9keOsGEFoQPBZqOk6+EaSIpA2uWEy+GKz6I7/hG1iOU0BgW5q7qW9/4D5zdJByhpCoszC7KRrUMwvnBHyRK0LsJEvlxun0JfjdJ0bloR5ghpl0YvSTx+7PF84Uwacju0GKTTCKvF8LF/71o2fWTU7LvMT8pjaiXxbnlDm1zDDTM5AMFqkEROsYfQwNDVRBSJZcmZoQcQjWTzE4Oa7RNKEtACZOSQwoHC1pS/+2EVqq44KfIOlkmmNEQq5Fki4/v1s0vpTy6UdoLiRjeUBObhxuhQMQN8wt/EkKqOr1JisJrlBfdoRv2rz1lg4pkphoMyHAa2trliRl9CJMOFAiOX0caGO5ZY26nCnnmBi84ilYivLjnvMCo2wbavbPUeTJ0Z1m/gi7JLIAJgqIN8CIxfmQgRHySqn4te2fv0wcgNFwjVXDIOeQza2f85FSo4ZlyC6Y7uFloTAyydfF9K0qy/cp18gMw7CwbUDgB26xXMDE5qY5BAiwk+qmHiwSeJ8L41oa2QYQndmeWvQy09f/VPkd9mq72f/zuXO0rDysLCGkc9I7mXVVisxx5NlAiPklTHvOGnDY1YWtTW6WnYUA8/2ALC3v9Kdz+gDo7v0nroJAmuWw0JmjIv5JlYeaa0gs35I/IjcXlPqSrs4sqYODuQZCQP0ae2PwVG88SeW2o/4Th+Y8J7vl8iLSWdUp1XKsUBlcrZzY5dYnHciR6V5qm3GBKmnQPhPvk2EUVLEleZdJQ2CUd5f1aUw7U9tzMchMc06y3ckhNNAQhY1ed1KwcXLAEpHuUqB/NaEJmPBA89AMIhZk7PIyYoZ1VfYqUb82jYm6U7PmJjyKnzb7WNb4mBC7uBF4oCFaamo8Ts+pMdryP1v2dfYZqhflWldohF1cpJupsX1e/oS2iUZtrRdNDY3bWwv+dps5wt2ByNjrr/M0IJmg34Kfmrd1Z07siNQAH8kYEE/4Dw1Njbqbni0GSeNhGcMZDQKWSxox2DZ3j40JIrbeRewX4sfJskyKKzX6AF0E7n341epnPDKQyPgtSDJhU8Hr7vhmtb3kKFCAQeKh4uOhvzqlyPS4CAs3LsaENwG/O+EFNAsYHqhgahTP93s6U7NMVWiCT3/pqRyTjeLFE70iXwhAb9gdHNMmsXAvngfg+8WCu5PpX6LFI+yBBurO6VxrSOlWrnJq8rKkmXbV9UpViA5QSGQRbNDM1rxoLScqQyhXFtcrIbUwaL5jYLzJluHNM8wYxjzA/GaeuqnNy87YJBlK9MKxKGotbpauqX4/neO18vzp/VTJ9SnWscIozXqRtRHyWKpGfp0j26TI1f9CiILlbDa7BQw/LZp7/EqcX8yfds1gFU1/jkNy6sZJB0lm/+I3cQu7hkefC5Oy+PNVOEVYmferWrVuqQQJ3QHNdT2kyBCXQEY67/xe+khfo2kxzm3Ku7sw6fwcjgxlFiJOSQIRxXbWNCiaI0iAz8/prmCaVGuFk1viq0Ex8/xat6Oe43dkb0piI+phy1abPTB6SUMH7NOb02EPxU+euSPDbiTqpzPlZIzgxYcFwEe2K/CxNS4XTtxzfcqlOatH/wz9I0SgU9LONGV12TQyBxeTWctmHbVVp8VmBHE/cl69hdYQXggcnOYwALNQk4zcoOUZ7JrTIIlVe0RxqUptl+uLGc7ww32BCAKHNORAEaJL99TYNpDKmSU1QykHhzEVT6m8d0rp8RVGN0lrYpzxKjGVX1YAkHM2WgVbXUSVy59JPFumYGic1wg6HedjHyeooxo9HX7jWtRpanxFMvFwQJCTLom1H7UxdxsS51rEQ9sBHuI/mfjPH/V8/qy8ZqqBQDcUkUK+G5raey1TiDfkoUcGg1v/MZ15Yp/8creeFaWE1sLLZZ6vWD42PiZwe3mhQya7W8APxxoXMzevlMGWGXG178x+CorW2Q6K2pWviY+A/4+XIbwJXaFKQ9s9cnncaWjfHclxTzWSwyVYvbXLoklbCJXufjHnOZ22lYQ2qDTFJd/zIS3Y9ZnPmk1MG+wB+EKJdzUWdQm01nLZoNdFfpIvnsyHSkt2lfpOI91N0vIjMMCY0TDJ8SvhWoIQZahtV8noc29MXZyXgH3Eq3BBMhmkA3BgRPO/XoqUms1H9KBfPLadIsfZ/M59hVCAyhgDCoQ0rAI5sGpnzx18OUQbLhdmr0pDVKVmnSjWChgPdmHRrnZcqIvAWGcFktj/XNaY8TeC1TGMuwM9EMAKTlTGw4nxSDxfqGALsRPNEq8XvRHT1+HNhcml4uQvAHNfZmnORYkPyLQm3LFYzzAgrs96oYKIkl7M2NTarbJ4IQY5NFA8f4b1qD4VgAkuDrwT/Dg+nq4Z9T8j3yG+DbOHfrMZlEQhX+zn7HRUakwMcEI7O/T+3QfjxL1gruDrb1/rb/OyCVGbWS0/doNTltkj4tiQ5/OszsuvHpxQicP36cjxW4p482f0jb9WMPP8cJL7v26rRIiRx4DKRaQgKqnjATpjnZ6sXh6ZFQ6gol5FydZ+UqvhWu+aERpC0L196aoYk2StHWsu7NOO+JrtZKUJwmJLv1prfp8h6UmUuT8yqRsWDdzcbOXn40pKO5uqDzrkWF65JVX6tajcQ212dWVQ+LZgriTZVnnXOeOnYT+4ZVCCOgglN3NEnhSAvj2nUB5bEZcwiq++I8lGVsc1SEd2oScV2OMfX32gtwInBC+o3c+zDer5zHo6NsIBEbs9j3irsuC8s6026NRoTGq+18SxpgvKhAtn9Uxtw9tCvAjSIlLDn3lUOeigE09W5RSmJqlvB9WMGnInFDcVUAVSH2ktIeKsanNuFkVXq09n7mM+qUSzHc2ZF58uR3wfKvkd9VbCCJ4nemS5Ru1LU2eq4PRoQkxLH/alXosXrpSj9vvunpyUnrFSBfLzNyRPMDSmTzvoeidqRplgUImc0mABwzuJPAaOC+UfBAtPQ1sC6gHVCc8o8Wiwthd1ydXYpugf/ts9rsRpFhNtoMw1nsRGkG9m/Or5FS1chIK4vLkUqAU7icOZew0dlBYpyfLQahDIL27AAx+B7W0GPmuJWwYQvCLMY058cTBoRNhKsjYZi1o6oc3xsvKRI9zHXiHlYlFIuiYHpcmFsY2W1OAaYK8xCFUrf85QDv/CTvKjSVTMcXI0rAQbMf2r6GbeHmtAj01rgAf8kcwytEB+g39sxcnZHjty6cW+gNQ+FYOqrPqdhXEcSMnNTapJaVU3nAeSmQklx+eIV8/cdr3lLoYEgHPIibcJhvQeFnL8yrUOuEpb++hubBveNaIFCokCOzQgmzJmCoGoVKua6SMsABY1A4TrRfvBr8GbFP2JFRptzES1DXbcKJh4CkMDB7yXKxMikqvFoHwONI3ZOJECRCDqOs9k20HXOJYXJasekf+T17X3KW+JOLJm6CKak4zly8pVw2/U4dA3hwQPHQngcaAUPnwYJHrFVEjGCCaFZkVYnvGj4n6gcjTLiZryNUGLtKJguXZiXTL8KSdhtoev98mstQUVkb6BhyTRc7VrNfzdu3JAs71L7uakZ19M4YBd6Zrv1ruGcosIMpqUBjoLX0rEgsv2Ih5D8zVizYL4f/UOMVKQ4h0qs97zr3e6hEEw4buEMMoKJgSSUjDlz4El/zaMiUmcm0oGnfaUks3y9Y7TmdkxabiRMhrx9OP9aDZUZyhXeXPgorLvAdEBGPaRu1gYGyGBQ0P4ALnr/NUq66vulr86WB4dgoh++70Zq1IoMfM8/hCrFBT4XxuPIM4FSkFKinEU4N7d9z1NKIuuUntecj4ROHO2JB3I0wohWAeaL6iFlyTXSXtFjr55i9tnIGigA9e82m2KDBoMvbX5mQa5fs5m7JXE1MjV2RbVBZ0BIhIeZA8wHFvMgkohM2Sa0MO4h/EX7Hvexc26Tw0hDE+IY4JmItk1Pzklvy6CS5k30LWlBaB/QrPQ02RKuuV5ehuQcck4rt9Va43ZhZErO7spUDYxze70cJX1t55eVmFrrGI7/kxmRtD9fxyD0oxSpy+1UOl3GBP8pLyYrxo9I7ef/6SVRn9qyDByPt9XfHwrBhM3NzT7+xzDprOvVarHHnw9T565OxEc81PnbXT2gkh8VuCC4asvGkqgdYXaiROttYKOIrIx1wRG0pB63F/SJ319jhYotYG+sjagjkTdwTWURjSqYyMVC8KBdMQZef4zQ697101Pi8btgNRGJXEFk1l0xpNtAm4pQRNuhYANjhJMWYWkaZdXxSYFtsmpFKUcKpCSiTuvGmW03ukZwY+Jg6tCnO2mMEUKcsbk8PqPmGpVzEc6OwgmAaqInuZRLNfGO/CpQioJq9f4BBKVxzRQcMEKL8TGCCVyT9xuRy6qkUEuQFCfHRPCm7C5JOJCr5vVwz7ic+GOYktENtYypW4F7v55Gzp8p3hnwz7OaHXDTMmfWcwxn20CWyLWhaR94KkALwmYHligDg9WZz74IJrbdSPFQZ+dc728PhWCqiLE5A3lIT7xoQ7IyiAUh1ZrtDe7nwtAl9ZcQ2UHlR+O4n403M/4dUiYAJvK2JlUC1RrhgzBxbNRlg4UTsBsPkUlJQVuzaoSYZQURlXL090ECXzROXZoKpkc8ZdcPT2mQAOFHGDrFI18ujixF0igC0F09KGEfJUt1YZ1icBAkCfvytCrKRjBajteg37+xVRWh39VpzVoY0+l26/gRDRG/UnFMjb3gJH3Fd4K5CcWwaTxs4J3wmzAnWAYbRhU1b7bB8RvybpLeG0xhtgHLgwlN1LK7vl/83o3S9A2Obxr+OjjWrdoyEU/SdDor+rTMOjQo+MTQngAucvz1NuZD2Ecpcq5tbNOOc8dzdVSeE99/2HyWe5/wkRSvfEWqW6/B7GMEE3P0XrSHQjARIuVhQxhpRY2zTQq8g8rV+rb/8ssvBX8Tpkxt9tr0qXfzBuB05Y0c/nGqHP5VoCQdKtCkSkwvcE1MBGeNh1CLaYpo+SYKE7AQJYo7kqWaD3QeYHMg2icFg4RewJOEmhkjzovww/kZtz9Xxvsv2H1HnJPUEMwQTMpzvaPKPkAeVX5A9QpfirM+rvYbk/7G9VtqNtCX069FSl/dnXGtc48ROGkexVIe2aD8QQgYYA9pR5dHnVbrG/+h9VL5Bb+bia6ireCL8v5ztI7pvl/4qNaKq+DKlA1Ii2AKfT95GcARIRJ/IEuitqVJ2dn6ZWlKCDpekutt3L/htvFlx1jvvq62Oz9ySWL3ZemcoASWtSCBdR8Q52f35et2bsFkHZk1PhOexSxAEwKjhABy1tCaEvbnKTZncmxtNRofC5pVf81ycN7M1KzUpbZpygNayFdfLZlizs7r7DcjmOA/gtCeskCYUphU5FQ1Fy296dmfB7oyplkunLvsdHKSD0b6hvVtxxsZmhMeUnLiEET4OE69FCVeL0RI9qlymUCTtCQxow21FHVJW32nnOsbkXO9I1IR2yQpx4sVM+TsWjbyGzlq0PkqXOF2+pAzNPpGjmm2JVrm97dYGaizJUKTkgKuzao1mW3NmnGj7JJJHwFEeOKFcMW5AT1BO0WLBSOHIGXBXAbvtfdRX4nfn6P5cQbvg1ZlGiXSq5KbFPaxeHUpojk7Naf+z40IJmAlA03D0lnRv2WBm4GWEQn5MFFf1HCeu2oViW1y5HehmtXgFkyuRsnJ74DoSAOhxvxqrTGzUzFMvK3W05hkwAt4Y5qGU70oslqOPhukDzrO6LqMDpkYXL9/ibAv5kTMFxkaujfHZk3qRvgnKcvy8BA2owNjQiQmYX+uZrtb91nrM+jtw78MVM2swL9KWnJsaSEmBG7dH6AhRRDaG7qlv3NQelr75dgzQdLfMqoJt9ZtN/OZGn9W3w0POujlW7ecv0w2eg6ijDiWQbaT3oKD19B7ODsWpaaIPuI7Adlu/C5GCLHG5EWwE8kDRoFAvzh0RYUTMA+zLdflWJSS8tuksZiGP6owuEo8ng3W8u0IxvW08aEJST6ep4neTYUd69llzW1IZkZw+/0jRob7nFcQhhKFSCXXSIDALZjWHFbbBpBdZfmUKsiRB9BVI8oA+ha/DvD6tZrtbdesGkaaZ6F988rkBjn82zP2ycgN2//zAMncAC0EWgl+kLnpebupOT0+pw8UjIr4nKwN30jssTQbZcsjHppKwv9UtuUtClxhtegWOVT0k8KYmDyuGpoVOBmCCTRC5jABkA4yN7U+yhFXx+Z3NblGl4pomgc6ZkeGjPVsTdVXQJhoSOTp1abY8v0YPwSCs4bmQz9wluNLYoHyRPFdtzUkg/rOO1MpJ18Ot+OjiFSi8XIv2S/yk7QVhRh4ufFgE+GCg4qSXOT5cZ9B5E/0ra2502/mOXmDgIgzjtvmB9dFpA82CAQILxXmAst6cuYaMruUsfLEy2HSVLw8h3JyeEq6KwY1qIIvcN+T/rL/qQC3YHI2iZz9dtYrVU69GabZ687+J6TLhDBJi7A3ViWsjQYe7T8vkbuT5OjvgmSo12bKobkYmgj4pUnWNNUkDP7FWR8cf0NIYlLxoOLQJicp+3ipeL0Qqjl3RjCY/ZjU+Dh4gA795ozAkECjLLjHS4H6O5gUjuNsIdeNfQ8/c0axOea4jmvMFsYJIjkoUajEmhtZqkEDx203831x/rpUJNg4pIxQYs2bmDD8VrW0Y0VCFRmIAQkynGsb1/LXzo4PYwRCiGKnNNJveMDxwXF/MeFaC3sUYNnbNChBH8Rr2SZnx3L2G+kkzBleHOEfpIv3qzE23vFvvpGEvXnKIOFsP8ff0KxyfW0IfrINuM/cn9SAHAl9P0mjryR1m3F1FjxxPOZAy7iEfJiieCY0deY3AhxtM2Z/mpYJJzgC6Df1ZJkkHC2SM/+Ml4W5lRTGjse+0+/feuf3oV8F6kOLCm8aAwy6mVBymkeJYnfMDYv8LF0gZVur4XOg4sWhXwdIY4kNFU0YGdZHHiQKEXIeMuk59kYFE4Lmytispk0gVBBwwZ/GS9i2JC3CaO0fqR5MDhDrYHXMxDBROSbkrh+f1mNwHOAAVp8I/dv+3yfg7tCtAAAgAElEQVTE/x+xK4jozHkQkoAHPX4fIjhCcchDnVKRXrfMB2W238waSIW5D45rGBEYz61oFJpEmyRXjdp33BsofKm069jQqoCWoMHADwUmDZPMOL+PPROi94Vy5zQEKHMNbWk9baBuVI49HaQUuwBfmZemke8He8R6G2PkOG6uvq9HMF2/dkNy/Cp0PuObo2hCb8OgOvY5LsKZaioIQRpBFo8XgqQsY2PVZNZ7fdbtvvWCydwYFUzfiCZK8tZLPrhUj4yJRtIuzl+v10KlpXq52modEPN5pHdcInbaoliAEglL41/gfPizmrJsJGSbFUwIN4QHPExQvdKIgOFHcJysPLAXJy+p0LAC84xg2v+LAMkJWdI4bt38Sp3A1jfo6dcjpbPRdQFGeL3Hhs7L9GUblgeHPuR4W9mo5Gvul+M642TJHWGjHPtJMm/oh8mSf6ZKrl27pknIFA1wbBPD5yV8W/KyfjFPeFmQfoI/Eo2K+w0FDEUT6HvQWwmOh3L5faT9vNIMWzfADCOHzvFeW7dx/GwEk5nPzB9XS+qRJfeD43Gs3+HL4noAKIOF47M5PlqztSGY9j3qo3AK6+934/NDJZiIouGcQxtRH8HtFJSYg+lyrmtUo2iHCHuvo34YWJO2gl77jVJT6vbxYGg0oMjNCiaOR2SOkDTaCq0sskGi9qdKa83KMDIRO9C6ILJNM4IJjcAx0RTIAE5b/ANMNrQtfCGuGhVHiECavhDNIzq1VY2oUlmSzddFfxwXoqpU592q1ljYJjlhJUp3gmAn2ZjSUY6N6808UbKsP4d/HWhnrmQcgQnQPzQeYAH0fSOCCezSQPvyyO7/Z+883OM4jrT/N53uu+fO9vnufLJlS7blIMtBli1Z9ilYliwrWBIVKOYIkgBJEDnnnHPOOeecAwESBKOCrfqeXy17MVjsLgYgSEok+nkGs9id6enp6amurnrrLWAMGM63I5iwcw11jDrj/Uzcn3XPRGqnGMHEOEEgs/m/kKCeXISntSCYeK/QyO92+doLJp+nIlTlRPXGgIk2w8Bhjyuf+B/wTEAIePHwssGXY6dM9S+L/6sO46h5kajXamjejmBCQyI7sBECpi3EteWfrxRUbDsF1smzv4txcn67nkMIBrOyabthF3A9jv+JMsduRk57ZRB4P1tGO917atydv9l3hMMQ4mHa4rpHg+T+d6qsLK8qFxSBuHCPI7xZlrgr/Q0jEvCqg5ANihKEmLVUZTXIiaeDVZNAmzjyZKQURXp2tFjP5TOaJ5Q5pmBwRyghBLYjmAgZsevNM9f0tF+cWla2Bp7Hwe9dkOrkJtXgXYUS5yOYQIkTLXC3y9deMMWeTBXfFx00snTu4ccClV+ZZIyu7nAEE8sxtAM7BTrZ2ZHLamyOO54ubUW9WjczkylL0ytSGtagQEbznbc9mkN/+5C6m41NBaQ2nkKWjGBv7BbagaHaU0pu6oH7pzGnQ6pTm70SfYGlwgAKN/Vg/biMdU5tsC0xWGGdnBqd3vJWldzkUSgZIZV2uMgjBs1un5jjaCtJPcti6xQyAEDRU8jQzeufKsfT4ccDnWnUTT3sgYhM9sxq39A/413zsnJxDZdkPdbd5+XpFUk+XCCjvQtKWczkCPMBgFAYL+0Ws5SDc2unCnRBJ34WqquMxE8K5OqKgxrZtX5Si+VeqJBDP74gcT47d33X65j/v/aCKT0oV/xfi1EDns/Pwr3SniKYCOCFKmIrBbf57MS8Gs2NMDHno/WAzbHL7gdPeGN5i9qsYCeE6RE+p+gP8uTUr6O2JJhMGzbbA33wZi8aaF6UnuopNf5SFzaRgvMbg5xZ3l69clVKo+sl8NWELW2nn4nYVDDBxIhzgsBmuxv9hzfRGudn+qMxq1OSDuYLk9RmBagE+fV2muSO6zJxwCIR8EqKJOzPUQJAjOfNJR0y1G4/Wp8U6ySqNEkeNrsnO78TVoMWiKY4c5u62N15Lbk9cuKpEPH/U5xMeciv5+687X73tRdMZ56PkMM/ClCXLBgWTwWjMXFmvFCeEhd6Oncnv0dAtFd3ayzX0ceDVQCwzh/tnJXY93PvimDarP0lEe1Sm9UpDVkd6nViSYVdxV2B4QCtgXxwRtO5X/vDTwQqJS64JddlMW1H+4RmmbIyf1U54KETdrXHubvPnfwO9zs2xbwLlTLZP+OEX6DNwTR6P4uxMZHKy1NBqzPc437PRUl38/qoBE/n3cn3X3vBZF4KK1zAtUPmhpZ0BsY+ZChZXY+5V/9r/riaQQd25mS5kq8ZLUy5orewlNupNpdG1UtZUq1UJjkI7b0JJnNNtBDobo0x2DyHe7XHFlYV16JZdk2bXPfYb6Lfy5Puqimpjm3TwGjCSWCDoLDcM33veq63/9GgDeQEWw/54oxN5ub1m04wJzGHsDgMt0wITpcb19cYRqkfplCiFuwWvGQsAe1sTB52ijfBBMiyObtbWVrNc9333bPi/8bOOUU8tfGBEEyAwDzhNtCUUvcXqypN59oVTAAzyURhkLQgeM2G0ZnQA5geQdyCDDaUGZ462nyPIb4urU15pK2zPIkGCbJNP14kw+3jei2WACSMxA4wP7Woy0nSDEGsDxJ4pH1CbRRgrsCakNeNDCbTo3My1TfnaFvXlNLOcgx5z1iSwp6IdgnzJy9STkCZtBR16WdCQ7oqBiXmfQfbpWm3uz32q+LAWuUCNwP3bu+ZXOC8NowJ7tplvsNJkeVXI6lnajWgF2cABmey/gJshekTDZb4w5U5eNr/qemnMNRTEFo888sLq8pVNdE1KyTEJBcevE8c9+mtz2RieFpj7eiPSwukJF/V/h9sGpP5mUVlaoDlwZTVlWvSfzvUA+HpbhlqjrXujY3JTh97eh+s9fHZVTAxJhFIxFmmHMuXQ48HaGA8zgOl1nnklOz519Ou1ez4/w+EYDr16whdhpjeYUCtXrqmEfVK3H7bZb4VwaSI3acjNI8YavihxwKcG+7Soz8MUi8gLmSoLZrSN8dG0T44eFIOODh6THvh8Ql5NUUpSCI/SJUUnzzNIw8CvOBcjQInm8rblIIk8LV4ybxQJM1V7ZIbVK6cTiQDgFOIuD1in6qy6qUqoVnVb2UcKGiXxP2Fcub3EVJf1iytVZ0anjLYPqIG4sCXEpTxkVCZoZZxaS7ulop4ezM5eCfYCXAxY6uw89Js9xi42qPeyfSYA830p9kDtBztnZThjjEHJ1LPjAqmywsOjnL6/eLckib3bEjpUq1nqHlcNQTqYBzhoeypHlJhA2NoaUS9sm7ODS9pXB22KY6j/0n7BGQFwUMYEynE+A0mSGxM167c0kmsPKFJIt/J0HFTmdAmK8v28GJ3UzABsLyydFUns8SjuQoIhfeLBA1o0DgP8MqZZ2f6+G7tHwjB5PunKGmr7dVBgHt4bviilETXyIFHHWEcCBUI1fd+20/d56jimxWT3MA8CG970OCkFLJTmGVhP2SWRMtiIBOywMAlDgpk8ezggnSXO7h6AItWhTc7U4MPNA/L/LgjCSSDHg8aA4cCzgmNwvAlkXLK0KYCncg5U+5cvpBLDQG2evmaAuaqYlukLLxRYj/MktLoWg1/sHM/5hjwPlDVor3eDQGFxtGQ3S03rtuDUtCuoe4RddMTCjPZNytlCXUqmMCPBbyY4GQUgDaWwFwKmieGYFMSPs6Vqf55fV4szTrreqSlwhGDB1Kc+Euj+XIeGhYFgzyBvxSWYPu+4y+Vad1y4udhivYHwvDZZ59Lc/mwtFXZM4BDfOfz83BbmyfaHG2Q5U9tcrsmvjj5VJgUhTpCXhjr5CXEroTGbsquYDI9YWNPJx5/Ol4qkofk+upNGWwedUp1QHHgLlryepTCI2ZvuoT+NUUuzq6Ronm6BDndeRk4f7ONvF/NOfaMmMyeEW+mqweMMBP4o0AZswSz2pgQOsZuQRuhJuE7ylj/pC7t+MySjJxnFFfB1FrQL+NdjnAClixTIzOyNLeWOAADtoJSX0+TqA/TZaJvWl+ywYZxSfzYkR5JK97CH7RB2BxNnjNvAt3Obyy9wKhZXxC7zdEl1diM1Ka3ah/BcEl9CKby9AZnQPNA44T01jqYNMGYlYc3Ovt6oGtYhrrG5NqqIwSlOatHWVBpAzGPTCbuBBMTDBoTzxDBhLDe/x1/6ajpd1IYY4TvKOxXc4Hde/J0HHUBqrSOGU/HWr+H0z3xmCP5JVgynhvj3ZU9lXN2BZO15zb5zODmoR/8XoCc+13MuhgxiLqUg/ufX6r9ABqMU7+MlIbMzZddDDbQ3TzwzTaOM4Nzk+YKgLbYw1naTtoNmI/zGVBWwQR2ZqTP8bJQd2Vus/PlgCeoKcMB2FsnmK5/pqmdjMY0MzGv9CnYThBqhISQ88wUDNcEOMPYCA8U18FG0lLeIQ2lzeawLe0JOL44tyyBryQ6Jwg7AsjdMXCRB72YrGmi7PavtbEYpoFnYJ+jj42NCcG0OLukhHgcz+f521lLEOB9bYNqe9LJ4Z9famp4Jg4K8YSa2MEIpkfdC6ausiHJ8iuTnvoBFUxwhTGOrIKjMa1bqlOa9frWdm/nMxpfwkf5Mtg4viUsGGOjKbNbnxUTOUtltF9r4grTnl3BZHrCxt4MaAYx8XDkY8u6UCwXJy6tI1OnKnBMhBvAbHi/Ci/LYOOYuo8RINaBagQTKPXOsgEJ+YsjHouX/dhPQmR+9KIKGLSZ3POVCvxrzu4Rv99Ha8JH6uqqGpCw11J1Nme5ln26TA2ceJFa8nvk9K8j1XAO+PDAo/4a4Y7tBpAnfERR76dLwpEcCX41adtdhN0JnA5c3Ob5bHV/+PsBQrJJEg5Y+2grjQJGQJiPetFufSZd1f2aVp0EAZk+pWqPywksk8qUJk3uGPxGopQkVknU2xnKfZUTUiJJn+Qp8DXNt0DtcxF7UhQdXxBYLUXxlRpJQOhPRkSenHg6RLXf+D25KuyJKzvyRKCcfjpCtW/XtpPEEg+b3fvD5khwtRGMpj6M0iyhId9DgwMPhj3KTuG5w3TBBncVgc9GM3c9f1cwufaIl/+hQTXpimAahH505eKqW4mvgukXgVKW5jlXu5dL7chPzOAlaRVSkUw0/VqVOacrdNCVE6/25ZdK14GtTMuXokyUJv4JqlzodRFy1y/fELJzfHrrUz0PDREuHmLwGPBoZKjlaBxXL12X6f4FdXUrvUXPnApwrs1ykABVQnga0js94pjWWrz5J2wsWxVI5nhewC9s2AK9tQLwIHafyLcyNRxlsm9aDdsri6uqhREPuDy7oim7MWbDjUTGYRDieElJU45xGxwSPFbQFS9OLCtgkiSfHMtvPCe0RHiRWLZxPmBI7FXUA1Pl8SdDnU2tT+lSYjqEwXZCUgzym8iG2qRWJ6206Tvi3uA8t1PoI84Dt2Yom92dhzOIYw49cUFiDniOuXR37na++9obv+EPwvN25EeBUhzh4JRx1xEYf4kUD30jRcMq3B1zL75bmFiWoogaHeTmehDDGQ5uuzOdOXcn9lAOQwqGvYkCoM4TwNLu9VgiAG50vixuAne9/YbXExuRp9nbTjvoS3i4YQsFOgCtB0He2OLuZUF4sUyKfjtLN5wdTEBoYR2V9myTtJf7gU0AQjoKXFMnfuZIU49tqOB8jQZu4wCJeCdNNePN7tMVLuDu+PHeKYn5IFOxd/5/jJOJ/q3lxHNX52bffe0FE9oSAZEQWC3NumdnvLF6U7JPlenMYhfH5KnjhnpGpSKuSbJ9KhQ7BV6ErTqm1dMp675ntm4p7hJc2dNDcxrZzqxOfXhBthIrt65iD//AL0T78v2qlADN3WGkB0L7ooDJyjxZJvVpDhZLd8fb+Y7QCdgJvAkfb7/xIifuy7sjlPZo26T0Vjvyuq0sOJDf/dVjG5b41vtBw6S/YKbELrUTxRi/iZFDQ8K7Bk6uIaddU8PbvQaCCeO9YYlgmWvYI2BmQDNGS4Mm+PzL0dLjhebGXNObYGJJDi1x8GtJcuD7jgBsX9gu69ayNpt6dnr/tRdMZnB7Qn4vTi9LRUyjIxPvFgCWzNTETeFKtm4h7yTKkR8HrjOy0wYAaHYKSy6YFbNPl0r0+xkqMLHtYJg1NiY79dg9hqwrtA+c0UCt+2wkCCXc14AW8SZhDF2evyxDne6Pt3Pt2D05d+yZ+/ibvg5DrJ0LujmGZX15RIPeE3nnQjYJfiWmsCnPgdUxRHFuqt3yV/MjF+Xci9EqlDCAm0KbWrK2pjHxLGFhZSLECYInje+sgdyF52vk9AthinUz1/K0dxVMCKPRnkmpiGzSSRJ4gmP8xKvd7MiTgZLqu5E+xlP92/3+gRZMvZWjknm6RFkoGWhsoX9NFYTVZgXB1FM+7HHGpy5mdYPZsSuYuC5uZlRyjNjYfcxyZacFEzaR+I9zlWDO4Jk83TcDFCoWEL/YLgZbxiRq7/ZtCVFvZ3rsOwa6nY0lCdqu6R9PbXf3PbAMsqbw8kJhC295+Jve7wePXHWagzhtpwTTjaufykDHlHRUrtGe0N6LM8sKXaHf7RbCV9C61KV/O10Z/XjoexfUpkU9IPkzT5aIz3Mh0lC2ed1GMLG8ZAmPhhT2bop89E0HfRBJWTG2QzeM8RvjeuTbmXabvO3jHkjBhAZAqAjSHtUXety4D3I0XxjaTkmkPWoR8p0dfzpIvVy41M2G1ws+aAenzin55L/OSuIn9mcRw/ltBXoC1kPr28mlXGN+u5x+NlwTVt64dkMWpy55xAPVJrdJe3G/CgFCNLJ8SyXynfRtCQXCNhDU3oQP9j76E5oaI9xdj0d4txX0CllltlqKguqkJtEBelWNsHN6U8GEACSVE+3YKcE0NXRR8qMcAoL6gWNg78r0LRG0j60IJpbZjJGPvuG31reP+Agc5yzrKJcuXpay6AZJOVkgfe2bJ9Q0ggkCOPB0aGB49wjqDXs9TUbbppzpwhBMB/73ggS/bJ+9c6vPzRz/tRdMgMHoVB4YNgFsBAMNo8IyAGrZEz8Nk/LYRvXU4ZVj0PFS2ClwD5GJ1urOxXOB9yXsdnQ9wok0TKNd9oImua4RTAabg72h4GyN+D0bpwhkIuHtFpYGl+auqCqPOq9b/6KGvhCiwv3CZ91bOyQpJ/Ml4GX3S86B1hHpqx8SUoM3ZnZJ2tFiGe2bkItTl21jtEybCZFBm3QVNMA5Dv3gghKNGU4rNJozv4mWfbeTLVjP4SUhuzJeyK0UBH5rUbeGKdHX453T0lLcI5M2UrhPdM4I6dURTDevrvFuWa8PzodnRmFscA08odZlmjkeYCiaMc8FHFlOYImcez5GfH8TpZCRrXjlqJPgaQQ6oUdsZ5+NUSO4uR57BCCQE2M3tP7m+tkIJvqdiUC9mG9mKmzA9VjVmB67IFHve9c8Xc/bzv9fe8GEmnnuuTil4UB9D/lzkkp9OIwxjOMRMWWrgsmcZ/Zgc3jpyPr7wb+fln3/c05DD8zvdvdWwQTYD2PryZ+FSe75eon/uMgZyuCuPl5oZkf4qCmzowsSdzBTBxXaIQMMDcTYHvT/R3x0Fjz7XLRUZ3rGcBGG4/9CvIPh80uRy/OrmpbaZKR11x533+HRswoYM+hP/yZCqjMaNpxCptfU42UqDFzP43/jLdxwoocvFqYWJeGTXPV0ojUTAgRrpGv54rMv1lEV8/ul+RVJPJGjbVGKEpe8b/QF+dgyjzvi4PCMHfpugI4JAoNdC2MSnBEvPZ5XyACHOyY0jx5cUtAj2y0IPq7H82d/p4WJkTAk83zoJ0+FSZ9kssd/ESQ58QWeDtux77/2ggngYEVUkz54QGamk3HDumOw5He7GpO1l5mFwZ1wPhv568ljv51iFUwITwSJibGCRRI6DE+FtnN9hCwFtzzZR1C9Dz8W4PTSmHayR6O0w9oJAdhov8PgjW2nPqNVz7Vm9vDULuv37gQTs/xmBRuKtd3m81YFE0IDb6QpvZVQEMeaf537jopemRu/jRVzfitKLXvk+4Hal67aGuBcousDX0qUmzduqmZhlqIEBbsWnivjEuYI14KReivZeLvLhpwJA6BvudPCsi/dxwHpQLv2VobqJiX4pZTdvHLeOsn6G2orA1o1hEd8lCidpQ2zIb9ZC7MTM9dWBBMDE+J5jH5mAKJZEBhqVZVx/wMlsFNuXr8ldXktigZGywFnY1zTmwsmx/KMOD7D5YPQRJMiKJhUQdQZ8pdkDfBldkXTY/kBWBDN4cwvI53gzvA30iXibxkKE6AeDOaAQBdGlyXm71lKsEaQsusL6uk+8QKabDIIFjSE/HPV69IWeToXAOlAzagEvrjePgWvuTd2RWt9tYltCmrk+VNIn1Qe3qz9Yz0OhsxDj13QWEU0HoSEKWgS9CW2Fut987wLA2sdE9OLCXLtqiNFlBkX7gQTQds4FQwHlLkG8I3mnG65tmKPWYBkrizdTAziB/92et1zNPWy5/ldnN88MzSBxpg8cFSYpbW1HutnBDJsA7uZeK29ssnn2sQOfRmxXxRHVm8QSOZ0XU8/Yl9jIo9czpkyjdhH8KHqNuV0CZH4YEWYtcx2+pcREvCSe/uNub7ZwyywPOcIKIXzySC6+X0zwYQNDaMkwsdkZOU8UNKTw/O6pOBFgUfKaIykf4Z1EP4lgKYMatNuXj7CdLpLHdzTCF3CVliykveO5QPL4oneGcGVvFkh/MK8qFmnyjTDLoLRbqEvlqdWtP1GY2IywfC7WUGwgqgnezAFQTI5NCM9jRvTVnFvJI4010AbDv1rttTnOjRGWB2wk+GaN0u0vqYhgXaGl5PnQH8QwmHu11UwYaPsbRkUxpG1wKV14f/ipSWn17b9jmQR9INpL3vsYBDgcR/mebInHyJ5DzcrYOeoByHtrSCUYOjA6H6nOEBv17H+9rVfynEzrH0ZHL6/jZaVi+sHgblZRTM/H6cvJULFTrl+5YbUpToSWvIAMXSfez5W7UG80NZBwmeWZXYLtiXaDH7JFO6DOs79MVW6a9dsY+Z3s4cYH4YCqCkIKUA7wPh+9vlYXWY0pnerhgKnOOELZ5+PllPPhCnnEzYka7tpA8tCIzwA6TGTGuQ3cXpojPBF2Uk7TcJNZtYi/1p9IVlqbqd8evNzdVEjFAER2uHtJpcafErQk1AmB2alt3FQwazu2gCRG0hm0x8ffuOsnHgqWvuMNOFG4BihqBxfndNq7Db1GcEEo4IzhOj2jwMNY+ohg1huZmRe6WlgdDj/Qqx6cu0u4xBkEe+kyvGngiX7XJnUJXTIuWfjtH1MKqad5j5i3s+S6QHP48e0fTPB1Ns4JMkH81Wzp27ukbFxL8qDIZhu2yZATrsrg60XJezNXNV80DS8pTGyno/HBVpU88Cte2avE0+HSNKhXHVLIwzAANktroKpPqlDZ2eWVRnHKyTtqCNhArM+iSrJJIt3jVg2ZuosnzIdkMefDJGEj3I1mh9bEjgUXiBQwggJ2qw2kf9LVGIz6z3wmUENGtpaeBHTDpeogRV7F0tNAmIJnbE6E6znsBSFEiT3XIXUJbe7pc2wHm/nM/0P/UzWmVIpC2/QjC/uzkPLYimGcZn+y/OtUsqR4og6mRhY4xNyPZd4QeABPLvy6EYJ/ZvDfufaRwgTV22IutDQEDgEkMcezBQI6KyF8YDZAK9c1LvpknI6T/mxuB6xid2l9myUBAyzGkj8JE+W5y7rsos6TDshc4NtsiyyXupSOjRelHvbrLgKJtKGtdV0SvK+Ah1r5/8YK3v/y09tq5AlAidAo78X5YEXTIN14xL5XqHsezRY3bMMXvLPNaRururyAHAL55+v0hedl91spDtqKehRr5jV1mT3obGmRztCU6EtZEqJeitTlywgsIlYp1D3SO+4zrAMxLg9uZqRhdi2oJfXqEWw66A9kRCTQUmab47npYp6O0sxXMQVmsHMHlc9BnO4u60vHnapjsJBneHRDI3xOz+gStKOFStK3PU+SWOOgFucWvIa8uF6np3/eRn7qkfdCjs0Fuh96TNobXg+pv+wB2HPs1NAfY+0TTifL/VknirRZSwaG3YYwj2shdi7+I9zVKPraRhw8oCbY9CI0FCpqzK6WVhSI2zBlJG/zY5WQ11AYXhehJ1gN+X5Av/gO2xOCKmFySW5ce3mOmiLaYenvRFM8IKBQs/yKRW/lyLk/duMr3iK0w4XSx2sE29nKuYMls57UR5owQRXEcsQ3PsHvx8oCXvzFcWKlgD+w07BHvTZp5vPPnbqsh6D7aYmod3hgv1xqNotoC+l8GIhUAzhPcZYtACYKtnQWgi3iH73Nrr6EUeYAoP2xnUHUjrPv0oO/8AhdKAfATHMQEaApewvVHwXS7icUxUKpOyvW2+4vzy7qqmlPvx3XxVMeHDIZlwW2agubjyL97vcuHJTmjK6NdwI5lJTCL1BSJslmPne054wIV5qsD83Vm7JQN2YLExd1GUYRH70GxsCHEYCChNLfXKH8zfrkpzfcTTwHGmfa6lJapWBlmG9putv7v43golEl9VxrVIW0SgxH2Wpw4dlc0fhgGAT22oxgsncH++FoT9hnHF/BlMHIyaMD4Qs3YvyQAgmcl4d/IG/BsHSabzI0DSwlKGzwZEUBNTKVP+CLrdQS5klvgoFG8GFP8XLVM+aTYABjS1rotu9wRcC/MKAGs1QYqhs4eAh1IZkA+RHq0pqklO/Ctf7pw/2fuusE9ejM/kfEtSYClEc5PNQ7LoW0OjUPz04J0WR1QIBP6UmqUMyTpR5XNa51nM3/ueFYXkJnxEaCYHISwuXpK9mVJdxPZVDzmwlnq6P4GK5RcByVWKzMI6qolvl/B/iJPVUvr6kLP1P/SZcfJ4Ol4D/S5C2fEfqIiYHQJIs6UNeS9mAK8IhQ7ushXEJdAE2DGIT7RZ4knh+RoC47hnfjBnuZXHi0jpvsadrIIzTjxZrndwjXl68h1DgoGMO5DYAACAASURBVNW5FgTT6d9ESnPeRkHreuxO/P9ACKbZsQVJOpKrxPHMaLhozYNEAFlTeqNphLyeokun7SzB6HQ0E9zIaDjWjUQDWy3YxUY7ptRewblEweNtA56QdaLMbXXDbeMS9fcMR9rrD3OVM3zfd85Jpl+xTA3OqZESexMDzgxiyOBi92SrEOQ71Rp/F+vRbsMMTBaYqDczpaWkSw79IEDIOENpLx+SyPeyVXvDIG40O7eN3eEvsevg5SL7ceweB/2HuURNfoP4vRCpFC7TI4syP7nsDKcwx5g9CUrBNpn+YY+QwY7CMzEbJP3t5T3SnNsto+1kRflUPXFATzgHjQqIBULHWjASszS3jo/RlmkV9CmfFK6DIVjPc/e5q2RYl/C0CQ8cvGPunC+0pyyqQViWblYYQ0GvJupSlWV/SdB6IWo9n0kA4Rj0eqJMjtgXqNY6tvr5gRBM3DSzBWotL7QZbAwyKCeshRTdFYkNyvIH3sMV62Q91t3nm9c+laXpy2oDMtdhD5wAVZclkOsgdVeP+Q4j9sVJRztuXftMDdS4gY88EaQ2JKNKm+PZE+wLYK+vymG0RhifeDJE3ceQlHHf1rZhnD3680DJOF8oDdntKrBO/jzcbdgB9WNMBlYACR8FAY62gKBS9PHVG2onQWPx+12UTAxNO7L4rn839dyd/HPz6qfKelASXidBryVKU3G73Lz2mSZfgA20OLpaqtIblcCtNnNEqjMH5MqlVaVXdm0HQav0EcKb5Qt2R156BM5mYwIjP3YnQp5O/iJsQ/olhCf2IOw/eBWP/ShY62fP9TylKndto7v/8XIyuQJYpc1sRx53sF0wBhvT7dlOsVVy/xFvp8nU0Pp3xPW6CFlMASn7HclDXX+/G/8/MIIJOAADxbyQzH5WcJzpPIQGNggCe+HU3mwQmvPYc2xRZJMcemLtxcdQiPZhrstMBqukO85ka13m8/TYrMyOz6uRFrzI8R+HqibCLFyaUKO2IHOs2bfm9mnyAuxfuPNRvaES5p5NO/jMRvt48cjCwm+0lSWuC/bUVK11gVaOeCNDMGgbIQtDI8tH8toZgzKCiSVnX+OwLhNvXftUBZc5x1npHX5AGGLUh1ytraBPl21UeeXSDcmPbtZ74oWPeTfXmSEGW0js3kwpjK3YENnPuQgmYvcw8JKd113hPuhja0HowI9OXx7+YaC01/ZtGEMzIwsS91GO1l0a2uBcWvGsMCNsRTDh7eT+3S2vTLsWZhaFFFwsuxGamxXuyzhCsDF6K7SZiZBxY7Iaezt+p357YATTwtSSJB13zAIsY9A03L0gJH4k8v3Ez0LXsUja6dBLS1fl1K8i1wkiouNZLhrVmlkLjWd5esVOldpGlgtlcXUS/naqekcYiAjB8Y5p1X5cKzLCCA0GCEFTSpcOfvKnGeGEN7Kzsk/8/y9WDd4kHmAG54VUsnnXSm//Dz8QMVy8PPnnKmV8cFaXQ8zUVy5fldj3s6U23kEih2CCFoOXBu8l94Fx3RiIPVxiy1/7/TZan22Gf4FceDXOGY6DcF0cv6RLsuQTpbJ68brzmcO6yLJ2uHlcapM3xqPRD9WpLXJl+apbLyL329s0IGMDjqSWptHYoBhfCCbqIGW6awH9DksEy2GD6OeY7Qgm8FRMLHjePBXaSuwk2jzX2Kx0NvWK7x8iVcsHAuKtxH2QqyuR4NeTZKhtPazE23l3+tsDI5iYyfCmIBiYOZi93ZW2/H758D/O6AtUcL7aOZDdHWv9jpfP79kYnWUZlCUhDYopAgHM8o0srNiyAGGi5kOzwm92SnZAh5x6Jk4i96Ste/gsQ8mu4a6AYifcAyF46LsXdHaGjpZr0z6/30SrraU2qV1CXk1WDBIxZ7TVUwFLRajElYvXVFu6unxdrly6KoSEZPtUSkthl+ZnA2aARw/BZGKsWP6FHy2ViZ55iX0/V4X16V9FKlujp+t5+p5JJf90pdLWgPcJfS1Nxtqn5erKdQ0sBtUe/0Gu+PwsXIGf2JyuXb6pS0/4zwmKbsnu0ZRXo61TUhxUK8Md49Lf7Mj5xnVJ08SLzEvtrvCiM3kd+WGQ0zGBmx6tkf5lInIH1MULB4+Xa4gHEIwLLyRIe1mf26WluzZE/z1Lny+RBjdWb2lbCdruqu13d7jt79KPF8v+/z0vQW/Ey0CreyxVXW6rotMZX9wvRnGr59P2xbZ54AMjmLh/DI0YvZM/zHNG31v7hXALw8iH6s9nlit2CtoXMxcPKeRviTLWObXhNGZH0vwwo2oYhwvuZcMJt7+4tHBDAl9MlvKIRrl1wyFQQREzW+GuZ9Z01XKMDYP2mI2XBR6qDN9iR3aOX0Yq4BJifHe2Kmt7iLtjKYmXywqiw75UGFYlrSXdmnoKlDkCF+Aj7TOCCS0vzadcrl+5pTaQocYJTSiJUZX2h76Wqi8yeBlsV4RBtJZ3SfKhfM1ISxAy31UltEtpQrucezZW0d5E59N+lhPEvVGG6salPKRBnRxWwCeCnCUc7nO0JwqIcdgYwUJ1VNlnizQhKfStgR2AzMdOxHcwWpDAwLUQsmFdGrIkr8luUmM6GLorF69uWPq51mH+Z5nJRIP9lKI2vWejJeGT9SEkl5ZWnMtFc663PdEAjP/CwBo1lIOUH2obV1YLng3bsZ8EO7Vv7vdeIb5Nux88wfRffpIekKdhGuYm2TNYDAc19qXkI3na8bwM4GE2K1bBVJ/eLjdvZ4QlewbLBlOYaVk2sSY3A9r85m3P7IvtwhTsYHiNYGHEFgKC2epFhDeJgFwjlNizVGOWHeuakvrsdjn96wh1TacfKpbuEkcsnKnfukf7QQMDe4Ndrr24T5ryOpRSuDalTfIjy2VxZsnpOeRctCmEMCmF4G5qLu5U5DpLOrRLEnRin5nonpG61HZ9ucAWgR8DX4bbnKUriG6EHPYLlkBT/YsCuRp581hSIvAoeFqJFysMrpaemiG5PL0eZW3uB88omC+0186SQSEsB02RIOuWyg6lNR7rnnTGEZrzXPcsiYrCaqU4vFY9pfwOawEa+YHvh0rWWff0MTxH7hEbDlvY39LkzHORcu4PcVIQWrnpdbkO/TfcOyaHvh+gdRloAffCczZZUj7/9B9SnzOujJL1WW2K+He9D3f/G54u4upoI7nk/F+IUw+jGU9h7yRJTVKbXp/vdgWTu560+R0a00ffPCNhe5LWDQCEkt8zMfpQwZC05PbKYJMjYy8Gc1z0mxWrYLJyZ8P6GPZWijSmObwhaBSktyEdeUdp36ZYGnPd8rh6tQkRFgDCOOVQoWSfLZdb1z9VLSbu4+wN7eyvH5G0k+Qma9GNgYtnEt7qS4uXtQ6I9NCkPEEPqmNbtf0gmAfrHWR3ZDTuqR2UwuAaGagfk8G2sXX9adrMHmAhuclGOseVxhiVH+0MI+xEx6ze/9zYZRntXNYMuITMdNcNqJAlYQHXh8kA7aM6vs1pvMVDiYcMYcSW5VOuuCCEJpOBtwKGDUN53rlKaStyaEkXJy9J9EcZgi2S+DmjmXqqB/vV5aVVWV25pgIZGhXwQrykwa+my9TgxmU67eUZmOfBHptUrm+lYqOWFy5tMKa7uz7B12HvJCu9LeEmaH1zA4sSvydHswGVhtXpaddXbonPM8nywb+dkabcTrlxbXOYACcawWSEEOEujC9ru4m9BBsG5GFXMLl7Slv4DsGEikoOL0PH2lEw4NCUHvHRgcVyjoJxFw2DTneXDtn1sgim0DeTlSaiNKpeVpevysryDcmCEP5fT+lyhXOY7ZoqWuXUr8OlMa/dYwCpa/1EotektegsRU4wQJczow5clNNo6rJ04KUB8mAKS0kysnbXDOogRWtgRsQgjZHctQDKY2nVnN8lFTEO8vmusgHNXEvChK3wTWGrAR2OF4r+hNY272yVdFcNSkNur+ScdyCGYYWMfD/VyQ5JxpnOMmhkbupSnBREsDo6tmalBSZjCQIPyl67BeM/gqm1oEc9dSzxDOARelvc6tMD87ZR/Xiv8Khhc8k6Wb6hGfRXcXC92h1df2S5CZDWbsE+Ct85Y5OIfsgQWSIeeyJYwv6aKgsTS+pVJbed2hQf8VHGUjv1I7RPPRWhdWO/AzNXGdsi08MbuaSoD8HEEtRQ7Ni5xk4c80At5ViKBP05SR/qtZUbiv42NiXUa2wPpkCRG/BqvAqVmaF5FSjmN3d7vGTQXhz9UZCc/n24FAbVSF5gnZy5TZ3BzDbdu6D2g4WZi1IZ0ywsGUyku7s6Xb/D8wI/UuhfUp3MhlyXcAmoZ1lyYUTdShltmVJMDVqNKSyP0FbApnRXOJIP8BuQi0zfCqkv6Baodom/8lZom6eysnRVquJapCqpWVoKu6U8qkmmR+aV/RHmAiAJLOnyA6s0H2BP1ZAsjC9Jb+2wvoS8iAhTEnjaLYAmrWybGMmxl+GooF+1fCnSUTSgy8a6zDZZnFlet0T1dC3aS9wbHl2Q9a4l9pNMWZzcmOQC7ZHl7mZueWt92BPP/CbKOXEazYY912/L69e+Kwlr0KUlSzFQ+nYKQcU4f7gXsGreCunQAl9O1Mltpz2t3q7Lbw+UYCLWabRrSm1HbYV9ukbnYeLW7SpZH/kPWrmnqV8ffn1Bs+24JQYGyyXrYIFiN/T1FA0L2KzDN/udVFF4ldC8KKj1zfndokuyb/npktHV47NZndbfWWqSHTb4lWSNfIdGA+GEzejmtVvS2zAtLaVrNjPruZC1gf5GExusH1d+cOvv3j5jBK7Na1K0NvYKNDvsMcTxkeopz69SOsr7ZH7awaXkWhcTCUtcuLNhZqDQD9yLKUkfF2xAsgMPiX0vW21Y9Oni6LL4PhupuC88dS1FXRpyY7Xfmfpc96TZ8gRgxK7I7/SNdauOb5XUg4WuVXn9Hw25LrVTmRJYdilJ4e00TYw7+LSMt4z/MUV4myS4GL9fXr4ix38SojZLVhKbFZweh394Qe9rs2N3+vcHSjDROQzgQ99fY5s8+sNgRSy7dhxaw0jLpAqmON80uXxxo83A9Rz+Z/YFafvxf/qqhwZWgKQD+bK06N3u4a4ud98x8EtC6lVTwHhM7BPquu8zMRLwx0T17rBM2U5Bm8BgTRCvGcilwfUS+pcUNbyTjKC7YVAuX7LEzX0pOhujjYJTYqmMXQ71fjMMjGsbifEbH3SEtZjfEBbZp8rdCnWWzxiuWXZjZ1KuqudiNfCZ79ACrTGPQCsGG8c2aEAYzhGCeO0S38+W6vQmwY4GxARvHym+FqYvbmp3Mm227mk/NjLf30bJyZ+HaagTY4KNPiKODjYBO4UxCUke98y9U1gikwWFyfXoj4I1IN1MipgQ0HoNl5a3a9DO/JhS2ffoOTn72xinh9PTOThBzvwqSj7+tp/mGfR03N36/oETTBjsGgvb5KNvOLQaTwRjDGxc8Tzk6P1pyihpt5OJ9o76MF2Xat7OYeCjljOzGzZJb8fzG7nNWDJ2VfSpFlef16rLOKMlhbySrAOFgWa3IIRoC1QpzL4IGDyRZvDDbAkHD545a+F3xd/8MUEhEMzSGgD9iwipSWhznm89x9tnlrWD3SNKM0u/QKCGJhX1boYKfOu5XBsPn1Uz4FkZwYh3jP+tggnivKyAIlma3zhJwEJJ2wGgGo0LBoHKmCZpyu6StvJuaSnu3CDUrG1y/UwbeYGJl2ur7NqwbCfjLnQhdgu2KPi1uGfu3Twfcz7JEeL3Z+t9gNWDYTPjeOkGKIk53rpH6KF102cm5tH6O5+5HmE/jDWEPMdGfpAi4333Jj7O2p4HTjBxcxi+eXB0rDvBxIsKEI/f2dS1b8mfZe0gd58RCmxeTCx6WltZl/j9PkqXfhiZ7RZgAxgdGagHvhcgLdVj8sVtvJUKxQOpMtJnX2ti2TrUOSYN+W2qiUFfwgtq7FVK3l88uMFjhN2CZSv9w6BmQLPMAPu1FcFovW/Am3v/85yc+32cVGbUy8qlK5L4cf4GwUTsm+uSmf8JRoaD3BiHrYIpy6dCBS9QhA3lS5ErC9fUEWL4t3G74z3khcQ7eOFPcTLaYb9foX4B5MpL7ypE0HS6yoa2lCeQsWoELvcK77i1MG7pd54BglaR5zZxeJsJJuqFH4pwJUcok0Pwg6HabJxb27hTnx9IwQQK2ZtgAheCmm0EE3vQ09tdIlkfBoOH7BnYogBkgkGifpYrdl9mtAnAdLSJGLfPboeocB3Aih99y1dKI+ptQxEABqYfK3EaktGeWPJCbg/dBYOPPjOFe4A4jpcOoRS6J0Gm+uec4RV488DAINDcFYQq9bpSx6rG1DWiXjuEIi57Xmi8TiyRTVmZX5WM447sHSxjWYrRXrx9ACfZECgs062CCYGD8PGknbI0xhjNEuX4j0LU7mjSYCGYAv+cJD11IwIJ4GYFzba3dVBhEvSXa8H1zhIM2IPdwpIw/LUM57ik/60EftZ6mBzMxGL93tNnq2A6/3y8CmiekdkI/Oad4Hmb9+LcWxEyMXjvtSXu4aETTGCQGMx0PsKLhIR47Jgl6tLabFFGeHr4DHooJPyejXbGU3Gds3+MVsOuuwHssa6Lq1IQWrUhJAWvSv65Ksk9UyGVm+Qk+/zzz9W7hlG5Kb1b8s5Wytz4mnGZuvBUor6bQtgFLn5sJCDYw15PkbnRRecSBy8Xav7B72JjqjKnOfeRb2U4l18Yg62Fl7mxYn3cmrulHJriwUf9VbCjpZl4M0KIikJqBW8RbcYLZyWsA0uV8HHeBqZJaxtU6PYtKBDVeJqw62GQXxxflonuWUW0W89x95kQmRNPhWjiBlDgoKUJxcFYjTYIfxFhL1spCI/JzjkNszECgudgEO9bqcv1WKtg4rmyJDYCyOw/+e+zGpPYWzOsmmdRTJWsXFqvtbnWe7f+fyAFEw8BbQB12LqUw0NDhgtmYbwo3eVDOmMDBARWcOqX4YpI3mpn83KAPeJFNw9Z9484YozGu2bk2hV7BlBzbXi9Ida3xsoxk/M/2gLZgInbAtTnqRBjhf3k6uVrGv821DQpraUDStkS8WaGdJT0a7yY9fzeymE58xsHJQjk8+SsM8sUeLX5Dg7rvqpRWRzbaMtBi+HeoXNxjRXE8zU9MidcG8rW9qoexT6lHyleh5PBQ1if0a4arFXLhMjsyA8DpTqh1dpkjYvElkNCT0KBAKtCb+Ot8MwyT5RJR2m/kIOwv9Gx/CMEholrom9aqmLb1gltUx/CkuzLpTF1mjChu2xY8kPLJeVgoYS8lCzBrycouNYcv5U9Y5fxGPrnVOfkRgQAAdvbLRjHGfcGt8fz8XsxXEqja53t5x6AD8BtBg5v/6Pnpb9+dF20wXavv53zHkjBxIsEkIyUMy0FXQKaGsRvxsli1ZJge2zO7l4XwGlQvSxT7BYi01vyHNgjzeZhiVvj4cMZNNGz5s62W685bmlmRVKPF8gUEf7/+KdiT/BOETCMDYMYMACUrmX1yqrSk6SdKJL4vbnaFxyjsXzNU8rdzH2SG8+qxa2uXJVc/0oVLPD8kHHWFDQAlhYsu4ANEMvHcoUlkKkbzm1sUSF/TZLJnpl1desxn38hM2NzGr9HMPXU0KzgqQM6YA3H4V6hVrm8dFWFh/E61SS3SsS7qdKY5QjdwVNIKAs2KjQMUNfhf0+RoNfjpa/WjZ3J3MztfW/lqDTmtstI97g6Gkji0FzYKZm+pbI0e1kxWAT6WgvptmhvZ+ngOuEH0BUhHv12ppSE1mlKeut5W/nM/UMqR9IMY/xHE9uOcEJrI7RHJ8rboSU8+/7GYeF5uxYiDc69FKWZpl05zl2PvZv/P5CCiQ7jhSMIMuQNXpJZqUttk+M/D5HDjwdoJg9X3ErC/hz55H/OunVbe3oARLuDLjYP/ZP/OiupRwsVk4MH6PyfYmWsw7FGB2Ol7UhuVyHpqU7r99hKRjonJPFAnow2TSo8AYyMKWhLGEDxkBF1bkpnZa/GifU3jGicGssv7EyAKkEnl0as2XPMOewJofF7Lkrvx6Rv4iVBU8NeRlwhmsZQ/YTij4g9BHpAwZZy9IkgzRjSnNvljCW01o/bnPx21sLSEdyWEXD8xrNDa0o9WqxLbNznFHLxFQRVSfzeHCkKrNVYQSaEpIN5miWFNiQezBXYPCE1w/O6WQFEiqBjiT/aNikpR/P1+WCHq85skIuzyzLeMaXtQQsDpW6Cal3rZlnM5DfSuh4S4Xqc9X+eJ/dCsDNc4BPDaxgybJ7kEMTkwNILHnjrCsBaj6fPCBfgHZwPvMN4JD0dT+IJzBqM6V3B5KmX7vD7pEN5jkG6r1CXWXg8yFA7O7pmZzGXyA2okEOPB2xJMHFua36v+D4fLaFvZKhAwmbCoMbty8OFkhS8DUC7mPeylKK2IHCjbca0w3WPLYWwgcwjJeomdhVMaDZJn+RL6okCTfTIyxH5VpoMt4w7aSpIvwQ6GKgBgunmzY0xVQQcw4pohCwhFGgxdYkd6gEjOBgNBXsH9SAQ0RxM3KBjQDvgF92VA24N82hHQ12jClIkMwwaAKRqUOQSgmIKnjuWqbxMADCNkRebEoZ1niP9C8QBextc32g4GNsJR9Kl+uNBGmqB4NuskEapKqZVIOArC3eEzkDxEfxWgkwOzkptWouMdE5LY16XItXrktq1b8iOC5sDMYag9pMPFmiMoR1qW9oElxMxgNrnj/jI/sfOSdQnqVo3fc8W9U6WLp9ZhgEPQGO2W3AElATVaT8CpcCp4q3wDOkH+j3ynQzbnGLe6tzubw+sxkSHzE7Oie+zDg2Ah8+gpePdFdzwPHgEiZmh3R3n+h1E/u2VfTLjYm9JOVAk+7/jr+t6Y8ikDRge3eWxd63X+j9LU5ZSaC1GMOHKJzCXFxctJuKtdEk5nq8vK6mfyhPapLd6TL1QuJ3RSCAv81QQfmSTMYLJdY9QYgYFA0V2WlfiMqtgSjyco0tcwjjmRy6us1OAkcEehM0DmxUBwgBUrYZyHBJcn+BjUmijQWHwJrce8V2AJcFcoc1BT0LoSfbZMs3zF/Rykv6Otyn0jVQZblvTMD3dO9+jXTVmdSvoFk8d4TmRb2eqba6rpl/qcrokw6dc6+b60LgEvZIkEX9Ll5BXU5XQrzG3U4Gb3q5j/e361euSdbpUx51rf5v/iZVD+wYewTgCEGq3YAfkXJbXxAkaJ4K783kuCEKui+DH4YG54H6VB1ow0anYIHg4dLgnpPKVpatOShSO4xxmm+0UXiLqwzhNFg0zwAzFLap5U4Z9XiBrG8LeSNdof5ahLOOwixHCQkGYIliBQjAAG/InJP7jEiVqq45pVXuQtS7Xzwzi6Hez5OBja5zppu3sWb74/TZGl5NAGawFgy3XNdAIcx4vErnKDPIZQQL9iGuBW4qXwhQwOjgiSMmOkMCeleFXJBdejHPavW6s3JSp3nkhtILrkMUkN7hU+55nwAtMOxI+ynO7rDTXsu4R+hDQ0Rfk2+Pa9HVjXofkna/UIGNzPJrYzPC8wkBO/DRM6ZBdUziZY93twWlND88JFDpMivStc3smWg798ILGtKH9mf5EO/bm7HC9DrQvnAsXvbuCZn/10g2d2Oh/JgK0JQgRjZbq7rx78d0DL5joRAzEPCBPgin9PAkxz6kA4+GwEUHOALdbOBbg2/LMFUn1zdMMpmZAMWMBXPN0fbvXmBxZktaKfpmfWJLMk2XrotwRTAzifd85r/Fj2Kdu3fhM7Rfkr7NTEBpkpMVjyQZtsM7UljithrTOdRoQ9WKMB/3MTAuy3JyPhmqNSseg3dXcp6mOQDbzIrMnX5sVx8RLD0WIKYR60Jetub1y/cpNPY96sYUceNRffH4RLouzS6pBkQBzeWZF4+84B4BrW9nmPNjmWvA5ISAwPMO5BQ9W6iGSfG7M6AsPOSR2YIC28iIjEFgas5yFScB1nCEMqwvqJPDlBEeygdvPAyqXrRQjmMDC0deuG2m58i5UOZNX6PN79IJXzWor17+TYx96wQTozsDv2wv7JOVAoc7ApN3Gm2e38DKREscII/bM5GQowW3vTi1mQKJFuA5Mb9csSxqWgqgmCfxLwgbB9PE3faWzbkBtErUZPVKcUKcAQG/1efvt+spNNTCz/GTQck8hbyWuq5O2o9HwG/e6WZQ7oTAsg7RO8t395zkVMFbB5NomoBxcvyisWmI+yFQBTN8idMYHHUs1lrtsJiUTv2tG2Ud8lFmA3+wWtBmYKod7J5RaFxgIMAJzDbNnCX3shyEbEPObXYeMvMbEQGJSNMqttG+z+vX3L0U6iwbWjUczNvVZ3k6iQR/x3OgvQrQABjPB3u/yUAsmkMK4wFFfsUmgymOzgPuH2RjqWLuFF3R+dC3MhUGQfqZYI9fdIZGZFbvq+sX3mah1IMHNrvfZrX/I1NC8RL+XuUEw4b3BvY1ACXo5WXOh3UnON14WDKZ4cgD6OQbvmXVaELYZBA32KdDZCHpvBW2BdE+rS9c0fRR1o9F6E0xz4xfF97fRulTlufi/GCvt5b2aIZj6uGdeKOAhRN6zdKlNbpe2qi4JeDNWvVos0ewW4AkpH+erPSvWJ0WC/5ooGI/hc7duUIdgm9lqOfd8nBNTxGSC99hbXret1s/xMICa6AcjkNjzHUvk6L1pknohVzrr+nRJmnWhRI79OFhmRue3NFFup212znkoBFNtRouc/FWohmXcuuXwTKDyI4B42XhgMBQaLh8MzcwqGDm3UgjopD4GGt6qq5euOxHT1np4gSMJ2/hRkIJAG7I75frVzel9TR1Ql+Dpg9wNLApCbrRzSgedCS0ZbMVmlOm0yZhzt7snPRTaiN/vowUQpil481j64rbH1uStICSnx9ZTBHO8a0iKax0IH14mnhOkcSzVCNSty27V8BIAkcz2UR+lKiiQZS3ezP6mMQl8LVmfiYE/uNbt+j/o/YrIFhlqG1G73cryIyieAQAAIABJREFUqi7PEcAk92TDrkdYB0vY7RTaVxheJcd+7gCjMjEi8FL2bY0exdO14X8yEy73bdrNnqXnpekrcnlhVRNN4CkliQf58dBMgbV8FcpDIZgAziV+kqd0JTAZUhgczLAIIKh3rTFNqPLEgfGgXOO9vD00hALYE7xXnjwg2DCYaTFUm5mMkBEGyFYKszp57HGrIzRIq4RANMKBjLERb6Yr5zdC0IoT2sp1zLF4K3EiQFaHnYcCAhp7DPeBYNqM1I3l7uzEnMYS4iXCexj6aoq+RN40JlDwaERcB+MvkwgJOI/9NFg1D54T0ANsbwhtCuDQoFeSZd93/DVExMrbpAe4+YPghHIZQemJ4A9EeElMjXJkuanC41f0TW12k7IpsKzHQTLeOaOGbzMO6N+ov2dKc3GHLvE9VublB8afiUAgK4ud7NAQ9hElAbPlV6U8FIKJzsa9jDEXgyLZaCP+lqHLtZQj+XJjdaO2gpcCwy8vz04VqH8haDMD0bxoZM5wZ4Pa7LoEfTI7MtNicCZkwwjEuakFvVdQv+VRjZJyuGBTz5y762ED6yoc0GDiM89EyaAF4Il3ztwLHjmWS4SrgC/Cs+ZaWBryQmafLlPPF+eDBQI6QNIFT4XzwE4BFCSuET4hrnvkR4GSH1wp/dVjDvvPl1+qNsM94xHFjkUMG0HA3srNG59JR8mgJO0rkKh3M9W+RB1s3fV9zvhJPIBAMupyWwSGVLtFwbWDs3LyVyES+fcMGe1YS4ZAkC5eYJOB54N/Py1nno1Qb+JmYEh318/zq1KOJrLObHbfnI/Gi6eYaIiWXM+569xd625+99AIJtRYMD8Hv+cvp58J14ENUnt2ZEGzvFo7mfCV1GMFegzLhMWpjZSp1uM3+4z9abh5UpG7vFC8MLxgaAnYtO6koN2ROy7zZImSyBnBVJ3cLEGvJgmhH9ev3FDhRFQ9KHGoeu0WDKHBLyZpmwEfGu8T9wSS3Agm656lSXNO9waQJRrJ+MCUYqCMZkc7yI4CpMFbacrqVu8b10F7QvNtyuwSUhetXrqq3OXku8PNzzHYosJeS92UMQJB2VU5KOVRzSq4CddQfvCQBonZmyHBbyZI+vESzbeHHaglv8c2ct/cDxofyTdNH4W9kaqhUmjyFJaJPJe4Dx3eY3NcTXrLlnBR8MaT8hs7Etzpm5XF6WVFqrMURwOFy+yrUh4awUSHk+sM2hAePKor1B3u8so1ZnfK0Z87iLJIDJh5qkQH/3Y9J47gYQeqmuVj8qFC5Wx2TSOOSxoXMrPYVgra1vzYRfF/Lk4m+xw2HFzwGSdKnPS3vbVDcvK3wUqKT3gOSztD+eHpWhi+iYcD5OcaEM1Mj3MAVznLXmZ9Y68DttCU1bVBMAFHaKt14JWU4ndkWoOMwWOZJbantrDUBb3OszOwC+xBLGdz/MrVs2ReaPag2Idv56HzVCcBqyWRdVIQUK1Zj63HYcQnfXuBf7Uu+eFh5zlut+BoyThaogKT9vk9H6kkddh7KAivueFF1ZRMP1alNOqkYveaBC8f/WmQcsazzPZWCG0hfOb4U8FqskDz/iqVh0ow0fF9NaNy4qlQ9SIRT8VSxVqwg8A/zeBh6cd6HY9TcViNR54f6/mun3kZk/c7giiJzM88UyYrlzcmFEAosaRhtkOzuzRvj+rXXA8bWUtGt9TntiprAnaXhowOMV650b4JCdoTp/S0Rf41+pJjPwOx7anw4h9+PEgFDkta0N8UYsZyzjpCKQgupViR3/TZZPecfm/9g3AZ7BqVruIhZTzobOwRAo2xjSEANyt474xTgtCbQv9aFZhGIB3+cYADlPgvPp5Di74U1aKIpCeJZ9S76coK0JrXq7ZBNEFrIZwn/XDJjsSNMdZIsGACc/H0QeWCvdMUuKa4z5h3s+XaJfuaLeebkCImJfrH24ZtD80dDvCqmM373rTvXu0fOsEEIwDplwA9ph0s3iCYxrqnVR1WuMCeXA2pQJAxixFisZmW4frgxgYmJPTNJBV02C+uXd2IKCcG7PztbCtcx//FOOlr9Jyg0vUa5n8GPsk3sY1A+kWYh+FaIhg4am+6pB51hDTg6QKrQ0prNDS4iFyN15xbcKFWQ3nwOJoCb3fkhykqFIzn0iqYvAV/AmVAcK0uX3O6pfG02Zmx8ZaioRlBhBaH94mlHVthZKWEvZkqZ56J1Ewopr1mzzIXrYdg5Lg9OQrTGKgfl+T9hZr3LXl/gQbJ0h8g2REYhM+AV9pqwfNKPWz0B/1rCtfH0A2GSMfhoeJte/hMndj08MCZvrG7h5oX3q6vWnnoBBMPALwSAgA0thVMduv6F5L4caE+XDSO2sQOwbvVWdPjfOBbHaQIJlKKM1DInGsKMzOCAM6i0087+I8++qavYkm8eajM+Zvt0w6XaCAm2Uwo0MBE/j1dulvW8t4HvZqo3OjYZWI/zpKuioEN0ecIu7rEznV4HbJtZJwqVsFGWnEKQgxifLyNEL25Kyw5jQbH7whHAnbREOyimqE2ISkBGy77ioiNs/3CzKKT0oNrXLt8Q7m5ERI8d5ISGFucaSftIjkmTgQCZnn+cEohSLdagKLAmGCEA30CMwDC3WzRf89UTybtYcNzCgp+O4VYSHBmXA8EPqErpo/c7fmdNuHcKbywuS1qO22603MeTsHU6BBMzFpWI2xFypAcfzpONQEMsqYwYNS9/4iPxmdt1daEDYYlCLM0dhvwUrjcSatN6icGFBpaxHup61DV5vrb3WMMbsnp0SUoXsbgV5KcHibqLEgpkQM/OK8eMqhRCCchxoz2AQp1XeZa20FICG51UziHpSipmFwJ4swxCAmWgRxLvy/OLUncB5Dr+4sRcObYndgz6cwMLyjQlednNjyIwAewc1mXbtwvkxZOgu14SU2bTZwezxWhg6Db829rlLXY4ArCKiR+b7YydRoBhgdxS+VL+O0/d9JEM4ZKI+s1oYW3ei5fvCIY4IP+miD9zZvzVnmr62799lAKJpZOqP545SaHZ5wgSCgm3v/X05LnW7VOYCGIECRktMUlDm5oK4Uoel4Kkw8MGwMbiQdNkCa4G2LbvAmDrVyTY9EKOqt6JcO3WFHMZ5+PlsmRNcN6Q3mLHPlxoGKAOJasHmBZaJvPr8OkqcqzC5+X3qp18IIjbNi8CW68etQf9WaG9DcNK3sA7J/wRe10gbgu4ZNczaeG95MNlHjSmRw59PgFifswS2YGHBloEURkaWaZudXlumu7rYLp2BNBknogX2IOrnF5I4gQjsooaQnS3apgQjPTJaEBCRcP6grAKmxd28b/wAPwnIJJ28nx5u5a2/3uoRRMvFB4LZjNDj8RqMsJXMHYL7BbsFxwLbxsYE14qezgQ6znE7YAytzMjOv2j/goqZtJaW49j88MnMWZJaVj2Y6qz3IRBPpg86jE7E2XkL+kOC9RklkhZ1+IVrZEvkSbA/iI53K0dUoS9+Uq7xLf71ThfhDs3ItqZf/8p14TuuCdKHgKMaaTSYWXNvDPCRu0UGiO0ep4QVnOc2zEO6nSXNihNDHbbQcIfAQc4FezlEP4kFQi+NVkvW/ufaxrUlPAq2C6zXpKW7bCaIHwIdElY5jxBDWuHYFKG4EGMI7hlfqqlodSMPEwSHhYEu0gI8NdrRD+fzutIQ94o6yFJcjsxLzaBBgEkKQZgjTrcd4+U2d/3aiURzXIhT8mSsJH+WqIRQC4wzLhHRxqGxfQuyRT5CXjHKsHx9v1XH9DQIHZqk1tVeMvAzs3oVBO/jLUyfHEORihMfgivPHCIcBD/pzsNDBnn62SmeGtG4Opm5cC3JG1kCg0Zk+mVEZtnpnEep75zLMhJXtpYo16M+FRMkbntuJeSTiYI2efi3HLRUV4BtxYQB2gqYGRdKsFQTs3OS/hf0uX83+Id1KjXJ676iSBQ3hg5AZci5CnHwh8xhNr2rrV54qtygQsxx/M0hATO22P+yDH4WUOrHVi0uycd6+PeWgFk87cM5fkyBPBzlkHoeOO81uDYl9NXMc3xKDoKV+LGbPz4Lgm3igQ4HPDS+vsG+Z8GA06S/sl8u0MOf+H2HVaFsIJCg5eqO0UZvPV5auKocJzd/r3YZpRGJe4KUYwmf9ZmhFuknu+UmlHqlJbJe1ksRScq1INo7OpZwNeyZzrukfrvLxwRW1tuLSxa3XX9isdsSvxnOu51v/xrDbldKnrvSK6SRrLWuXYU0Gy9z/9xJruCHjCzOC8Mm3CIAE3eFNBnzQVdUjygQIpD2+Wttx+JwzCeg27n+nT5YuX5OD3HDxWmAjIdkxBK8MsgJGZsYWAAnaxFc3IUzvwwlEnG3GSJhTH3fFMQpDSYRNEUwr9W7JM9m6fi97dNXb6u4dWMNGRaAXEyWE7Mg/ZnWCCxwbjNcck7suT0LeS5MBj5xVpDS3rThQEEoZqMm2ce35NIPGyRX+c5gTmwUKJCn8nhZg+7hMhBK6qKKjO6RJ3FUz0ERpiRXqdGq4vk1YqoEbTVCUfzpO+lkFpzu7SpWpXdZ/0tQ1Ke32XzIzPqUfTtZ0sN8DNsHUUDcr8+JIU+Ffpc3A91vwPxglKWRg72RI+zlXWS2xifdUjMjUyqyEtAX+JlaT9+RsEN+h4qHvTjxeL7+9jpbtuUOpSOhT+YRIdmGttZ492G/pWoXz0LYcjA2yXyVF4eXZVtTWWi2aMJXyYd0fwADRZHCmmPvB4pm/c7XG+MG4xjrMyAL1+45pn/Np2+mCnz3moBZPpTIyAJpTBVTCxzOrI73cOgqGWcRnuGJOgPyfqDBi7J3vLYEhzXfYEi4IlyvevktO/crh8GXC4eUE4kz8uYg+YIUceMLxGO1kuL61KW0G/xhJ2lvdLzvkKDWW5dNGx5ELLSz9dJHGHMmVhwqGpsQwB+oA9B36lzpIBZXL0fyVGStMqpbWmQ1oqOqQmuUUR3aC6zUZiA/K40efmOwzOGIzJfcf3tfHtGjyNQMJbl3a8ROtH+2ADHAhUgNg1a+ltHJSMM6VS4F+joTiQ9qEtIJhAiJdFNEjB2WpdTlnP2+pnQkig87WW3voFOf7TCOcEhvvf4Lmur9yS2qQOzZpjnmNbYb/a2Kx1bPaZeyG0Cm3XCCXb+0d8lHcMW+p2bJWbtW2nf98VTLd7FDsTWpGrYILaIpDI9kd8lFcb4BwFvhvcyid/ESo1Kd7jvLw9NKhVjzweuGGgwSWty4SZFedvF/4vTm0h3urb7m8spSoTGqUsoV6i3kuX8vh6tYXQhuHeMTXWgv8xhaBoK18VxvuAV+Ml6XieZjMZ657UUA8yqZA4ANuGEWYkhMTwCziT79iw9bDcAvSZeaxM+YlASQe+kiDZ5yrl8vxa4kXsXpwLoBDQq7WsXrmhwo3cdYUBtZo+a7B5THJOVeyI5w8cGzYpxotrxhLoUAzpIDalzJOlTiphlloDrSNqTzv1TJi0l+KFtU9EyD3ODC7qcpSl4elfRzr7zvShuz2hNAgvvHAAVLfDH2Xt33v1eVcw3e5pkh+C48k8VirLUw5tgYHTUeKIoMc+sDznyOdmHg4PmgBIwge2W+L25Oq6//SvItU4CviNgYRGQAaOhnQHQTzf9dYNrgMobvea3s4jwLet2LGknB2b1wwgi+OX5PiPQwWwJrM2BfoRGBqMoEazGuwaVs5woynocXEtSmpH0k8Kxt9snwq1u/RUDTm1BrxyJDkIeTXZqYFikwLJ7vdcpGaZIaWTKVPd8yqcoO8lBhIyObKlTPXOqdeU5ArYlOrS2wWmhZ0qaHk8C8I5WLJdWlhvzAcaAkiTY4BndFSs53dfuXxFGgraZGVxTdDaaRvGcTQlICdnfh0pzTn2vJgwb5r2migAO9e738fsCqbbT4AXDi0FAZR3tkqNiVMDsxLweqwOBlgGCMS0Fig7QNziXmfdv9Vsu6YukM947L744h+qsRFTZ2xaDCo2DNBc416VG1dvagQ8gc7FoXgSE6StsE+Wpi6rcIHDh4wkRS7IYTLxDjSMObFhaE4ARwFfmkJfa0rtTzI0+Nh8T53n/xgjucFl5ivdV6Y3yJEnAzW/nRWJjaEbCpSPvnFGUs/mSnVBvSTsy1X7F5xNd6OwDDVhMQR4Z18oUc3Seq3sU+UOQO6/+OwIbc5nn36hYTOMA5hWSclkp9y69qkyQLB8PPe7WLfeXzv13I9jdgWTpddRhZkJCd0Y7ZrUzCAMBhgBrq6sxXaZUwiCPf20wy508Af+kh9WrqqySxyoOdz2nvxmhBYYoQQnc8bRUk26aLuSu3AgXjRHFpERzZRbk9gq/i8k6D2jMVHIsJEdVCxLc2sgVGxoIa+miJWMj2NZ5iFAMLCb0l06pELQdclBJhGeDTYSeIoQUIAlEdZHfxQsHVXdzjx6pq67tQeIaWhrmTAmBqY1R5y5Xl/TkFx41RG3thN8Xv2t03Lh5WTVMjFk2yn0KRMnJggM71+3siuYLE8MqgvsBzzM078Ll8gPHetzVHN3BUOs0WzYYzdhKWYH6OauPvMdSxiMq0YwAfrcDmmYqW+n9rTL0IFADQt3NV7D4z8NkZnJOV3mIaAISLYahxE+x38UoplHrG2B/RINoMvi2STNNuESpESyFq7LkhmNFnsJdhYYOnGDc807nQys19r085eiaHnzfGiP1aCMRsiSjt+NrXDTOr0cwH0zJvP9qryi6q1VYDPEzIAAtdoCrcd8lT/vCiaXp8NyjeyoqL8E1TK4vAkmfidAE2CfeWmwlRjbi0v1tv8FyasDnwj0b5/9ShktATWS4x5XOy8khumZsTkNegWc6f+HePUqBr+cJO2FAxrOg60MYULCTFM4H48ciPqCwGoNvF29fE0N7whj0jJhTGbpBDMmRm+AqrotXFOtCeP8/SjYH1uL1oK7ocgBG0R7ECAYv3l+d6oxGUpj6gKDRF+wLPNElYxQBBqBJocwg5DQVfu8H/211WvuCiY3PQYnDm5lFQxeBBPufI5hRgNWgHDifwRUTmCZrFzcmoHTNIUXkIyz1HXouwHK22yWSuaYr9Kel4GU2pdmrigyHUMtAEBgBSy50HZurN5S8ON0/7xMjU5LflKxNFa0ykjHhEz1zKlwQ+Bxn1cvX9djZ/oX9bepnnmNyr9TTXQn+4x7hjMrdr8jnRTPCkYCv99Ga2IB/j/xyxCpSd86op26b928pWmnrLFw1Mlm6F6UZhiqYZcNyhs0eIT+vbRL7mT/7gomD72JxgOJFwPBncbUkNKphu/Tv4mQhqwOrYUXB3IugGxkUuWF204h0BUMD7MeGsODVHjpWH7BDgkVLODEr2v54vN/yETvjI4P7IBGcLD3/784acrrVI7zrdwfGtfq5asS/rc01TARTNj2gEWYrbtsSOmUQ2+zsVqvy2c0UyZLKwp+K234Khy7K5i8PAXQuwwM0LI3r990uso5BbQttgXYJuGNNoUQjrAPcuWjb/lJXlClXF50UKea3+3uQZs3ZnRKWYw9D4zdeneP29ke4HkD9Ew6lKMEdRHvpkpJWJ0MNY3LtVX7CQtMq8i3R8YbxtaJn4Up8NU1dhPhjuufODsmSBDwbCD0EUw4CtAyv85lVzB5eXqEE4CH2futs5J9qsxp1J6fXpDQv6Xokg17lLWwFGmpGZSDjwXIiaeDJflggbIhwum81cLS5urqmtDb6vm7x9+7HgDz1VHUL2M9k1tK9mBtIUthWAkwBSgDaUK7baK6K5duSOBLSepkaM6wh3GyXvur9nlXMG3yRMDtBP8lSQcLaGcMicVR1XLkyQDNDtuW37euBgRTV3OvHPy+I6iTGSzirXRpyuwWbCa7ZbcH3PUAk1BPlcPhASwC8O5WAJEVcW1y9MkQSTtQJIuj9w7v5u5eduK7XcG0SS9i1B3tmpATT4eqp478Z4AOETj556s2JEbE7pB2Lk/2/ref7P+Ov2Jyjv04RD8nfew+39omTdj9+QHvAWL5AK9m+DjoeLERYavEprS6fN0jRAD4Bimg+qpHNfvNuefi1lHYfJ27bVcw2Xh6EJo1FLQLhm4M2wglNsITXAuR+6DEwTQBRiS2qiq6Vd28Gr7yXvYG0n/XOu7m/zBPXnbhm7qb19ut23MPED8HNQqgSTOm1u0f8dF8gKNtU8pTjsa9OLGs4FUI56DPqYhvUDgJY47/H5SyK5hsPkkMjoOtI0o6ZoQTSQOYtawFDmblB/8XHxlqmnAazMlYgiHd51cR0lV3d8IlrO3w9BlvIyBSDKoIKIQu97aVAtEZ3rStnreVa2x2LEufraZVN3WyHL8BjOGL+4OBoh304UTv7Yw8/3FGDjzqrx5YvLDWDZ4nM94OPnpBzr0cJaGfxDvzIyLIcM5sl6PL9MlXbb8rmLb4RBhQRGxjoEw/WSyXl9Z73QhSNYIJr4m1EKjKQMJ78o8v/rlBqFmPvRufESTMutZZubWoW65fvelAT7sIWWsbOBf7GS/zcMeo9LcMaWIDMEr3stAG+m58cEpj4+xc29p2vGikVMebCn3J/SrjPVMS8FKCJuoM+WuSUum4a8tI/5j4v+xgY0ALZ2PsmWfI/zvBKeXu2vfzu13BtI3eJ0Yr9r0cTSZAJhJTmMWnR+Y0FAA7gatqbQQTruDDjwdKVnCRxpyZ8+/2HkBg1vm1tEIMbtDEaHJQuJDy21MZ6hlVbA6keiRx2PttP2UDgLjuXhYSDIB+BuMV9tdUW5eGFSI7oFQJAWn/h//uq9tOc1vZaoyI3Lh+Q0JfS1EhA1aORBcIXHeFMcV4A6jKtjR7WSriHAwHaFCEKrlq7e7q+bp9tyuYtvnEUvYXKtbk/Isx0l3nyNXG0sjn6XCd0Yoiq9Qwaa2emDFSFSEQmPX2/e85OfnzMBnrmpIvvvjCeuhd+cwgN9S+Z5+N1RfDOvOyJMBWkXl8LXWVaUjQK4nOLLfmnJC/JMvC5Eatg5eM9FfUZTZCK7wt/SYHZiX1eIEef+GVOKnM25jvDE/V0SccmYFpg/8f4zZwiJv2Xrl8VYpDarW+4z8N1b427TZ7wzJpzrlXe0KYsDdiCiBRhLd+cW1TZ/GgHPp+gCZc+Lqiul3vyd3/u4LJXa/Y+I5BEfd+jmoOkX9Pk8mBGeVxMmr2ZN+sk/rDVAetx0ff8JOP/9tXQvcmSNLRXPn4m75y5pkoyQ0ql/mJ7ZH8m/rt7lmOgQqGm7opt1NO/XKNOdPnN+FSl70xewYcS62FPVKb0SqBf3aEy0DXgrBzLRlHSzQsA0YEvE0xH2SrtkKqbXcFTycJA/Y/6mBUOPg9f8kLqFh3KFQfeDf3/L+1ZQyIfGiB3ZWy8EbVSo0QYk/sY+LRXOmrGlGeqXsZQ0aqpfA30pVzC1wc7UFo16W2Ocnk3N2H9TvGD3GYBE2TVOJBLruC6Q6e7kzfgkZuw8sD0yIBm+ZFsKbUNpeAJoUYpqM/DpL+jiGZG1/UXGawNh564oIUhlbL0uwaXYg5727uofYdqBtTKluM4jm+FbKy7B7USbbahsxOFaTcp6eodZglfZ+PlL66Efns08+lKq5V+wWCs+tX16OhSZxJjJkR6NTL0hI7kLWQ2pvgYLiuSe0OqR+B1tagYOvxGkj77XOaOgnvKH0PXQnC39OyyXr+Tn1mAgOkG/V2lmrYZnyYvc8vwiT63UylUAYt7q4AzsUMAEyF4OCEj/I2aOPuzvs6f7crmO7w6U33LWi2DsPPYwacO8FkbEzMlLywpmDb4eU8+XSoNOd2m6/v+X5hdFlIBuqtgExmGcJ9ehNMAa8kyHCzg5+8Ia1Ljz/6kyDpsaQo5zqwKJBxBmpdGDGpF4BhyCvJG5rRWzmimt5417SgpXIsfemuoOGRWIFr36+YMaiIsUVq6vRv+krku2lSGtqg1L9wmycfzZPjTwXrfZCROeTPSbd53uF6r9QkBtgwSVWOUIeFgT53daq4u/+v+3e7gmkHniCzIkbMyLfTdZDxwjSmdW2gmzCCCa+ca8kLqJSDj1/QFxTaWvh07tcL5do26/+8GNzfgcf8Jc9/zfBvPQaNiWUW8YTcC6ma9JwfnJeSjPVLNM5rLxhQYCDaE8cREOuuj8w1oP8tj3EYgD0JJnPs/dojGGP+7rhvEl4WnKtWmuB/WIzci7NLUpfWJlkny5UT/dhtIUUfsDEBGE3ywh/jddnq6lC5X/d3t6+7K5h2qIc1ieHIggZQ4nXzeyZaZgfX24wQTAw0aCpcy9TYrOb7MoMSXEvsnhzpqRj+SkXgG8GEixtEvLsCSZrPUw4w6sEfXNA05NzX0SeDpK22090p+h0BqXgzORbCPW+FpRnHnfhZqFy5vD16GW/138lvy7PXJXFfsS7bcSgUnN9oyHetH49pZWKjalhwWuEthU8JihMSpPZWDbu157nW86D8vyuYdvhJAlgEIY79Aw3AME8iuMhlhps9+v1Mt1c1Oe9JJeX3TIzaWlDfOyv61U18L20j7hqIfSjyHcdyi6wj3gpLKF6wXP9ySTtVqEKE5QgsDZ4KXkvSVm1FMB187IJUZzTed5c5STjRksickunXJId/4ghbgit9s+WxtT/Aul5Zvi7HfhSik1jAnxKdaaCsxz3on3cF0w4/YVT19soeOf7zEHXHV8e2Kf6E1Nj5QZVy9GdBUpnrnjzMCCaMuyB5k/cVquaAlpXiky8XZy7dU8Ota9c0l7bL6d+Gq+DwJpjwQBlEOZ6vkuB61R7caYrWaww2jkvAS/G2BFNbXr8akwEYsuy7X0IbDBEpvooiquTgY/6q5aD1YSdDwKqG/LtYPebS7KpXAco9rFy8Ks3FfaopoTXiYHkYy65guktPPT+qXI79LEjd2znnqqS/fUQSjuTIqd+ES2/r+kSNpgkIJtzh6UcdbnXwLSRtNGp9YVi1XJy6pFlK/vG5e0Ceqetu7PGIAVAE2Z7n596+xHXBMOGSJ8A017fi9svqJxGWTCnu2jfcOyoB78VpRWKqAAARxklEQVTYEkz91WOK5aFvjv0wWNHg7uq8m98hSJanV9QmhhDCJoSGG/Zaqvi/EC84RGgfgoq0S6efjtRQIKIDrDAL0PMg0ufHLkqyT54KcfoYQfawll3BdJeePANvZXlV0cnYCT78jzOqQR37SaBUpda7vSqC6eyfoqS9wsKn86XIzdVbuqxTHvJv+GrQJim277WWwMvz6c3PZWJwWjm+3d6EiLr1ie/iRUWjwVbCy2rNhuLu3IXZi5LuV2BLMMGCSb6466s3hcDpe12YNKAJNjYxBBPeMvqH+6SvYDS9vnpLOivWKJc5HqHTUdrvtB3OTc5Lyqk8rWvPv51SYUYsn9zbaJ973YVer7crmLx2z539qDSpS9cFly/hAwxeBp7/C3EbKsaAG7snS3LOlG/I0AojANgezmcDC8X/2CHspvPZcME7+AJ7mXXGd62KBAVQeaxtK7biuQjKrU9r1+UPQEJvBcEAvmcrqGlv9W3lN+6dPIDk/wMgS8aY+ZGLbgUv7UNI0RdwoZskBeCwAIyyXCM8Cdsj2hV2OQjjHmahxLPYFUxbGZHbPJYXdap7TiEF2ByO/ThYPVrWl6q1bErO/D5RsSuulyFoFY2D2db/lVhN5R35lgOawNIh+r1MZ1iM67lfp//pD+xTuMTBh32VCl7AqHeydIkG0JNQIiYJbElJB/I12cKm7f1SlL5krG1GimKqNFkBdZx4MlQzq0x2zQp0JrtlVzDd0zFgEhwwy8KKeWlpLeV43vl6Ofj9YLeCiSVbRkC+7PvfsxL8WpKMtE3qMqI8ulECXonXpYH/S7HSVNR+z5d397QD78PFLs4vSc7pcgVyMjEwsZBowvcPEbpE5X8wWxFvpMv04JxXTdLa/OTD+bLvO+c0jXh1Uotcmnl47UnWfjGfdzUm0xP3aE+gL4kyscHEfZgtNfEOSAGBsxiW3UXr4/mpyK2RA9/3l+iP0vQFoLnXr9yQwaYxyTxWKh/8+2k58/twSTtcrMZnDNBjHfcmOPgedd09vQzL5/qUTon7KFsIOTr+ZKjycYMmby3old66IamJb9dkAeCMeJ7hf0vVY4ANeCqfffaZeilhSDjzuwipTWt54MNLPPWFt+93BZO33rlLv11dvi6ZJ8rUOAxuh4QG/i8k6P/ZamO6te7KeG3qS5uENOSlsbUbAIVgZ4z9ybqHa7wosFaxNesq3P1nQw8QMzjSPqGspET9M0GQpQTjfcKHeYrkX55a2XAehu7eilEpCqhT7yDg2si3MpU5oKWgR5YWLsm1yzekt2JEv8v3r1LPXcjrSdKY07Ht3IMbGvKAfbErmO7TA4XpEi0p+ZMCNYxj0EaoXHgxXnqqh9a1Co2pKK1M9n/vnPRWDm9Yrk31zsnxXzgAebjOic8icy0UIdQZ9nqaZmqx2rTWXeAh/of0Wn21I1IR2yRhb6W4FfAEBM+PXlTWSW9dRQZc+t2ARE/+MlSyzpZoKIn/83HOugn2Hmodk09vfeqtuof6t13B9BV4/Nk+5RL2WpocfSJY7RbYK+AKNwUbU7J/tuz9jp9bsnnwQiXRtQo4JIPvlYvXVHgVB9UpBevxJ0OUbgPS+v6aMecGUdqnNz4zl3no9uReyw+qEp9fOQzZB7/rL8GvJEnYX1Il9NUUufCneCcHVdKhPBloHpGrK9e99hOUw5XRzXo+nkUmBrQuni31st1p+nivDXhAftwVTF+hB1kW2qiGVOwVCCfDUIDGlHG6RPb9z3nprRrZoDFxC7ii33/ER93R6m6+fV+8KKVhDcoDZV3m8VnxNIUDGjJx44rnUJGvUBdtqykAGmeHLup9Eh5iNoKN6QdyuJ35dZRkniyTG7dDZtAuWYbBNHnkh4EqoM48Fy5VyU1CMlJv5fPPvpCL0ytqNAcCANiyNGxj4gpvdTzsv+0Kpq/YCCiPaFbEMN4ev99GK/4HF3pOXIHs++5ZKYqoVuCma7MRTAAZiWR3RQz3VY1qGimdvf/faeUyAkez/zvnnRxBpCSHO5qN6xFKAljw61wAOHI/EKwZqhZX4cz/hf41GkLj6V4BvF54KV7hGjwXCPKguXXtH/Bd9NtQ+4yEv5OlUALQ8p9+urtk89S3nr7fFUyeeuY+fc9M3Z7Xr8LDCBKAeLiiT/w0TO0XhGO4FofGdEpfBsB8rgUaFerz/XWUA7z3pcj81KKcfMqxjFEb1yM+KtxAqZ/6ZaSUhDfdFwCja9u3+z9LWQSJsd+5E0p8R//ibfNWeC54Ok0dR54IlhIXLQjmhFPPhDqvl3rQO52wt+s97L/tCqav4AgAKby6dF0gRuNF4OUCSInHh60td332X25BNabbqHDit1yLEUwsWUzBdoV2VJHc4AT76fUeOaUxeyxDYDpgSzlcqHFh5tyvyh57DXYb6EVMW82e9nM/p58Jl9aKTlm9eH3dVp3WJCd/Far9e+QHQQJdi7dy69qnCg+gfp6JtX/47pP/OavIfrRRkibcuvbw2u+89aOd33YFk51euk/HsBSZ7ptX1DieNbMcOfrDYKWKtTbLCCZeRHcaU0tWrwo1q2Ay5xNvxpKDc6PeyZTJ7lkZa5+SqqQm1cDQOMhKcuoXEUrHAiWLdQt8MUlq4zvc2r7MNbazR0uZn16QfP9qNeJDIZJ2tFRG2qaF5SltgCjO9Avtd93OPhctLUXdGzIm0x7ue2FsSZL25qugwdaUfnRjIgZr21nC4ZhAw3K9lu8z0ZppBnuWobuxnrv72X4P7Aom+311/478UmRmYFEGasYk/XSREq9BxVsd3+LkN9pMMA23Tsi5F6PVyOvuRlryusT32UiNv4P2FW0KD9RA7ZgKAbxKnpZEeJ1OPBmmYTPhf00XT1vi3jzpbRiUieFpJcEjW4jrscmHCqQ0pk6/Rxj7/ylOtSEcAmiLaI5+z8bofSAYiFdrLxqQ3spR1TDRMtlyfcvl5M9IzX5eot/PkP7mYXe3rd/Rd2Rx4RrUTzC1tzLcOCnnfh+rgumTb5/VVN5cE2Dlzau79iRvfWf3t13BZLenviLHLU4vS0dJv4S8miInfhoq8R/maCAv1L5mBq/PapMbV9d72SAyK4moFZ9fhMvqysZkA6R1Sj1UqJpD9N+zN9xtV8mQ0oxwjZh3s5VLGzI4tqrYFgl7O1nPNW1wt8cLeO6PMRL4mgMp7e6Yvf/lJ0d+Eui4l0ccTJaxezOkOKxW6pI7JO9ChZx5bi2rC1rcF59vzNRyaWZFOksHJOb9bPnkv89KzAeZcmVlo+3N3OjCKKEnFeo8YIkGF1b2yQqZGZmXpfllxToVXfj/7V3rT5NnFP+b5j4sWdwnjfuw+MFkix/UuJuXZMmy6TaD8xIFos4BQouA3AR7ASyl5dZSWhmiIjAQUNCWW9EC4gS5KtMPZ/md7iW9vN1C8gAlnidpCvThvM/7a95fznOec37nLjdJgOcGEoOHxNvq91gFQMNP9bsQk2pEN8Aetjj++0FqNLRyzR0KSbG90x50w9c3uP00vB5toCK+/1aA0nflU6tFX6gOp1OwgQp3vWG75KZzO4xUdtwR1czz7cpbGnowSo7MZpZkgQ2cXKEPXOQLXVi0NeId7ZwiP8fPSA7V5kAupv1mH437Q7Q4v8Re3KuZeeptecxrxDx4OL7iDt1tJNQHgg8nWMAfUsV1ObdoaTFxHzdsge9Yu6ny3L+aSB/nkCnFSZWpDXTtaOWqQgS6lSCG1OvR19XSw07+tjYEhJjWhldSzUbmsL9jlB9wbEUqzri4Uh2iZNgS9bgGo1IHkFyJh914wKx72narpJPObjcmJCZ/zwhvreBR4MQrcoAsF+YXCMmcCAx78u7E5fugTrDytGuVeKBJtPI6OkAcevycSzpAOlgr0hj0tkdQa8A2EPOwHhB1Ir0nxHxAtth2NRXdYdIGmeoN1LJh26eRI94hVXJlfymZUmoZ6//qWKxnU/62dgSEmNaOWVL+B4hheXGFWsu72FuBXtPl3UXkNrRRvy9AQ38G6Z6jh+M00IZCKUakR4WbQpwE3ThYp9qv38bJeqqBUwoSSesiix1eDLZYaM0UO5DnU/qDPVz0+pONJofjr4OuM8i81sgBc3B/sWPCP02FR29yZnXBkSqamZrTnYf/nR57SVe/NTNpXk+ppq7ah4Tuv9DBWphbpMmRaUJn3h7XANUbW3jehd1lVPy9ndC4s8vTRzMvZmOXIL+vEwJCTOsE7GabtaV6KHtfOVfGI2h8eW8hFf5s4VM2xHpcha00ORZd/4VmA+6CNu6DhpMqvYHiVhzN29KaaHEuunmlNh/EBq/pbmV8bhBIAp4eTsAQTO/z+XWlQqBhhSA37Nx39NLyfHTMTLvWzLM5ytlnYrJsdz6gpQQZ7Eh+HA+EuIcdPEqQXv4xE/kq7lKr7T6Zzjg4615LA4BiQFP5IC0v6HtW2vXlfX0QEGJaH1yTwio8AWeGj6veUdyLol50FTn9yRV+MEtOVhGaR+LYXFOkvFfZy5/hYYd3EztWVt6S/aKXmxJ0NMYTD+YjlgSPDTGj5fl4GyCngkNV7DWhi8rLqXhPBHNeL4YlhZnAPP6EEro4wk/dkcsk1tf8hBZmlnQLbqHS8HJiLloN9MPM1dM44IMkVgT3ZWwuAkJMm4v/hl4dnsrQwChZDdXsOcGTwkNfne2iibEploDlppPbMlgbynnJqxu3wTYO5S+Wkw0Ju34gpoM5CKgnGggiw3PByR5II3YgZpT7pYWJA91s+5r9utdDvMhjvs3Ca7hm8YkqGu4L8v0gWVV7vZpaIBTW4r6hn37qo2xK25FPJd9V04Omx7pkFrsm+X1jEBBi2hick+Iq8EIQV8KDjAYHjgvN7D2gBAWBYSRRrorrbwsX+eZ+ZSVItESONks3V8vnfmMmf/dI5EerPzMxfZBBLuNtgva53ij70cHJkYZ9Jo6Dxc7BelGAyzIi2zI4RSLQOR47jeNK7/5+R858D53faWTSQUAc9xP5wj1iqwYyDHQG2SNEYB33B2E4GcmDgBBT8nwXG74SFLgiuXAiMM2nbEja1ALOeIc3hXyd3/eUcM4Otm7YHmKL5zK0MYlB6nciOBm39hdPZzmLHKqciUo94MGgoSOuYb/k4b55cYZQbjM+y92LkeEN5UdXXhuvQ5sLAsO6MveWhruy6GSAo5USWpUjXwkveFEykhcBIabk/W42bGV4sKHh9PThFAU6gquvfq+fT+iw9UG/u9/2FPGp3bUjN1lqFuR1dnsO5Rwo59OrjpYhWnkT9q7gJdVltjB5oY7MluamsYF4bweqkfmHKzj2ZTxopvrsFkKuUuRA/AtlL5q3k/5pPneawTrwwmfoPKM1mURsK/I+8DNaK+G0T8bWQECIaWt8T5uySngVoz3PWDYEGc7t1b1Ul+sjU1oN3UitoeosN1Wcr+d8I5BXxn4T3ThRxwmNll8bOGVAOwHDlgpddvH3yFf5L066+FlYaRNEl74rj0qP2aPmmFPqKH1n+BQPLavg2eFkEfNxXfzNVdBKXbWPOBP7//SSNgVMueiaEBBiWhNc7/dkiM5BPO3pSIjGh5/R89A0hYaeE9qg/1HWRd7idj6CzztioezDpVRw3ELOLC9/hvymzC/KoraKIJaw12Wgq4fMZL/cxGkIuQetvGUDGaHsoyqtkbxF7Wynu36Qet1PuIgW12wzdXPh7Oxfc7qB8ff7G9u6dy/EtHW/u6RaOQeqX7+hhgo31Rp8ZL1SQ002H4XGwvEnVORDpF8jo8h3yITUZDXT8OAYd32xp3k5ppT1+XWynmqkgU4/vVmOTztIKgBkMUoREGJSCqcYEwQEARUICDGpQFFsCAKCgFIEhJiUwinGBAFBQAUCQkwqUBQbgoAgoBQBISalcIoxQUAQUIGAEJMKFMWGICAIKEVAiEkpnGJMEBAEVCAgxKQCRbEhCAgCShEQYlIKpxgTBAQBFQgIMalAUWwIAoKAUgSEmJTCKcYEAUFABQJCTCpQFBuCgCCgFAEhJqVwijFBQBBQgYAQkwoUxYYgIAgoRUCISSmcYkwQEARUICDEpAJFsSEICAJKERBiUgqnGBMEBAEVCPwDKbOf+kGMgbgAAAAASUVORK5CYII=;" vertex="1" parent="1">
          <mxGeometry x="169" y="568" width="93.76" height="81" as="geometry" />
        </mxCell>
        <mxCell id="8Trs2bP28vxkENtVIcJS-2" value="" style="shape=image;verticalLabelPosition=bottom;labelBackgroundColor=#ffffff;verticalAlign=top;aspect=fixed;imageAspect=0;image=data:image/png,iVBORw0KGgoAAAANSUhEUgAAAZ4AAACZCAYAAAAfDlwDAAAgAElEQVR4Aey9hXdbZ9Y9/Pt7vrcxU6BJm+J0ClOattNOOzOd6UDbgJkZJFmSOQ4zMzMzQ0MNM7Mdx4kTe39rn+deWWRbZsm+WstLYOnCeeDQPvv8PxgPQwKGBAwJGBIwJNCDEvh/PXgu41SGBAwJGBIwJGBIAIbiMSaBIQFDAoYEDAn0qAQMxdOj4jZOZkjAkIAhAUMChuIx5oAhAUMChgQMCfSoBAzF06PiNk5mSMCQgCEBQwKG4jHmgCEBQwKGBAwJ9KgEDMXTo+I2TmZIwJCAIQFDAobiMeaAIQFDAoYEDAn0qAQMxdOj4jZOZkjAkIAhAUMChuIx5oAhAUMChgQMCfSoBAzF06PiNk5mSMCQgCEBQwKG4jHmgCEBQwKGBAwJ9KgEDMXTo+I2TmZIwJCAIQFDAobiMeaAIQFDAoYEDAn0qAQMxdOj4jZOZkjAkIAhAUMChuLp5Tnw6kUT1kzchmn5C7Fkwiq8fNbUy1dknN6QgCGBQJfAzPwlSB1iQ9rgEth+mIh1M7bh6eNnfnNbhuLpxaFobGxE6f8mIiXChuRwK1LCSpD5Xgme1TzvxasyTm1IwJBAIEvgwNrfEBddgJRwG9KDy5EeXIGkCAsy/mDDzkUH0PSq9+/OUDy9NQZNwPoZ25EYZkFqcBlSQu3IfK0SqZF27Ft7pLeuyjivIQFDAgEugZJfJyAtpAzxkUVIDDcjJbQEqcGl8hcfXoS0Pxfhyf3aXr1LQ/H0kvhvXb4nEyM1tARJ4RbER5qQGGFBcogN5f+a1ktXZZzWkIAhgUCXABVPalApksNsSAovRmKEWf2Fm5EaUoqUoBJkfG5F06veC+sbiqeXZlnViGlIDrUjKcwqkyMprFgUUHKIHRnDSnvpqozTOkugqQEo/9dU5LxfgZQhViQMKkLJ3yaj7nG989eM14YE/EoC1XEzkBxqQ0pIqewxyWFWJOv7S6gVGUGViI3Kx8UTV3rtug3F0wuiP3f0EuIG5jssEjUxODn0v2JkDC/BmJ9nYMuC3Wioe9kLV9m/T/mq4RUqfp2MhEiT07jQSLBg1YTN/Vs4xt37tQRsP44TxdO8n+j7ijJy04PKxdjdueRAr92HoXh6QfRzclZITodWSWK4RRSQ6ySxITOoCikhJYiLLETiG0U4sPo4Gp4bCqgnhquxsQnrq3aJwkmIcFU8HKf0d2x4UW+MRU+MhXGOdkqgCSj4ogoM4bvuKVpkJbwY6UEVSAm3Y+OMne08eNd93VA8XSdLn470qr4RSYMtSAsuk8QfLWiG15wnCeOysdH5kgPi52lBZYiNKID1n+NQ/6TBp/MYX+q4BE5sO4PkyGIZI4YonMeGxkJ8hAn7Nx/u+AmMXxoS6CYJ0GjKfKsUqaHM8TR7OvrrpHCr5HliIwtwcv/v3XQVbR/WUDxty6hLv7Fp9k7ERxQhKdiKuKhCcXlTQzTrhB5QmAVJ0RaZHFROnDBidYdakRJiR9pwK84f7L3YbJcKww8PdvPcXaQNsUsyNimiWBBB+qKV51Ab4qKKQHCI8TAk4G8SOHv4EhKjzYJqI7jAfe7q7xPfKcDzut4zYg3F08MzZ8y/Z7tOBs0qIciAkMdRMTmof/ICOxcdREqY8oSIShHPiN8NtWH0oFyBYqP3QCk9LLWeOV3D81cwfT9GPE2GOfmnL1QCQfia47DUtrFnLsg4iyGBdkig8WUjcr5WgCWWaOhzVs1hm/behoShhbhy6kY7jtz1XzUUT9fLtOUjNgEZbzltZrrSCS8WdFtqSBlGxmQ7LJHxI+bKRqdDIol8IxwyKbQYsTF5WDV2M9DY8umM/7RPAhNT54jSobx1KCoXrUBQQ+yIiyyA9YcJePZEFfg+vleDq+duoOZ+XftOZHzbkEA3SODq7zckmsKiUdbwcB6zPlDN3xIxZJOGF2HvukPdcPb2HdJQPO2TV6e+feHwVQnhOKxod8UTXIbRg3Lw/OkLOc+eFYdl8vD7rPPhROIkkokUakdChBmrJxkIq04NCoCmJmD/iqPCIEHZ0qukrHUFxM/4OvEPeah5qArv7l17iLg388QLiosqwNhRM3H/+qPOXorxe0MCHZIAvR3rT2MlL0nFExedL0YrvfbUsFLERRQi8Z0iHNt2ukPH7+ofGYqnqyXayvGmpy9GUqgKlzkrH9nkJNSmFM+zGlUncmrvORXuCbWpPE+YVVBwrEbmb0ixMzo6F4fXn2zlrMa/2pLA/WuPEP9mPtLClFKX8QhXeTaOE98nDC7EkztP5VBPHz1D1ofqu6wQTw62SxgjcbAJ107faut0xv8NCXS5BHYtPoTYyDzEhyoUph6ap9FEMMyItzNw+4L/5CUNxdPlU8D7AVkXkvqBRQACtKidFY++uZHa4tchGXj6RIVudi09qFktzC8odBXBB/IXbhFUHIEJjOsaj45J4Mndp8h4z4YUL9B2hikY1mRObVLWbDCntmbyFmS80zx+iREm8UAF9h5uQd4fK/HyhQG17thoGL/qiATuXHiAtDe5R7A8Q7EU0FiiUSTPn5hx/4Z/eeOG4unISHfgN7WP65A4rMg1Ya2F2nTFQ+uELnLt/WdYPnY9Rr+eIwqKG6C7ouJ7fk7kW+kvEzpwRcZPSJY4PmkWkkOtIkdvNTtpQeWi6Bflr4f5q7Eg0s19LMSqjDTJQk8fUopnTw2SV2N29YwEml4A5m/HgvlfQbGF2mVfkD0j3IrSnyajvkaF7nvminw7i6F4fJNTp7915dRNJEaZJTzmvnHxPZFr3MCIbMv5Ey0VV0i1mlhOuPxQGzKCKpAUXYxzBy53+vr64wFWjd2C+KgipIWUi+w5Bu5jI/UQITYkE1odYkf6gHKP79Cq5ELPfK0KWR/b8bLB8Hj643zq6Xt+9bIRlT9NR3pIuYNhI41s1EHlMh+LvhnjF0zU3uTiv4qnCUJixxBV40u+8Xb5gfPZvGKyFXgi2rjRMQFIoAAt78wBlRJWSyObrAvXkpPSEU9JwSPHx84OHCH40ZVeOnYNCQOLlHUosGmbZjW6ypmgDkEICdeVIlx0V04MfaaHlSEpxoJjm/0jeetHojYupRsk0NTYhLnFK6SdihSji9FkE1YCCbkNK/KrnI67CPxS8WxauBNpn5uQ814Fct6pRO67VSj8cBwm/bwQO1bsxct6P2go4S7J1t43AvHv52pFXa4bGzcxejm0thnqYWiHn3HDI0+YWOGSE2rOK+gbX9pbVtQ9MMI6rYne2/+4aNmbRLwZLbdDj7KlkCYNAHqXrItg0a8uf3kmGWOYHQmRZqyZuNXb6YzPDAl0uQRWTtiI1NcUCShRleznRYXDuRoXk48Da491+Tm78oB+qXgmxM+VuLrLAtesfC5yxtGrR8/A1dO9WwTl60AQZquzFKiiRE8l4nmvrgqK4Rx+R7ymUCviBxbi0olrvl5CQHxvfPpMVP08HecPd1/okHx3hd+XC9LHG8jDfRwod4Y9nZ/TwhW8ms220t4rxvqpO3D9goFmC4hJ1gcucu2kbUiM9AwLk3orIdysSGz9PELkl4pn7IiZXsMe3CiIUc8MqlQb8FALts3bB1qw/vw4seMcEiPV5uVaTeyqXNw3Pdf36t6puOLfygVDRX3tkfdZhXgdcUPzcXL32a6/vSZgefUm6caYRHSgELS2Pgb0QlUxHslcFRQ+Y3gppqTOx8FNxwI+BNz1QjaO2J0S2DR1NxKiPIlrGSmhUW75b3VAkAn7peKZlDHPNZyhob+4Wah4u0J0cRNPjDHh6Bb/jqvPt6xWVcOa1+KqUFrf+BzfDWUNjxmZn9hw99rD7pzbvXbs3A8qkfXaGEGYEcL86HZNl17LgQ1HETsoT8ujKeipQ77aHHN/nzVgDDL/rwrJUcXI+tyGlWM3o77WCG926cAYB2tTAjSu9y45gsQoC7KCq1zaHhDyz/xw/pcVbR7HX77gl4pn04zdQtvtvgnwPUMetFTZrZOv6V7+MiQVTx8+8xeZul5HE5D0fgEyQyuFFkcv7PJ2b619xlyP+R+VaOrDgKmsT0oUso+gijAblldscpVlJ94x3Jk00Cx96FvK5XiTf2x0HvL+XIarx2924uzGTw0JdE4CRzacQGxEviDYVD6n2WAVxfNeEV487T3Sz/benV8qnnPHLqokLgv4HNQlDHMojLpzbJ4J+JRwG475qddzfu9VxTrg1vrAeZPTYdR6GI73zIJEolXSBpQL+mrL7L1o6OM9YPK+KNM8QxbaliBhaAEe3+0Cr6cRyPtaUeFIrYPDu2H+hqG0QtV2PLRUwd2DbZJDm5Q2DzfO3wFhq8ajZQk8f9qAipFTUDFiMu5d869CxZavOnD+s2/lMcRHF4kxRqOJtWSxkfkCm2bqIfbNHNw4eztwbgiAXyoeQqjN34zV6GJIR8JkvPeEfFKUBZnBVdg8Za9fCn6JZYPXsKGz4qEHx1wCvRqlaFnQWC7tEWz/Go+rp/qHtV3813Ey5pQD4eTJEVZsnLWjU+NKDquxv87yShMvHnOoHenBZZJbIqSdobjZ2ctw9dQtI3/jg+SfPq5DxmeqSp6bIpGWu1f0PgmlD5ceEF85tOE4El5XSEoa2Nw3+EzGEtJvxb9RgIu/XQ2Ie3G+SL9UPLzA84euqCQa2VW5CWnej/OGrb9OH1CBdRN7r5ues0CdX7MyPveTchXe0SaNfs3Oz9zwGIJTiDVl0RT8qQqb5+1yPlyff13678laISdlYUfqgDLYf5jcIQVw89JdbJixA7l/VDBo4VRzeDoqTJEUzr70FcgcUIXEiCKU/3ciLh4LvEXcmxPj7JFLgrDKGFABUvHL81vFqHmoeO1689oC/dwXfruClDfZkNC1aJndQxkRSPmkCNcvBiaa0m8VT1MjUP7LZIyOzlPhjxYUj1T0B9uxb9VRv5tnB1cfV3U4bhues9Lha6JRqFxJ+pn1fglWVm3Bqwb/Rup1h7DHjpwt4UUqYalpCi6TEMOZw+d9Oh3bUd86dw+2X8Zi1KAcsQgpW3pQDF16yr1EYNUZf7Li9K4LPp3D+JKrBH4/dF7kynXIkgFW0XMeV46egibSfhuPDkngxbOXUmvGSA8ZM5znLj0ehoe3LtzTIaOsQxfUxT/yW8XD+2Qb14Lvy2TjUFX8btXl7AYZWSgT/sH1J10sms4frvCvCh7sPGm8veZGy0Vr/ltgQCE7LxnvR5iUsEDi1pQRi+KSQriZFcE+cqz3H2if1tc9x/LKjUh6pxAJYSZkBlUhI4hgDgviogsFjEIaEWfZi8ESbsHcrBVoeB44SdlWBdEL/zyx63dkDGB5g2rTIRtleAmS3jQpxpFeuKZAP+Wz2npk/cmGrKAqSTGwXswxd1mwrEVPUofZkPpHE6pHzcAi+xrsW3cYDU8Do7jerxUPJxChq2NGzBALmNZrcohSPtI+eogZ8ywr/LIPypn9FxA/qEBChI5J04LnwzCQ7btJ4Abanx9TUxcq79ZNTikxNty5eN9FNISX/rbjNCp+mYrU4UQ4ss7Gk8DTWfbMpUmIItyOpLdMOLHrTMBajC7C6MU34+JmIS6sUPGD6dRDIVbp5NqLlxWwpz608Tjy3q1CYijns8rpMBdJFK8+l3XFw/c0oMSIkpYpZiTGmDErd4nfz2u/VzycQS9fvMLqKZuR81kZLH+aiLGjZmPj7J14cOuxX04wonzS37EKpb4+efRJ4+2ZYaG+WBDa3sGZkrRQAUrcFA+L49I/sUjnz3s3HmDttK0wfzVOvCJJtDIH2AL4xFne9JoZLy/8dAwe3vQ/D7m98urt79+5ch+xMfkq2R2s2By4CaZEWDG3cEVvX17AnX/X4oOIHaiaCzorFwFXaakGho1JWOs8r/XXCiyjEJkXj1/x6/sPCMXj1xJ0u7ia+08xJWGhVo/inRRUnyj685SshW5H6Z9vq4k+C6USaa5R4GtuZgypmj+eAHo/JOWkh8M/Rz2X22/cj8H3BG+wX05DnQGP7ooZdnL3GQWKoacjG6NFChnpWe5ZZSDb2itj8+cThCnduVyE85YRkXRyBYYofkGGNt2/I+skvFh5nmF27Fi8v72n79HvG4qni8TN0A/DaylDi5ESqWqOFDTau3XCiZIYYhGv6Pjmc110FYF9GMtfxiMlyFNZcyOjR5MeVu6CcJQQBBtfhXvhrfKiiJIGm/2asTfQRm/T3F1aeFMxpTOMqQhvLXhwoQvqrwJNIJ283oyBCpihh850rycp2oLYN/IQ/24uEl9XjQe9KR6uESGzDbNh6Zh1nbya7v25oXi6QL5P79Sj+IexiBucr4V8tNhsKzkHmVzBdsTG5OHamf5Rp9OaqF89A5KHmhEf5slDpS8m5vWIdhOFrjVvY5Et2SsIMaUy1/+4AbK4mBRL6a9VCHhjx6o9rV2C8b92SmB+wWrFHqLLnT2igiuQNMji9zmGdt5qj3ydeUcCYkaH5WNETCbGxc/Cye3n8OhWDQg4aGxoQlXcNKSG0cNUe4w+33XjjKUB3FN2rznQI9fc0ZMYiqejkgPw6GYNZmUvRWK0WSWtW+gUqk8Ox3OoTUIU3BxHRmfj9mX/6YXeCXF06qebZ+4RRJo7HYjITItvM7RGqzotqEzoh5LfNWFJ5Toc23Ya9o+niwfZLGO7gwQ0KcSKFZWbjM2wUyPk+eMx/53lUPS63Amnznq31PPLxidtSuDJ/VpcO3cTd648wMt67+Hgsv9NVuFoN8WTxFAyPc7QEowdPdPv268biqfN6eD5hfraF9g4ZTfShysrW6DeIawXaUae6AvR45lwSEJPI5WyYu7i2u/93ONpghBw0ooTD0a3oLVnejmUo6pnsEl1/PopOx2s5C+eNSD9ddcQnUq0cnxsKP33RLyoNyDTnjO5c59kveMKUecYceMr+LKqcwc2ft2iBIq+rkZamGcelHsQc5ixQ3Px5F5ti7/3l38YiqcdI8FeLid3nUX8W/mqsj6YLaoV1DEhssjRqdJD2ThvpFQ8bG3AEFA4LfdinN7Zf4sXG181Yn7OGiU7rd23u/yYw6HMSKGT+rFJikSdh23n4oPiQTr/jnJNCrYh/Q9W1NX4RiD76kUjGvswCauzzDr7+sHVxyq35mZ5kyW59J+TO3t44/deJMBOzMlDLCrU5ryn0CgLLpHIy/6V/t0ATr8tQ/Hokmjj+fKZ60j70CxFjSzsYkyVykPFWhV3Egn75L37YnSeJKGqS6D8NsSGtPAykI27Pz5uX7+L3H/YkB5SIShAkYmzrLTX9HSI6hkVk4v7V11JKGvu1yHlHQUu0OPc9CiZ90mLKkXNrbpWRfvy+StsWbQbBd+WI2F4AWLfzsaU9Pl49dyoum9NcFsW7fI616nwp6Uvau2nxv86KIHN83chMcrkVfFw38n7tLyDR+75nxmKpw2Z37/2EGX/m4iUgc2J62bLmgk+InqaUT10dzMJd9Qgv8K/5mUzbT6GFRNj57ZxFX3o303ArhUHYPl+LBKjFCmqsyy8vZZanQi7B4/amT0XkfVBiXiNVDajBmYjOagE6WQtGGbCsY1nWhTc6T3nYf/XeCS/YUZ8lDIgGK5QxoQdaW9bcfuya9Fqiwfrh/8YHz+7xST3xil9FMTRBGxevAPwnn7p1lnwqqERaR+ZQRYDARe41a1x/s/Jabl26tS+c5iWs1DWXdYfSpA82Ipkom/ZMntwMTI/tMP84xhsmrkbDc+63+03FE8L04X9W+YUrkDCQNV2QVXGuyqf+EjFKJ35mqJoocVNihZhO26H4iGapa9zs9U+rsP6mdtR9OlYJBCMwRbmIcwRuKJzvCkeWtFLbOsdOZ3Ht2sxM38xRg/MUQACgjU0BCGPW/htBa7+7qUteiPw29YzqPrnLFWEx5YbERYkhOms4AybqrBeYpgZGZ9b8PzpixZmSP/+uPBr1pK4rgeOHRU3w9F98THXvFw2fnJI9vTj5rk7SIlQa8VbB1LKfu/yI47LYtH9yT1nMaNgIbL/yPyPXeVPtdYyDF0zPEeCZRZoM7fK/BxfZ71XhtWTNncr5ZGheBxDpV7UPqjDhom7kPi66n/BDpRSsOXNa+EgcgBjrCB1yMGNxzC/aI1iow7VqSxcYb7eNtbYyAJcOxmYLLNu4vN4++jeE2yYvgOpb6lN3tFzSApDWwdjSIOrcCuKvx3vOO6hTceR/EGholAKsQs9PD1OwlCpyPK+qEDtQ8/w2rXztzBu1BwkRVqRFlSBJE3hSVgujChD1WCQ4yNjGmJHUlT/zr85hO7lRdobCrjhPp/ZOK/ubt+kfjJ9PlaiGXHR+VhZurnnUJKNQHXsDIGqc/0kRnrWrcVFFGL/6qO4dvYm1k/YjaL3xjn6l6n5rJQPPRyCoAjYoZHAZwWKUikAKiCuBXJHkln/wY3uYfgwFI+2qEhIemzzaSQNMSE1ghtaqRTDSXW8wHg9F1p8eBFyvirB04f1jqW5ffFeJIQVIUUUDy3CthUPrf4d8/pWpXf90+dYM2ErRg/LRnJksUBAdaZoTmxu+Clap1H3zcv5fdpAO26fvydMx4sr14hHwkZYPIZC8qhmgaJAIqx4fNuVjv9Z7XPMzVuB0ZH5SA4l8q0EbIeQoB2DspffyvWocZfQaTj7ntgx19Ry+MIx6P3sxa3TDwT6rhc4Oo8XqaL66sP02Tjx0OMiC5AeWoFLv13vkVu9fPw64mOKZF9ibVoaIwVueWRRFgPzMToyDxnBlYrlgEaxzHm2ebfIn4Bu2LlZDGmyXDf3AeNnkruO4DlKkRBsxtY53dPnzFA8AAjHHf+/eaL9Vb5GDyGoAdPDbLFR+eKSMofDAZuSN1945Jxn33zTaiTHWJQl3kIYSSXBSeGilNmIQZm4ePya82EC93UTsKR8HVLfsYisBB4tdUvFDiuL988Fwf+RQp+LJiFcQaYZ9mK4i+zSCdEm7Fl+WGRx+dh1JEUWizeij4fzhkclFv9RDhpeaPHpJghoI2OYohuRUEKI4hOjxSgLMcTiYPqVY0muzjX0l/tROZqMaJvLfJxjWiZjxz5SzaFShdYsYf+kPvoo+3US2HyN98wQLQueLx7u/nU7ftRcLZSsvHKuGcfc1/PLYXYHN6TsK+FWsH6NedQRgzNh/XE8FlWtxo4FB7F+0k7p5SOhbjcFxv1PMYHYpAB7y7zuydf1e8VzdONp5H9e6YifOga0hdAaNzBaHesm7QC7Wzo/mKfJ+INNucJUKq0UlIr7G2aXzXX95M512XS+ht56zf4hK6s2I/Njm0x28ktRgShXXm90R3Saqv2Ijy7E6EG5KPxiDKr/MxuJw4qkpS+tOcaeR8fkYg87WWrgMnoeumfiSZGjqOKL/l4heaDti/aj4IsqlTgNU8aDAg2oOqGUYLs0GWSsXMJ53sZa+4yb6/jEWb0lVr87L7sDx32QLU3fhLCSctLyBnyekbbU7665qy7o5I5zEoLi2qXxExdeiOS3TTixrftyWse2nFYNMZ3mKD1NGk402By5TS3szDGJjc5H+Y/TsGPhfule3PDUEyzAvarsr1ObFZjT8cWgYEgvzIKtc/d1lfhcjtNvFc/ju7WYk70CyTEqbEOF4y104FBEpAMJqkBCTBHWT9vm2BCdpbl98T5BSDk2RlE+rha0nCdUcVolRJnBnj30uAL1Ufe4Hltn70P2H1RNkljAmhXG2ibeL5U1/5iMThhUiHFxs7Fn9WE8fdhcX/Podq14Sua/VmNm5lLcOH/HRSSzcpa1onhUiCDvj1XiaVHJUPHRMuRrxrD5XsIMMRbMylqKmlvPsH3CEQlfOMbYafHpn+nHOLTuhMv19Nc3j+/VYPTgXIGrU66UKTdiKp2EcDPWjN3ep0Vj+bFahXmDSsWwknDvMAt2rzzY5ffNujLTV9VID3Ut1GUImOtJPBZpEmdD4iAzSn+ajHXTtuPR9bZ58p4+eoaM9z3TAFSoVDw8Pl9fONI9HXn7neJpqH+Jg6tOInGQSVGsSCKtQCaTvtm09MzfLK9e71Xp0Psp/nqCWoRMnDOOqm3ALR1v9LAcPLjpn60dfF1FE7JmiUWWNqBMXHRaXPof71tyZWGlSHrdjKrYqXh0q2PJyskp81pVPCJvsb5tSAtVSoZKxzEO4VaYf6jGhSOKLr7pVRMWF24QxZgY0jLIgb9PDS6R2h5fZdKXv8f2HRxXykX/4xgnBdkQG5mPI+tO9+Xbx7EdJxA3KF9CwZRDGttBhFjls83T9uKVWxSkM8KYZ16FlHCl1J33EBrIbJLIMoDcz0uxwLIaD6/5vq4498t/nO7V26GykVA4vbo3TXj62BOo05l70n/brxQPYbgFX7LGRtGLC71+GJPUtMbdtb+qz9GTcfRilo/ZqMvN43ntrC1IDmENSYUoHAlDtKB4+D922Nw1V+UvPA4WQB88vlODrI9LJEzGECS9Gi5G9r0hHRBDZoXfVeDx7batsNZuu/R/EzTFo3junBeivNYQhhxHgg+ShSJeQUVHDcnGyd3N4RAyiVf9e5Zca1uhtvgok3hOO+f2LfBHa7Ju7X/z7SvFGtbnN5UPPR4q+5FRWbh13rP2qa62DtMnzEZf6YQ9P281GK4VLy9CQfHpIdADHDN6WpfAkNlJNGWgIl2VOjPNqOJcT4y0wP7zeLxyxdG0Nmwu/zt/6AoyIioklOa+jpQxocJ4O2d335zvF4qHmHYWT6W8rkFl3ZVMqA3COsB8AJOGWsw6ldj3kFLEDczF+snbHXUkLqMI4NXLV8j40C6Lzx1t4j6w/D/RXcU/tt7O2f0c/vyeocLftv6Oom+qMToyF3ED8xH3dg4WFK7GzfN3RD6dvX7rD+OVonAgcnQASPMzFw3lnRpaitSgUvHEVo3d7EKZU1dbj7T3rUgOsms5oObfy1g51wRptQ4V/54GWon9/UHKllFvZ4q1TVmT5DYllIAN9owpRfywXK+b7vrJOxE7KA+FX1UJsW6gy3ynpQkAACAASURBVJFhqrj3c6VLqITa9M6rWt6HdWSPbvvugbjLg4jQ5I8LHahNhr54Hhq1NO4mJs3pcLv2+zceIWW4Av5IfkjABXo6QOeRNCH/u9JunfN9XvGc3nse5s/HCRqFA8c/iUl7iecrbc8Qmeb9hBcjLcqOw6tPeg2v6RNmy6w94p56KBkv5+B30oeV4N7lh/rP+9RzfU0Dntx76nUD6syNpvzBLOOiKxd3WTNEIEpd43RL/1MxTu3x7HO0ff5+qfymhc4iUc/jEOpdIgud/8v+tMQvW6t3RpYd/e3VUzfFU2ezvuYwJpkjGEEoQdXPU70e2vLpRKlBkWLFYXYsr9wo3WS9fjlAPrx+5jZSXi+WMBsVsD6PmBMkAXDGJ1ac2NHsZft8W00QCD+jBYwaMDrD0Bc9Ks7LSUnzUN/BouaXzxtRMWKy5OIkPCp9rhS6VowIUaBW5H9Vjpr73Us06veK59KJa5iSNQ+n9rd/EK+cuo7EYYUyeAq6bBWUlc52rE8WPiuUCNtVWx2hGtu3E/Hgpis3mLcJtGbiNrGyxYJoQdnwHKwPYk3LinEbvB3G8RnzRXeueYYsHF/oZy+IwGF78FRBEzWDQfTxo9wZ+uFi4mdZn9tw6+JdDyndOHtbwA36gtZ/rz/rx1GL3I7Et8kc3jcLez2E48MHuxYeQmp4qQA1WGAoRgDrRDQQzbrJnsACWtikeaGMdYOPFnzKRyacPPC7D2f136+QYzFxsM7XqDxnKgd1nzapCdy17ABIhOvrY8eKvRKi5n4l81nC9dyfzKj83zQ8r+sgEKkJmFe0UtFDscxDK3HgGMr1htgEsVf0XWW78kW+3pf79/xW8bx69Qpbpu0Fu++x82TSe4XtQn+RSbrg6wokBasJwRAalYvq96K7lk5hFj1HEGZD/OACTEmb7y6rFt/fv/hYLEBOOn0T8/bMpGDee2PAa3N/MO/w+F4t1k7Yjvg38zFqUDbWz97m/rV++f7Zk+cYHZ0rEF6HV+qm4Pk5FQZrrbzR5ZBMNO+TCkECxUcWilVKReY8TqJ4dOtyUDGunvZCu9MvR0DdNNk5GFLLCGXIxyzjIUW5zKuF0cP0NA53rTrggNQzTMRxYlibfGMpHxX5fd+YtoZ7evYirfLfFXDhUBzRxVha5b0b6PNnL8DQb+2jOhAteHbvZUHNiiLQZKry0SXI/qTMY9+gQmt40dBqNIbXTwj8nJzliGd7ETIXaFBsSQtobPmksTL9rRJ1T5qL4du69878328VzyLrWolnUjh045kwnp6w3Od7nTJ6sQPj7ry56MJWwmcSTSXSEkPpzpZLkeLOBQfbZaW8fPESiYPNSPXSJ0OSjgJRNAlM8fg2Tyvv1bMmkHQxZZBCwvGamFDMecPoa8IBv3/rIUZFK4/HZSydlQ9BDUFl0gRLr/3RJ8uD64+R954GSZUCOWcYsKIQ4cbJBc85kDC8EPSWm/pKNlwXRCeemexO5vyUomjdcFM5Ucrs16gM3Lnq6aXPLlyqPCOnseLak811sEU23k5cVq//tPFVE+y/jhe+P9lbnO6TsqIxWviN93Wc9VEJUoZakTK4GEkxFsUfKGF+Xb7KMCYQ6dIRV5aE66dvI/kPRUh90wrrNxNxaov31ip1j+qFRoqABJ0uh9EB3dMhHRiNtWlFC0Ai0p56+KXiIedZQgwRUs0DQPRRxtslPiXVHlx7jJTB/K3i4HLfrCh0KWwUpaMUjxQuDi3G+YMKbtueASC4IPv9Mq1RmZMXxUnIjU4b6Bw3q4VezoZJu5D2brEUkrLWhO61AjjYpLjx5VMjqX31zA2QA0w2K02m7mPKGDVbY9+98sAxdC/qGrDAvgrxbxSAHRrdf+N4r1l9nC/pH1hx7dRtxzGMF0oCRzac9EBBUVkzbEZS3JFvZqDh+SsPcZX8MMlD7lQ8kmMYbA54xcMbvnvlIci36LxfcW7R66FSHjtytodcyHAdOzDfER52zEUv87To02qX3185cwNJ7xbKfE8JotduEyBNzsdlWFK2Dg8u1mD/it9QPXo6UoYxElDulttWLBMMkSa+UYjeqFHzO8XDCnjG6IlKciT5tcFIGmjBwzZI65gfyflGKSwqGC4O90HlhGDxlXJpSX9RjPKfJ4MEoR15kOct++PS5o3RafIwJMH4bFKkBad2n3ccnpO14r/TRLkw0U1Id3ow+9Iomn96Sll/LHF8vz+/YGtrGgocNxlL/VmXM4t7gyuQPNyMF/UvJFxAYtK8j1Q+QtokeOHM4wbIRcuFScOGND+XTnZPwVygj9+07IVeC6y5xrhOxyXO9LhFepqkj3Jff5Q5FU/Ke2afDEmPA/vZB89rGjB6cI7HfZLGifU2u5d5wpKfP3qF2Jh8tc/p87iF54KPxzju+Nb5uyj6c7WE9lm6IHIMUWTF3EcYzoyPUqFk5qtpkHF+U+b0eCQHFWoHeSZNX47FxePtN7QdF9OJF36neHYtOwiyvwpSxMnj4eSlElk/YWert3vn0n3Eh5sk3k9rTBaGx4AqGv2UYRaYfxjT6UZs9FxyP6fHw0Rrs5fGa9Y3t5Q/mFSMthE4uvmUsF9nDqiSzVT6pTMpKUla1gfYBHmyoMIgqORgr6jcjNQI1dpXDAl3xaONb9owO9gLJvG9fCREFAlsnaEER4M+t3nA+UFZM0QXOyQP54/2ziJsdUL7yT/Zzjo5xHVu6wqFoeHftriGkLkmxv9MjjFP5KBsghFWVCfO8JO769xlNL5Q4Bf3tc/3o4Zm4+EdT4DS79svSyREZOE2L3W56s9UJqvKt0kdIfcsladWHrwyrGlcNxf0yp5HrjatyJfzXGfw4Pfjoopg+nuFC3NI5yTQ/l/7neIZEzcdpFrxqjAYEnnX3Goybe30rcgM5mZTIVayDJ4oAwVLJLVEwWdV2L3scJfh1LnIcj5X/S08Jl+wXTbNecUrwXjwjOzFyAytlLAFkUE6IojhOP7xemmVFH1V1ep9tn+oA/cXZIRIGqBqDJTicd0AOVcYZlPUIjYkB9uRHlyJlHDCfsm+S29JY5JwWuT8HZU9KUhOb7sYuALq5it/ePWJsBKwE6y+GTY/k+G4CLdON+d3uB4OLT+JtPBSJIaR/NUp6sA1HG4XxFdfCiPHD+Ja1ptCcn7akBRlwW8b3JoRNgGHNxwHozdJQVYkRnt6hKIwnGXGUFq4Kidg7y8yJVD+3C8IGFChfOW90/hltES8HG3f4x7DzzjXE6PNyPumVAAH3TxtWj283ykeupUUqlfFE2aVWOr9ay3TzBR8VeHQ9Gpx2CTpnzDQjPUTd+Lx/SctFoK2KqlW/tnY2IjsT7RQm5vHI4WM0SbcO/sYeV8pRJCHcpLNUG2srC1JHFJkdL/U5E0ON2/9R5o3Pj13o5SR5Mci6B1bJVkrYU7J5TEsodOPqA2Ci5GM17MLl/WZqvpWpmmH/8W8AdnDvXEZUhkxQnGUVDlNwLlDl1H2v0liCKSGlqkQj2M9qxAb1/YS+/oOX48//jDznRLhr2PLdSbyWXd2Zu8ll0slmpXFn6OjcqX8gorAY58T5WUX41NPNSivRkV8xEPy6vGrUBpD0jwm57YYslo4TleK1u8neKDjXC6yh974leJpfN4kHGoUuMeAaJYqB/XA6uNexcO+OCMHZjnCXTyGoNbeMnVrwpiwxvR3VcW8tw0xNcqOjNfLxGrxtnj5G1ooLG4dOSjbo8Wz15vtJx/uWn5QC1fqCsbzmQtTQgliFZIZQsGk+ayHPzkXHB6lroDCraj4ZWqvtDIOlOGj95L3TRkSQlWu0n1+6/LNGlKBlMFW6cDL8HJGSCUyg6pE/rKWtXIF/q/8P1O8AhECRSberjP/uzJkfmDH9MzFOLThOJ4+aSbA5fevnLgO8/fVChAQorG0a8AjyoRKiIYRFbnkbXTlogFflBejikjdx4DveQwWnarCXsW+ooOUGEHhPljw50rcveofhet+pXhunLkj1q1XS0BTPCzCZEdKbxQmrN9gYo2C5mCwZwYHY+ey/d7mSpd9Rpx86lB6Vq51IXINdJk1Sh4dOOAxcTQrh0SaHap27rI78b8DTRg910t4x1P5sJWC5HOCyqVzKL1G9vPRFzJlLoXDDDuElkkeMPMTKx7d6hyHnP9JrGuviHRTqcNU6wPmzdznLvMPEurR5rnMeR0tGqkMAuYYmLOlgZD6Cb35e117kX5wtEd3Wp5HbNOR9IZJuuSqUJhqNa0MbMKolTdDqin7TxOwfsYObJ2zD1NSFyDzDbKsMxysaL2ElNQbbRTLTkIIJFDIWHpGzCHzfWxMHqbnLcKzx/7TGdavFM+J3WfE0+Hg6Nap80R3xPfDrTiw5jePWptTu8473EwKniGanD9UdPu0vHPxIdjiwGsITQADKr/EexEL0a1BHCcM2wVsXby72681kE5w//ojMRwkvKAZHs7zwfm1WIvhduR9WgF6SQ31r5D9uSvdCMdHLEdSvgwtwKndnpQ6gSSfnrhWcvApa7xUGwtXpc/5LIaebqHrc5sIqojmCnlRPK+bQfaI/vJgC/bSnyYpY1pj3XDNdzGkZkdCiBmpw72j314+a8TiyrXI+EjlxrhXtBQNkvUQaRXeyOJ/j8Gyyg34bdvvuHzStQbIH+TvV4rnyNbjot31EFlrGw5hyiXfTHNJwB/aeBzJkVwYKt4fF1YkVPzdLehJBbMdeSk9HuvYFLWcj+NztxwQv5cYYsHyipaZr7v7+v31+GNHzPKqqB2y1ZURFUpYGay/VDto6V/VN2HEsDRlZZNKR1pZ2wTCyjj85ql7jQJRHwbe+v14YRunzJMYytRlrj+Lt64l1fmZKCCl8FlCwO8z5JYwtEAIY304ZZ/4yqUjN5A0SNUr0YgmkIh/ZMQXAyikDNnBYwRunfxpPkg82trj9qX7SA4tRVpQJUYOzMeomDwJrzGHTGOKLPCVSZPw5O5TWQP+XvzsV4pn3/rDEp9nvJIxSa8ehDbhWXdBiyrjCzOe1Sqahx1L9itaFUGE2KR2ZnHV6tbGs9P/I+XFL2+kSphH4NsuaBRX69Bj0Wr34i8Jv04LowsPcOHwVaQOdNrQ9I3O67MN2cMr8LyuuUf12knbBYiiF+VyPqVQ+YSVSJsGb8WOXXj5feJQNQ+fYmRMBtKCS5AsNU9O6DSv46Dmu8rpqNYj4hG9ZQbHs788Vk3ehMQ3ipAYaRJSVXopbOVOBZERViGdS7M/t2PjjJ3iAZL1u7VH0yvA8s9yJIYWIiOIZQXF0pQyKbgYo17PwoaZ29FaqK+1Y/fW//xK8RzcdExB/nxQPGKBsehvQCl2zlcFWhun7UbmgErlihI6GGXCnjXd2/Pm9J7zYk3zvB1VPMttm3pr/P3yvI/v1CLtbY28MFx5ry0pbf3ziv9Mc9zL8S3nhDmY8GoCNhiGozHDHE/h2+NRX+s/sW7HRfvhi0tHryI52oyUkBZ6IHlRPsqz1yrjw2zIfrsCpw54crj54e26XNKV09eFNqktpeD8IxaSEyHJBD9DaOwJxSJPtnvn3pDxuQWLy9bhwtErXnPUzsdyfr187EbERxCubZXCd87p5GFmLC3dKEzwzt8NlNd+pXiO7/xditR88Xj0DScrqAo5X5aKvFdUb5JiQVpckjeJMuHmOdcWyl05MEy8Wr4bJ4lTXrN+Te19jo8pxM5FB/sFuoqgEMacW6J2Z/+e1PdUiIKLVQ+btiZTjvfkjPkCkz+96yJYSEpvmdx5sgFo+QfSg5zd23qRKJkvzh28jN/3XJQ8UVfOl0A61pMHtRj3y2ykC/+gQod6r+Nx8+opaxp94RZkfWnDtd9vBtJtO651fPIs4TDL/KIYhzedaFNR1Ne9AElUCS2XuUdmBuZ1Ioph+n4Mdq7c3+71TU9n5dhNiCW7N6HpoSTBNaHi5xm4cTGwc2V+pXiuHr8lxVG0mnR3vbUNR/4XaseooZloqHuFhfbVYmUoxVMmoZaOdulzzMBWXuxfdQwpkYqTiTFWAQ54yeG0dQ+MgbMAsjx2UrsnZyuX53f/YsO43L+UIDHKgvnZa5rBIU0QRbRp7k6MGJoh9EFEqVGmNCB05dHSvGAYbVLaPMzKXyZwXulFzwK+CEKodYPAhk2T97QqE7Yht/1nrMTd2Tsm9QMTah50sM1jq2fy738yT5DxpQWJRLH9H+tDWlY8MjaUNdcsiVbJwBGmQB7PagLXsyQKjOsyM5jsIiVI/9wsUGT3FgdEtD648RjWn8fJ/SezLXWEShVkvFmCQ2u8l360NQN43Iq4yeIppQazNigfacOKcWJz4HmP3u7VrxTP42tPnZoU+RZPpnVBK6Ouph6zssiEq0g/aZ3FRuXhxWNP4kJvgmjvZy/qXiLtPR+v0UtIwkUZSd0SW9qaMatgWXsvJWC+v33BfmGlIDQ0fmABxsbOxLS8Bcj82ixEqSz2JPpJQmPC5KBYjLmRESrNUBm9IP7fRX5EC4bbFIpKe608HkVhNDoiH4tMa8FCX2+PF/UNqI6bjvTB7OfjOqbse9+fHgc2/IbEd9g/hyFOH8KcYmiprrrMn7GSfnr6EjAaEMiPzXN3I+M1hu3VfiKgiYHFwiM5I3cJ5peuQHncJKT+ySRzmXM0KdyO1NBy2cPGjpyJOrdaHl/l8fDmY6R8XCSlAATNkIB0XuFKPOtDIWK/UjxNDRCWVfEcfJn03NAjijEqKkfCIhMS5gpCjB4PFU98TAFq7raOFvF1Mrh/b3z8LBfOJPeNsD3vU0lnQToScjsNzsHD2y0zM7hfRyC9t/xYrag/tHslnY1sbsGKPt5ZoTAuTnmMHpiLUcOypL0yNwGGcOgFucuXioeAE37O13xmC2zOhTGx07020Hr5ohHLJ6xD1vslQrcjsXOnecfjkfy1PzxouE3Nnq/o+YNtouDdZez+nrIlUovrNSOkAokxFpVv9a7fA0qMj27UiCHIe5Q5JbBxu3hznJdUNPKsFcZSBmwDHh9dhOUVmzrGDtAErJu6HZkDK5DC1u2RJlSPmoGrpzsWrvxt81nMs6zApJR5YD3chNi5mJa1ELuWHuz1Al6/UjycmanDFHWMgmW6xY+9eA4MUbE4i3QdlT/NFNSSrnjI/trliqcJWDN1q2Ih8GJ5uy9OX97LRqpVKBN6eXybG79TQC1Z7xfLeHXssDyhsmF4Rvds9HtnSIyKiAW/5KWi98eOi2xfzVqGxNc1JaUVyrUmV1E84VYpJrb9NB5suOXyEL6sEyj8aoxsICy043WoTplqo9GVGBUfDaK+/Dix86ywE1D29CyJwGoOUba2Bm3yfa7V3C9KceFY6/mzQJNh0XdVSBTFo/joFB2N4lJUxiI9b9X2JC6yCHGvF2HNpG0dCpeTBmzCL/OVtx9lRvlPU/Db9t9dykV8ld+FI1dQ9ct0WU+60uSYEgDFZ4ZO0z8pxu2LvVfI63eKhwWfonS0hHBrGwz/x4Zppd+pXu+ZHyq6CWfFU3uvazvqkQojbZAdaUHlXotcfQpPeChQWpiKY4kN6ZZUeO9Y6OvE88fv1dyuE0XgblBwg3NscrQeSdkeVYhZ5iUuCd38LyvFsqZXRKXV2rwQ7yfCgvKfp7iIgnHzi8evIe+TSuV5SQ0KvWZFuOgOEGHOIuNDGxq7dgq5XFNvvmHXy5mZSxWvWrjG9iGtRPR6nNaUjvpfapQNpT9PAMOVfe2xbto2mZv0ZjjvJBKj7UvcY4SxQVNMXPdzbMs6pCiYN0r73IS0d60YN3o2zh115XjzVa7MUc5IWSa1QiRildB0JMPTKkTN65V8VRD5LC2o/mWWr4fu8u/5neIx/Xms11BKSxsNySDnF6zG4xu1Yn0khapkMkNXpKCof9y1C4LJZhJLsoaIRay8Lm5YcRGFiAsvQvZrY6X/jlCXB9MdVwuUE5WTlxYHX5PGQilIlYfgROCmmxhqxv6lHUtIdvns6MIDnjtySVBCnuOomvVJYV2wXWqvZhYs9jhzzqdOjfbcAByUI0M+bEiW/v+VS/h1fqFrbubxrVrYv54iVDlyDaJ0FEyY8FfFYm0WjyzrtWqkhZYi8cscyR16XEwf+GD33KOIG5wvm6cAAjTvncrWc4zUHGboh5sYvaLkYBtGDcrB6vl9i+zTeWjppWd8ZAXrZRSIwpWok/OOskoNKhP4vvNv2/v68d2WKXd8OdbiknWIG1iAOJ3WSNCFWh2ctl64T8meI7xwpUiJtPly6G75jv8pnq+rRfHoKJmWFoHj81Ards07ioNrTmgxfhXfp+IhKqrJLcrSWSmyYDTuvRxRKCwIowVPS4iFitysEt7Jx8Tk2Sj4qFrFgcObrUYmz5Vn45SwZE4hVG2+oniiLLh+9lZnL9Pvfr915j4poHOMm+b1ESxAOaYPKBfvdXLqPM9QRSMw6vVsyYPpi939OBJjDynByIHZOLS5mU7p4tFrKP1pMpIHFztyP82/1dCTvBZNEZHVICG6CHOLVvZ6HLw7BvHQqhPI+7gS8TFUtmw/ohVq+xRh4EZbLGHQrE8Jle5789Rd5qf2npVcse7xiAISWenAC5tw/xV+7b29tfvxuvI9CVzXTt6GjA9UC3JpN6G1TPC2TuQzjYyUe+PMwiVdeTntOpbfKR7Ld8rj8VnxhFlx+fAtzMtfJW6x6rZHTjS7tBdolzR8/PLuNQeQ/IZyW2kFpn1QjIW2NTi7/xIa6l9KYjFhuGq3LGEkzeJIfdeC+faVSBpukqIyUTQa3FcskRAFIX5yv9bHKwmcr5l+rJR7bt70lUIWTyWoXCDUZT9P8szHAHj25DlGDcyVEBvl5G1RieIIs2J0TB7O7L6EjbN2wvbPCRLPplEgvwstdgAQeB3MJXGeMXRH+HYi/z/EAjJg9KUH+0Ad2XwK1n+NE+XOxni0fp1DnLr83MfH+T275NKDH584W7q89iUZtXgvTcDmmbsF9MR7lzAvUagOz1CBWsan9FzYigrnwLrfYPrLGMXe8lqF9B+jEZwRqlIVNOiar1GtNUYVaPwmDTXh0KbjngZei0Lo+n/4n+L5vn2KhyGve9cfouSraZKYZgKNi4WKJ+vd7kMk3bv2CAdW/Sb9R9yH5c7l+2I10wqnh6MWtQ0Li9fIV49t+h3pIapvkFQ5h6g2EOKlDcvBq4Y+AAvinTYBbNU7JWs+RgzOcMCdnTczWtzk9GIR8KPb3sMNd68/kHYZ7BQq3/dSrCvFptwQBmi9TDR6HDYE5IKknJ3Py9cOxRNSKq2A0z8sxtkDHYuvu8+BXnvfBNTefybV8dsXHcCMwkUo+LpCwiqCxGJeVGRBi53etir49CU3KZvukGK8ePqy126vN05Mxb2oZC0ShhaKzBiadMwlhscjzNg8rwcIfpsghc3F/xwraE965xwTFqDHvZmL5KEaUTGJR70pnnAL0j6w4Pqp7iuq93V8/E7x2H+c4MjxuGtsx2A7JeeZ3Dy5U9HW0HoWxaMhxMyfj/dVDl36vcWla+QeiJRiXYMs7jAbjq5X7YGPbDuBxGBluYvi0Sq9GXIq/48CSnTpBfXCwVjJvXLiJiRGmwSIkcrCQg2SygXjsLDZoveDQjy80zKE/OyRC1LLQIi18nj0otDmMKYcTw+BCFjAovrPc5PVaEsc59TmTzPpZTFS3jfh4a0nvSCprjkli3OPbT+Fgr+VChGqhHRDrMgIrlQdb4MtEtKUSICWZOb8bA4dOcnSaX25rLkQOwq/HtPljRS7RgLdf5TNs3YjaZgyJAWNyfxOSIl0Z717+UG3XQBroq6fvo3sL1WtWvb/jZWxpNLJfKcU5/YpNCHbvuv7jTLQXPN1qW8U486Z7rvO9gjA7xRP6b8naVaYHkNtfUEwXJD1RoV0SBSUSYRFrABOjIqfen4Tf/rwmYSFqGwcYSGxKm3YMf+gjM3WRbvFYmLdiB7uiIsqQNaAMVg1LfBZqo9vP4Pkd7RCz/BihSCTRVqGpGAb0kMrFHotogj535Wivq71CvelZesRG5EveTQqD6+hNqfNUq/jcdk0+X9NMekGjWy64VbpHtsShU97FlNvfrfoO3r6VMi+rRtdBs0y0rwfkaOWdxRGAra7pqFQgqQwG9ZP3tWbt9nr5751+S4IdKGcUyNKkDagHJl/tHcb0zlLKzI+LUZcTAFSosiBp5CfLNbN/6rcEfJkG5D4D3Il/6YrRa4TMS7C7Bg1MAdXjvlPTs7vFE/F/6a1S/EQmaFv8PqzoHRC7ZiQPKfHJ+rO5fsRF8nKb619twa3pHWS/pYdm2fuwXzTKqHx53UKxDGkRKGygipw+WjHisV6/Ea9nPDetQcYM3IGkqNoCZbKvfGZOQXmwnI+K8WO2YcwNWcBFthWSWvgtircWeyWOpghNJsQfnZK8TAEG8qe9FojrjCbcO3RWAjkR93j54iNKUTWgGqkhJY3h4GclHGzgnE25JrDbVTClA3nqShkUdSqUDKJXimLsof1vzCbt3nxvK4Be1YcRvxbeRgZnYPpOYu8fa3DnxFevXv5QVi/maQAMZR/BNtZMxdaIqHSRWVrXELyZDxhHZbsfdL7RxlaGUEV8vmJXSra0uGL6uIf+p3iqR4xs12KR1l42gJyWHvK6ltgUTmVLpZZq4ez/22SWEJUKM7AAoaZuGkKJDXahIxg5ni4oC0CsY6LKkJaeBle1gdefqf2UR2WjV+PpCFmQfYxZCjFoBGFonziBxdgcela1Nf6DjF89aJJlFPcoHyFGpRFx/qdti36ljwe3QIUNGK4FVl/soOFe33hMTFhnip2FK/OWbl4f623iyDsn8W6sVH5GBWRKyS9MldFSatyAM5Rztsxv8zoC6Lqsnt4/vQFHtx8gqYuWrKEbx/YdASW78fKumFOkwaDhM/o6dBAHZyP3YtdGfcX2FcrpaPVuDkMhxAbEmJM2LVQRVq67Ma74EB+p3hYcasSnm1vMGLFaUWHymJjWEBZZ1ws5lTWMwAAIABJREFUGyb1bFjg0omrDmQdcze6N6NfE++Lmx4XfWaQ4h7jZsjKeX4/a3BFM3FmFwxudx/i1ctG7FtzBFnvlciGlRpe2gxLJsNARAkIM+1IQdyYUTMEeSUhS500Vg+XaShBGX8vVn1biofKa/SwXEnAd7eMeur43LSmZM+Da3tq9zWk8opcG2lvWmH+thpVCVOxZvoWnD5wDgcWn5J5qBtJ7MOTEsL1ZEZ8VAF2zlPtR3rqnvrLeai4Lp+4But3ExV4IdyORMLWBXloVqFlNjscYsOJHc2sJiRhHT9qjtpntHC+I4TKNRJhxZzi5R0qau1u2fud4qn8uZ2Kx8vGo4d59qzpWU3P8JGQTDIPocEt+UzlojZJ/XMVQ3feOHnNWe+WgT09AuXBGpnYyHxllUWaQNYF3gc50lIGWrFs+uoOJ6LnlS1XxbZBbed0nOXI194Vj9Yjhl5nuBl7V7lajYEi87au89jOk0gYUoikYPaBqRBZJA4yIX5IIVI+KsLiirV4cNW7l7d/9THZ8JThZ5dmYyTgzXitQkoTCGAwHl0ogSbg4c0a5H1SIQ3jOHfFG9fCnPo4yPMQC+5cvO84+f1rjxD7BusJbSqPI0ARhaIlfQ+pxMal+K+H6neKp/y/U9rn8bSgeCj8U3vPOQaqJ14Ufz/eoXAcm6EUJqqEICeQww12um4qJ27YuZ+Ud3ij7on7cz/H4U3HXZOZIcUYPTgHbFxV0wW1SISsLzdt8ZSpk+wccnb6zKvi4QJlwW+YVVonNDwLbPZk97Fwfl/7sA6HN57Eud3XcOviXSGdfVZT3+bcGpc0S9qScDPjHzdBIkUzQioxPbn3ig2d762vvK69W4cJI+chZXCxhMMY7uTcpLcphqqWc2PUJGFwIX7fe9Fx69smHkT88HwkRCk2d44VIyb84x7Dep3yH6bBnw0Fv1M8JT+1D9XmbeNhAm50TE6PNkt69bxJchzu18OJxISfUOhoi1kWttNGKRMu1I68P5f5pVvsmPFuL9gnfuOMXZidvwxLSzfg6KZTXd4RcWr8Ys1b9J6rcJe3yNJb11JN8XBRJw02t9nj3u1W+/zbl88bMfqtLPFWRaYaAzPllRBuAmvPjEfnJVD34AVmFi1B4nB2FFXGEIs6ZX/Q6qoYYhMFFGIVNNqmWapG6NKR67D9TYXjGC4WtpSQMiSGmcWLp8GVFGXBIuvaLjH8On+3LR/B7xSP9cfxnfZ4koPtGDE4E89rey40cPbgJUeYzXkzpNLh4iVTdkKUCbw25//ri5yTMP/bMjQFTqSt5VnVRf85s+8SkqK91Oy4KW13eXr1eDRrkguW43FyZ896w10kkm47DD2j0dF5qoMvw8ShNskxEOUWNyQPT+71PTaNbhOmlwNTfusmb0fSQIsKBVO+9GacCswlGiKfN7f+GPPrDNTcr8PyMRuRGmWXuiwi3FQejtyOqgCbIIKq/87E1RP+A5n2IgbHR36neIr/Pk4J1Qf0kvuGo97bZHPP/KRnCfA2z90l4TJ3b4b0+tV/n4szO66g+O9jpQLf63WH2lD4Q7ljYPr7C0JWCz4eI6E8KgqvMnNSQPRyRamwC6bu8TBkxGJVjchVACis9iY66O1c3DgX2O2Du3KOHFh3DMnRpA9ivY6SNzdGwnEnjp7flafqV8difRih0Qlvq5bY5FOj8UmFLrx30tiwVMKanJ/CwCG5nnLp7bPItA4Z7ypEm2vUxC50UFI0/0EJDq8+HVBy9T/F88M42cAlKe/gQ/I9zMIYZ0ZEBaZneDIcd+fITE9f7FiwzpskE9mLcjQG3ybg9I6LTmADdV8y2ULsMP2tsjsvMWCO3fD8JXK+oCJpW+HosiY0XV6H2JASXoLUCBXrTgzWSTBV/FyUj1ZImjikCEvL+y67cnsGfHzcHC/KvRhknLhw6Fp7DmV8V5MAa31i38oRz0ZyLxo3oD5n1TORh821iKnh7OJahNnZK7BzwUFRPvwejQAB7kgTRDXH2Zl0qX0D2O4j0B5+p3gs33VS8XCQwizYvehIj40FkWjZnzjxNzlZ4vHhJkxNbi4wO7Ofisc1fETlRMu85D8Te+ya/fVEtBBt/xmH+EjGwJ3JGFs2PugRsWGbyDXUjuz3S7GkZD12zD2IHQsOYGrSYmEK5/eU99TcbJD8ZdnvVmBm0WLUPQ7sQtKOjimpgmJfz/NUPGwfPzgPNQ+fdvTQ/e93TcDGmTth+nScENIyP0YCWobGdG5AV8WjlAo9F/5lv1MOhu0b6l4i/9MqacFCJmn+RoXXVC2g5e9jcPPinYDKCTtPBr9TPOav20cS6j6IfE9L4MqpG8732a2vnz6sR/JAFRd3vx5uhpNGLHSc/+i2k14Uj0kACBW/uDYuc/yon7x4+uCZNBVjsaIQIIaUevUi3WXM9wxdsD/SjKxFXhXI0sr1iI8u1NpScKxUoywmcqVHUrANacNtWFi6GnU1/UsBbZ+3rwUC12KYfmXe0Ug8trkEm4CDq04g50+qky09FDFyiE7TwsCca+5zV4AEYXah3qn49zTcvnYPNy7cQdabGoN4uEVY3XksMhMkvlsAcsYFOpGw3ymewi/HdC7UFm6VJms9Sfi4bOw6Rw9294nF0E7pX6Y75u3BzcdaVDxVI6Y5vtffXty78RDF302Q/AxzNLQSGVpgGMJdpt7eM9Rm/3Vcy5DhRsDyl3FiVXIRk/OKxya7BMO69Hx4zoRQM5ZU9zzjRW+Od8XPU5H2mifVTsY7Nmnz0dK1nf/tEg6tO4n7tx629JV+8/nVszckRJYeVq5anoSUCDiDhqe0ImghT8l5R09nSu5c6eJ6/cwtpAxVxaPMRXL/oHKKjy5C2f8m4tFN7wzugSZov1M85j9NFESNCom0HF7xtvnwMw7UiIFZPYZhb3zZhNHDsxQrNlkT3PMSoTbEhhdi/cRdqK99jsO7f3MkEPV74MSixU7Whv72oDX95OZTZLxBDrUygZXS4+GiYwFkalgJEoYWIGWAUkQ6qaouO/05/vUCvHjWOl3/sd2nEBtRoDpoUuloleE6ywS9IDJgTy2c12+G4e75+4iLyhOFT2ABZR8XWggmwVfPbT3/Vf6/KSLD2Ley8ehO4DJ7d8VgnzlyXrrbigFDJnZhErBLjowF1Y78TIgqIk8ZVIyk100o+noM7mjM1o9vPUX6UHYpLtMQb0VIYynGYBY891zqoCvk0dYx/E7xmD4aLxZuRxUPNyL73ye1dd9d9n9a6iOisxzFifpGqD9ToaRLIzILUoZZYPtmkge4gBsgMfml/57cZdcVKAfaN/8E4ocUIImeB61CrUNibHSeNM27c+UBaAXS4lNJWM9wBdufV/zUtrdI8sWc9ytEqfFcDIfoiozhECmYjCjA+cOKZj5QZNiZ62QDM5VzpFzJ7lAqhYlVP09v2XvUTlj5v2kiPxY/5n1TBhph/fXx6uUrXDx0HROT56Dy16mYmb0Ei8aswoa523Fo/Qmc3nkBV4/eFiVz/+ZDKeolx2HTKyWzppdA/heVSAw1Iz6yAJlBFUgbUIriH6tRc7fv5dj8TvEUfFDdKcXDzWT30p6jQzmy4ZQwx1J5uEOpqXyUq83/WZEeotxw9/CR7vEU/2Nsv1m35JmanDxPlI0onHAr0jRG6zl5y4RKRBcGF2fC+3nNIUo3Ikz+fnp2M4BD/537M5ksYqPz5Tj8jTovWX/LVPI3woRpef0HOtxYD6S+Y0aKFs6k8ieTeOyQXFw/13Y9CAl96S2SNZmAnhUTNriL3HjvgwRoEJX9a4oWrrciJbgUowflCkiBCM+++PA7xZP3flXnFM9AExqedhFdrA8jThgqwzPc0JR77ZqTYHxXmnIxr6BZ87o3pD/risf8fbUPZwz8r5w7eAmmz8ZKlbxUbXPjC7ci4z0bDqw47vUGp6c5MRiwPscJOUjlPte+3Ovv9A8f362VsAZDSGTOFgADjyFjUiqAFPu/xqPuSf8AFjDEuSh/HZLZ7puoylArksNJvWKS5LUut9aeJ8bOFyUuYaTQUsQOzMPuhX0rJNTa/XfV/7bM2uuImCRGWZD/WRUuHOvbXrffKZ6cdyvapXiko6KOFgmxIecP5T2GwiH0d+SQTMnvMEEonozGzabnergo04JU/xfdsnbeNPmaGydDPYXfVvbYtXfVomnPcV7Uv8SWGfuQNNAsiXzKizJhOLLgsyrcudRMguh+3O3z90uITGTnRfHMK2lZ8dQ+qIPphyrxSFMGEP1mkg1WlE5wqXis+d+W4tmT1hvSuV9TIL9/fLcGaTF2ZAZXID6KfVzsSA0rRdafbeA4+fJYVLxWy2mqfBlZOuKjirBrUc9FHHy5Tn/+Dg0iErFmvlYlz+NiZ6Ox5whXek00fqd4st5WRI4SBnGyat03a/09E9BCjscCwiA77P/ouVqYU7vOI25gPtJC1eapYuUqTk7s/ajIXBV+00JDLRXF6vea93VgcbW1Z9Y+vPUYqZ8VSUiGdO0MS+qotdyvStFWSOHKqZtIDy5zKGl9/PlM+c3M9U5iWXvvGZI/KFBhNWeEnAZzTYwyg2hChjv602Nq3nykBpUhTWDoRWL4xMcUoea+7/kEtiQnhJ2GgzAiRxbJmMZG52JxVf9CBnZ07hxef1K8feZ2Nk/d29HDBNzv/E7xZAxXhZj6Zuy8wXh7TU+BFmxSiFUQNhum9FwPnjXjtiE2vEDCNbwOXjOfuZmx2vv+9UdIfluxzsq1izfkGibSN05a3+zQ2RRAbRF8ne0LSlYhfRhRaWWqb08o+/YoepAZ5oU+JaXZJZSKiiwPlLH7XJiVtNLlchpfAkur1iNpsEXFztnwjCElSaAr1BGLI9nhFP0sJ375zDVh6GYbcvJ+yRyMKMb6STvaxRXI3JvlswlIH1AhhoTwjomxqHjIpmdzbPuXQneZhD68+W3fKcy2LsGFo5f75NpvSQR+p3hS31AQal8Vj75xi9U1KB9P7vhusbUkFF8/L//XNOkiqkMnuakRkpr6rsWx4A6vO4nU4cWiHPk9Jm/dQQj0lAgfzv5jad8JtZEeaNslFH1TJb1GlDeoPB16PKMG52DzdN8tvGe19RA6EYY03cAFnAMTRy1wDNuudftQ9C3PW+gC6BDFE6EKjMkJeOVkzxUZOy6ut180AlUjposSZ26R8F/Kz/qP8R26sl2LDgn0miFTrlkxvkJLVPg5ohDlo6eg9n5dh45t/KjvSsDvFE/y6wou66viUXDYYtnQLd92bPF0ZHhfPH2JhEGFyvqWjVDRsNAqZ8jM2XNhf5QVEzfA+o9xSHrdyQPSQolK8ZQi+63A6sfTktzuXn2AWdlLROGQM41GAZWubExRFqS/a8Wxbe2j2a9/+hxpUSWiTCSX5haGLf/rDOxYdACE48fG5EmtDo2AOK39Nr0kKUx93YqFtjV4+cK3PEZL9xion29dtEciA1Q2DFFnDqiUKnnnJmPtubcHtx5jVEyuqsHSKI6U8mHFvirSLfqiGldP90Ml3w5B3rl2H9fP3sKD24/a/BX3lif3a3Hx+BXsW3kMCyxrUP2f2Zidsxy/7TiNpwFA/eR/imewquXwVfGoEJeqg5lftKrNQeuqLxzf8rsK9zgnuqW/Rikm5c9q8TQbFmyTuLiKrZvEYyJlS1xUATIGlwV0ruHZ0+dYM3Y7kmJYk2MRJcHNjXU2EoKMNCPnBxvqaupblE9L/+CxEwcXCbWQR6hNyxcx1JNImnlCs1mMKg2yTMKZlRlciby/lOGuVqzX0nn68ufPa14g/QPVmZT0K1IZH27DrqWda2nNltscE5nTlL9uFGihZTE8Ymw4vvlsQM/v7pobNIJS39PC9DEmTMtZiFvHH+DRnRopzGW30TO7LmPNlC2o/mUWkt5WTd8YdqbXqgOZON9piJN3b/fiw8KE0F3X3Nnj+p3iSYwmtFNZx44JrE9kL89K8bBZlRlnnLr0dVYwbf1+Zv6S5gWmXxebZ4XbsX9Ty6ieF3X0lIrEC9D5nDIGKMVD74CFaIH2aHoFrJm6VS2IgQUaG69COrHGI32Aonifk7/MxRNsz31S8STEqOS1t1CbUkYqf0awh4T2Qq3Ieq1aeiHtWn4gIFl82yOj1r5L+HTxP8YhWXI6NuEGY93OtOxFnVYGZC0gVyHDyDQyPNYt13OIVUoOKkZOBteA8WiWAFGEaW+QNYOIXpvIMTWoFGnhpUgJ12oBIywCdydyUAfleMhZy18yb8fyjszPi8Hogz8+/EvxNEKI8NqjeCTswuLMPxb3KHGe7R8TxZJ2HXwbEqJNoGXZ2qP42wkSW5fQU3ixTDi9EO/+pQCjHmkC8r8pR+aAKmS/NlbqQahQaX3REqPnweLChfY1QCfyzPfOPxFrTkJ27rREstmxXbPiWyMLhOT8ogsxOWO+gDxaG4/+8L/VUzcjJVJ5OwTjcLySPyzE0y6oWyI7u+Vv1Ur+pHhxUz6J5MJz2jBzP6zAnmUtG2f9YTz0e7x76QEqY6eK4cw5S9kx+sE/MrSrRnFWpAWVqe6wWljfXcZqH7Q75EyDj7VZeX8raRdgRL+u7n72K8Xzqg7NdPgtkOp5CDzSKnxeS8rWdbesmo/fBKS+QUSQJ0Kt8NO2i0DHJ85yJHX1zZmFe9wMDm060XyeAHjFXiDrJ+9EwYfVUoSZosmEyoehgNFDc7FuxrZOKR2KYcusPQqUIZ0xPfNk+sLjYouLLkD+51U4urF9eaQAEHeHLvHikavS3oBKm9ayGDxvFuHeta4j97x94R4SBzLM5rkmHGFzRgSYayPyM8KMiaPn4eqpmx26p0D9EXPDp/ecx+LydTB9PRbxAwtVZ2JNNpQfC9LTgyqFNZ05OAkbazyQurHqsQ9SIUmkSOXIqcS4/lZN3OSXovIrxVP/oAHxUapFgGOyullPHgJnEWKMHWcPXOwxAV8+cgOJUcVIZLW32/X50q1xrmm5+p0WUqQ1yFgtJ9my6sCkHWEdzL41R1H13xkwfzlO0GzjY+eAxIedfdTcq0PmZ1aVk9BYf93lLvFtkn4OKcKcwuXSz6Sz5+0Lv39w7TES3lRIQIaBua5SB9qwf33XMwyQQoferR4K5ZzmuIj3S268cJWTiJc8UDEYTiLycFbOUpzdexmXjl3H9dO3QaDD/ZuP8Ph+jSTKGYoK5NYMZMo/tfMCJqfPE+UcF6p4B2kEiJcTojwVkZXWLZeyorfDSIiKINhVq5BgrVspSwqcvR9RPM0N5WjQkj+vM1GG7pz/fqV4am/Wi7CVy+lpOXlsNlQ6AyowcnCmkO51p6Ccjz23cIWEkWhBOl8TF/WmqXucv+r19ZziZdIrnb+XSaUVQfJYVf/tfwzV3oTU2NiIhmevsMS+HiOHZGF0eL7DWtYXaLPsbRKqyPjCjPqH/aDs25vAvHzGOpv8r8rAeh1azbSkEwYWYeXY7rGCqTTobfJc3FSpVGhUeY6Xm8Em4JASAYWwl9bImGz8MjAdI2OyZOz/+fYIPLzfNtrLiwh656Mm4NWLRiEHTf/chFFRORKVSQnyvc1H89x2k5XD0KURwTwqc0Dqj7+hvOPCClHwaZVfo9v8SvE8ulrbTsVD9FIlfnk9FY0NPVMFyMWc9blNkqXuYQUqkUsn2m4TzCr7pFAW7ikLxfEcYkf8W3n9rqDReXd4dO8JqlOnIe+LMiQNM4lVTJSajtyRUAOtascC5MIsBjnz2mI/cD5Pf3hd8s+JYtioEJvKvSyyr+0wwMMXmc0pWCGWOAEzDPW4jlNLm6hVQs+8TtVWgPQ9bA+gwkzk0HMuT/DlOnrjO7zGrQv2oOi7SmQOKZO5mzqgVIAcpM1KCeIY+GJQtywnypNrQTwhLXcmwBqtIHvk65lSFP28rvU8c2/Ix/mcfqV4Hl6pabfiSQkuA9vA9tSDA5o2XMF19c1QX1x0jX1pilX960zhxZJNVAtHSAgkpAQjYrLw/Kl/T5rulPWjWzXC95UVXKVyEQwNaQ3hlLxUpb0uc1mI4ZYeZSTvzvvvimMTnlvxy1QFKydbhNaVd0b2Yp952Dp6HfeuP0Li8EKFmtMZwF2MhFY2VY3GSDymUNUqOuNPxXhR599e7PUztwUdmPlmuXjeiVp+Wlf4nLdCTOsMNfdVJi18jzVqWcGVotwSogqR92U5WMzLbsiB8Ah4xZMcXIKFJat7TNZP7j5FSpRKADqq8bXJQSvE3dJYOm4tjmw8iZoHKtfR1Ahkf1CG5GAVZpM4uHg+bAZXhlHROXh0N8CQbV0ofXquo99R/Y30RLSO9tELbdk+wVnxMB5+cv+ZLryKwD1U7ZM6VP97juQMxYNgODjCiomJc3vMI9yz/IjXVtrOY+bx2ilfwY06OcSGgi+rcO9q1wEgunJU6d2cP3YJk5PnC5KVMlZQcno0mlcTqngEVZ7GokACbuF5Dzm0oGjcv5dCZGeEGVX/nYaDG4/6bS6nJZn7leJ5cr1OQgMsRHMMXhsDQZf86OZTLd1fl39+aMUpWdS6wmB4jZ5OekgFkqItHmGyqoRpDtd47K+zMTtrpVjyzhNJWfJqYjKXcfPS3S6/7kA64LYF+5Aw0ISM4Aqkv1YhtDeESKuQgmeogiGdy7+3HeIMJBl05FrJZ1f813GKxVsLvSTGmDE5YWFHDtfh37AhXOHXlVLTlqoBZ1jYKAol1C79ewSpRci97hWFauCRMMVOYf33WL/NUbD5Y9VP7EXEAnAVMveax3IuLuc+FmqTho+OeawDLxh2D7EJXJq9eOIjikAWdXpO3F9EVlQ04cVa91wrMr6w4MLRwG2d4FeK59ndFyJ0VlQ7b8ytvg634u61niuSGvfrXLk2oeoJtQkHG+siiJvPeqvMY7EurVwvE473NDo6T1h83e+Hk5fH43fYzfHCicCdUB4C6MAHRDDV173A3tWHMT57JjI+LQbZvpnr0RFTzjKk4rl33T8t4w7cfod+Qmh06h9NSI20S5sDIiRZ0Lmqemuv5EeeP2tA6vs0psolVMpwqQANwmyS+yFzgpD7amEpbq5cB6OGZmPXkkO9cs2+Ct7ynzHStNB5Dvr6Wmp0IgtFoehKi+APeu2keho1JBuJ7xRKDpkelOwLZOEIIyrQgoRQM0p+moSXDYFdhOtXiqfxeZPE92kZyMbehrfDwSY9y5N7tb7OmU597+XzRowekiOWt5o0VvF2+JpWjPUbz5YMv+87j/hoRVbZ2j1xUnFhxoeasGPhgU5dZ1/8ccXPU2XxibXoNi+orJ896qd5sSZg4/wdSH7DrCWxy8RTZBfRI5tO9WoI5uqJm0gZZhVrXhgsgso1o80sRgQr9dNeI2O5Xdiyp6cv7lEjsqPrZJ5plZQ++Kps3L+XQiJh9oGiwflmEZaWr8fl49elJcWrhiaQ/076e8k+aFYNJrXwXezgXFw5fb2jl+43v/MrxUOpZLyp4ve+ImKShppA5uKeeJDIjwVfwjCtTQQdDk1LfMyIGR6XwbBD1qc2WXyirNzdb3HBme/RCr8i7JjRQm8Zj4P3ow+Wjlkvyp2Ws670uaBJ/MlQJ2l7+tvj0a1aTE6bh3iS1YaxFoRFgyZU/DgDd6/0XBSgNbkf2Xocye+YpP2CVNMznxlRrK43rESs/Mmp83DhSOB4+ddO30RcTIHvURknQ4kMBES4MQS60LoGD24+9hAf9wzKjEYW85r6fOfcHzUwp0/Mdb9TPIUfj5NwChNy7paCt/ckzHvV0AkuFo9hb/mD0wfOga1pleJR6BxnxTOrYJnXH2+bvw+Jke4QYCd0j1TjK2LNhDAL8r+s9Hqc/vzhoXUnkBFUobFcO8ky3IqUIdZ+JRoWVO5dfhTpb9qR+lopMgZUiOGS9kEx1k7Y7neyuHbiNuYXrEbVj7OQ/X6ZsFnk/bkMUzMX4MFVz43X727AywWd3noJWe8pBgbmsRgqFDZuggfEuFS5SGVAM3+jGBvYobX4u/G4dvKWl6M2fzQ3b4UcU3EOsmZH5cBGR+fi4Y3ABx/5neKxfztJCt0YC/WmaJw/oyWQ/Y2tebS6+dWWafu0a2JSVFVoi+IhA0FoMTZO9l48ylBg3NA8iXUTaeR8D86vJYYbZhI3u8EgUnQZzTvnH0h4Q/cMdfmT6DLzvRKX7/bVN2yqdvX4TSR9WIiEMLMkqgnCYRfcCSmz8eJZYMT9+5J3unbidmH8JmNGapS+thVbA0OI6aEqx5UQbkLScBPWTtnqAUDyNl9P7j4rhhY9WNYzMcfD/S42ogAbZ+z09pOA+szvFM/YX+ZIkl08Hm9hKSe3lQMxuwUvoztGgZTk0jiL3SwZGtOZB0LtAoo4vPl4i6fdu/SoquT2ApxgYpH3Qlc6LZRoFjOuX2zdImrxRH30H/W1z5EeViGhJFqUuuIhK3nhJ23z4wWyWLhRb59zEJkfK1SUICjDiiURPc+2Ao/vPfHrZHwgy96Xa6dBUPPoqQBcjqw9jUUla1D98ywUfl4lOS4WhW+ctRNPn/jeEO/5g5fSmpz7oLB+ayCM9JBypLxpxtNHz3y5NL/9jt8pnhkZSwVKrW/szh6B+2tu1tuWevcyulrinFyJb6oeJvRMuPERDECPh7FYWp1XzrTc7IpFfelfKK4q9/vg5sliVMlfhFoQOyQPTx70DGCiq+XUXcd78awBmYMqHOATXfFwnpR8M627TusXxy3/11SF5gu1YWR0NsiJtn/NMWkG5hcXaFxE6xLoIKlKRkSFsFQzJ8T5zv2OaEWi3SanzW/9nH7+X79TPCurtgpskJtza2Ep/p8DsWXZjh4R8d2b9xEbla8qhSOUh8LrE8VDfqRh+Wiobz3Ucev8XSS/pZSMs/KhIpP3oTaMisnB1rm+t4TukZv3g5NQcWcP50Ik4aVGNUT5h5tR+f1sP7jC7ruEGeaFYP5w/+qjqHvUM0Ca7rsb48i+SiAjqgJx0fkq1xNGBC37eJWJkVr1z5age2HaAAAGV0lEQVSbTfp6/N78nt8pnoPrjwvOXxVNeRYLOm/YVDzr5m7pEfnRA2Eb5bSwMlWPwDCg5v7ymmbkLfHpOjYs2Iq4QflCmcPYbWKIRXptSPjknSKsmbXJpxiwTyfrQ18i+3X2R6VIEkZwzgsV82YBcclfp/ShOzVuxZCAkkDSIFUHpQOYhKJLSz9U/uiJoA0kufmd4iElOq1anSbFWdG4v6biWT25ZxQPmoDEISakhitackGuaC2X46ILcfvSPZ/Hff2UnRg5JBujonIxYnAm0r4swu7lB0FGZuPRsgSKvq9yeIZchBx/JnCtf/Gsn2r5KMZ/DAl0nwQa6l5hz4rDuH+uplMneVnbJESgNMC9lZZU/cdQPJ0SsPuPyf7McJS3QkFvimfV+M3uh+i292snbgPhjHofjJSwEkEX5XxjA3NAPj+agAe3HwknW33tC8PD8VFwy8ZskNBmamiphBt0xWP+apyPRzC+ZkigeyWwZ+0ByUMy95j0RhHy/lyOqVkLce7A5Xat8wOrf3MAaLztexOSAju87HceD6dF5X+nIzVChyY61bs4Ido4GNx4Vk7Y2L0zyenopN2fa10mVB+EsSZFWpD5iRU1Dzvf7MzpNMbLFiRw89xdgZMKCEPzeAjwKPqyb6PaWhCH8bEfSoA5uNQPVAM8QaCFKZJW1u/kvF+BSWnzsHPhQbDldUsPGt+mL8ZKSN85vKYrIO57yyu7p6dSS9fU1Z/7peJZNWaLgyRUEGQkyNMq/LnhSzJeK7rctLhnC+bISru8bBPKfpqCuXkrQbZq49FzEsj+Y5nwf+kksinhJcj9uLznLsA4kyGBNiRwYO0xpL6lUK/MA5ODkSEzEt2q3LUVcTH5yP2kDLNylwpF1oltZ3F27xWc2XMZe5cdRVxEgcZcoOi4dKXD0DL3vxO7Arutu18qniNbTyA+3KSFtJRnQ8HrKDfFBl2OlHArfj90ro1pYPy7L0lgYuIcYfFluJOeD4lDM96x96VbNO6lD0jg9oV7SP9AGcxEojF1IAaz1siNXov+R/AAoycsMmVpBWmgHIqG+16Iiv7w+6TcSRxs6rEWF901FH6peIhgmmteIV4PMewSWtEYnPXBygyq+v/bO4PXJqIgDv9FHlrFYhUE6cmTJxERLD2KqA1YTA9BjFExiZRgbezBg4JC8RCkVUq9iHoJASsqRFREQbBQ9KKY2saRmU1KEbYYinH25VsIOWzazHyT3d97b+fNWM8PLarH0TsEXj19I6mdWbswoyrmRbsQe4cAniaFwOrKmiw+qMvovrO2H0fFxPYnth4ZqODoIFrvaWP90T4du79Zd+INjxhamWw68E5vvyJTqZtJQRBrp0vhUWt138bctUeS2p1dHxlY2Yl2Gm3fhFw8yNp+bGQDPaGN9Aoj0+uVI/Ri1N3da40OkjsCZYNbPgloE8jHMzXJ7S9LakAHTUXrq6PVuS2JSoVl4+uPZ9kqWCpImuk72p+V6sIzn452YJVb4Wn7UHv4XM4dKEUbNXUK2iqXoinM98oL7Y/x3kME6k/eW+aQio7OhnXU2NDsQA4IOCagG8yr84sydeqWpAejjqUqKDaT0dmMFRiNT6rS50PFQzf+efvybiB0LzwKQVOOb1+oyPjegpUUP7MjL5eGr/7XXiPdCA7fEU/gTrEi2tdE17wvHyGdOp4UZzwS+Pblh9wt3bdVm/GBoug9bawvqmBiy2+thKpo82jekhKsLNeL+LJcHv2MsykRwtM2vvH9p5w/OiGFY2WWVtpQevRdW2HkDpfk+FBaPtST3xirR8OI2yLW1qUyOS+nh3K2WVRnQTq7yWybtJcmJ6R2ZeV19V0wvBIlPEb9l0izSUJBML/ALTiim3a71QRwC2bypxD4KwKrK01Z/vRVarMvJT9yXU7uyciJwYwUhqdl6e2yaEv4UI7kCU8o5PEDAhCAwCYEtD7k549LHVU82OTfuTqF8LgKB8ZAAAIQCJ8AwhN+jPEQAhCAgCsCCI+rcGAMBCAAgfAJIDzhxxgPIQABCLgigPC4CgfGQAACEAifAMITfozxEAIQgIArAgiPq3BgDAQgAIHwCSA84ccYDyEAAQi4IoDwuAoHxkAAAhAInwDCE36M8RACEICAKwIIj6twYAwEIACB8AkgPOHHGA8hAAEIuCLwG3UUhZ3y9A8YAAAAAElFTkSuQmCC;" vertex="1" parent="1">
          <mxGeometry x="262.76" y="568" width="119.06" height="44" as="geometry" />
        </mxCell>
        <mxCell id="8Trs2bP28vxkENtVIcJS-4" value="" style="shape=image;verticalLabelPosition=bottom;labelBackgroundColor=#ffffff;verticalAlign=top;aspect=fixed;imageAspect=0;image=data:image/png,iVBORw0KGgoAAAANSUhEUgAAAZ4AAABOCAYAAAAQNXCUAAAZ5UlEQVR4Ae2dia9fxXXH8zdVVVtVaqtWibqpjRpVUZuqrVqlatN9b0IWSChF7AaD2WMwi8EsxmBss9lgGwiEzTaxMQYb8L5hYxsv2P5N9Zn3zi/zzpu5M/N79963nZGse/17s37nbDNz5twvOUuGgCFgCBgChkCPCHypx7asKUPAEDAEDAFDwJniMSIwBAwBQ8AQ6BUBUzy9wm2NGQKGgCFgCJjiMRowBAwBQ8AQ6BUBUzy9wm2NGQKGgCFgCJjiMRowBAwBQ8AQ6BUBUzy9wm2NGQKGgCFgCJjiMRowBAwBQ8AQ6BUBUzy9wm2NGQKGgCFgCJjiMRowBAwBQ8AQ6BUBUzy9wm2NGQKGgCFgCJjiMRowBAwBQ8AQ6BUBUzy9wm2NGQKGgCFgCJjiMRowBAwBQ8AQ6BUBUzy9wm2NGQKGgCFgCJjiMRowBAwBQ8AQ6BUBUzy9wm2NGQKGgCFgCJjiMRowBAwBQ8AQ6BUBUzy9wm2NGQKGgCFgCJjiMRowBAwBQ8AQ6BUBUzy9wm2NGQKGgCFgCJjiMRowBAwBQ8AQ6BUBUzy9wm2NGQKGgCFgCMxLxbNvx2F34zeWuO/84nXujr9b5o7sPjZnKeH8uQtux+sfu2WXrXaX/vpCd/c/P+bOnf5izo7XBjZ1BOYTf0wdrRZqGDj3+oot7oe/ebP7/q8ucKsWrnfnzpxvoeKZW8W8UzxM6OJ/fdx9+xeuHf6773+edAjouZJOfXravfn0VnfrN5e6S37p+uE4GbMpnrkyy92MYz7wRzfIjV7r/g8Ou8u/smgCn/70yXdHr3AWlBxJ8bz3yq4JIIVCvM33a7/2Y3fiyOetwhhjrAcvWTlnFA8K9OFLV3vlipIxxTMa+Tx2xbPVNF5Cr9Az+Ur45Ee/dYvbu/3gaAMYsdRc548RYem0mFY87MRgOM7lNO8UD5M5b7YSBs6tXPDiBCFnK546dj5z6pzb8MCbfgskpizu/85T7tP9J+oqJffAuaN7P3OUD+u95mt3+63Ri+cv1tfZUol5wx8t4TXlamyrrQzCcMWz6K8fdB9v3ps8N9jw4JsTGCtlFQ4uDjwjrr55gz+LgBlTect6ablAYNNz2yfgb4pnBLqIKHDo87a/ecid/uzMCBX+vAiK7fa/fdjPESuc3dsO/PyP9mYIzFEEprTi4awExmlKpYonrOOTd/e7K377Nvd/v3u7O/zxp+Gf7L0SgdBIQFia4qkEcDz7+6995J1RwtXJc3e+OlplqtTTN77kFQ/8xFaXJUNgriMwkuJBmVz5e7e7Q7uOZvEZRfFQKV4eHLj1vcedHdAsy2CKp50Jgw5ZkYSKp60DYOERzpUsGQI1CFy8cNGtuHbtrJOTIyueR364xjHoXBKmEoYt3T77dN9n7sY/u2/WAZrDo++/m+JpB/GY4gHbNpLwiCmeNtCcX3Xs/tl+d9Uf3jXr5OTIiqfU2hOmqlU8bDks/e7Tsw7QmUb2pnjamRFTPO3gaLW0hwAOKHiwTof341RHMZLi4dzlxJFTRW2PqniofO/7h9zpE2eL2rFMcQRM8cRxqf3VFE8tYpa/awS2rv/Ae1vOG8VTA+hUFE9NO5Y3joApnjgutb+a4qlFzPJ3icCebQe8AxY7SaZ4Ikib4omA0uNPpnjaAdsUTzs4Wi1TR+DYgZNuwZ/eO3R0McUTwbQ1xTNw/o4D4W0u//JYeAniGi38i/vdxqVvuWMHTrgvzp53D31/lUPYNiUdUqYx/8D5umljwXh8N53/8CfH3ONXPje8f4Qr+LO3vezOZlzNY31k35b67/3PJ4bjxKq54ndu8/HWDnx42F8+jJWN/UZdcr7GU7tTc5b26mOb3HV/vNi7CxPpgPh1H23aW9VOrO02f+Oe14dv7vYYgIWMiVveV/7+Hf533PDJ10WaEYqnJ1qs4o8uwG6ok/llnok9yLwz/9ACcQjhme2v7iqiAa6BvPviDnfPfyz321WhYwexG5EzyBf4gXOUk0cnR1A5f+68e/uZbV4GkZd+IJvoB3XTBscSd/7DI40RWBgT+ZAZV3/1rsb7i+S7/uuLh/RPm6Z4IgTThuJBGK9ZtGFIZCJ0Uk+tGPTE6nI6P+3t3rrfuymiRFL5Ibxnbt04KSyN5McqwTopTXveO+iu//o9fpxLv7fSX6jlhjsEzO15mAtGgxFKz76aFA/tcVNe+hs+aQdlS/thyoV80YqNsjGhHbal8Q/b4x1mI6hrWCb1zl2YmJDQddb+PzaGXL9L2xAeCYWflO2DFmv5Q/qbmgP5PUYLjCuGZa4M5VAIXNqVvKlnlAYiSjssL9hvXf/h0IAM/37/t59y8Lukzw6f8rEQwzyp95gnrw7eG5aN5WeONj2/fZJLf1gufEcZvfzIO1msKJOaJ4IJ87ewXnmfqrIbyblAwC95aiKNgdpYz8C55+/6iR88VsW6e153WGQkJoOwI09et26C8NcC4eCuI94qwUuO9gU8eer8O9/e7Zeyyy4ds6oknzzJjzJ4+AerJtUleeSJkkB45FJI8E9c80K0jBwmSt36ibLQMZ7oa5hPiAzLEOIJ/6bfL/uNhT4qRazvjIk6tGKW+ieVGThv9T11/bpJBoTGPywb7mXTvzBEDcwLblp5lmIetpN7jwnLpn7n6gv/Ljwiwi/8Wx+0WMsfGCMYIPCiWPoh7Tx6+TNFq/3jh04OozZgxYMxPB1LrHaF1lA+hPUhL3T4yZZ9jggqYR+00YfMIEIEMgDjLszLO9g38ddNf36f+/z4WJQKolWIAoT2oEEJMsyTSC7yd+qOyTzuKbJbg4GJQRn2J5ZfaCTM1/QOb8M7B3ce8au3WF7mqSTyxqljp/2qTeqgnMjg2FyV/DbjFQ9+6gjAlAUug9z+yi6fD3CaBAJxta75o4lWflN+mFIIXoB/59n33JL/WuH+9yu3ekEfEiQETF8lL31nDE0pFK5sHxzdczyanXtTy696fli3tCHPUsWzbcOHfusOIQ5hCgMzLq2M2ELUq56wc5ohkopnvBAEq1cvKfy1xXXXPz4ajZQBo4Oz4FCCeTiGkvfpUjxh3/qgxVr+2LJuh/ver4xtMwn+qfkMx+LfB84hxOAveCCVQv5IGWUYgqx0pA887/n35dFQXqxc2A4L86KUbviTex31Q3cYtE9c/YJXCvA5kSskrV38mi/b1G8U4uqb1/t8MUUidfHcvPb9CTIjl1/vOuRWHzFs+AQDOx6lCbkGXuAWrvxKy+t8M17xEJaEAefARTiyHUXeJsLXwiyX/8zJs5OW1ITywXKKbXeF1hB182/9/W9o3If/ZxJZxkve3CcaPt6yz/3g127y+VE0Lz/89rCu2AtYSN08ITgYhj3omEJB+YSKE0u0ybrR9ecUTw3+WLmhUFt5w7rYED0jaEFCjLo200xQPF3TInjVzA/5Y0K8FHsxQghkG6NF6g/5KWV4yDyjLLhMKfQOHSPUYwmelHzyTCm1sHw4BzlaR+DT55wi0bSVy1+reOh/qLxlvKXzJDQBL/JtrzbSjFY8LFsRxABVoqHFWmtSPIAm2lsmoCm/gC55eWKlNcXU0kRNe6mkia4pL3WwumLZL/1h9VCjGFDgbJGlEnvX4YqQsEWEbU+lLhXPK8veHo6T8TZhI/HOBBdWYm0mPU+000Q3NW3LqrFpfNTXNS1Kn+mH4FgyTm2xl1rFlIOvm3YE2JJCgfDvvZd3Shfjz4HzTj5h31N9EcwlL3wE7ecS540YnpTDaeDs580fVWSMOO6gLFJJK5IuFA+KXY4sZMwpbHQ/ZdeJVSHKtI00oxWPZjSAS1lGHozxKMI5gVDDWLoPTFqufi2Mm4I/6ujROYHJdhuee0I8WCGsDFJJ9yVnpenx5hT+VOtvwlMH5mwKyqkFSQ7HFF6p32eq4mmTFmXsNfxBGc4AOK8QmizZ6pSVUpPwC2kRY6hEMWg6SAUa1vlySl+wCemAcbLN25QwCpf894rpVzzO+diaxNgM5ynXf+StfFrlteWbm4Za9bcZrXgYScgEuDZyoDnVPcawzibBR/sh8cuE1TJ7k7DXDIDlnku6/03hi7pUDPSzy/qZZ/bZvYv3t5Y1Ch6NI/9vM4UCp5QOStuXvueEX9e0KP3V9JWjd8ohlAQXnk3bZ+THisaoSW2FkSfEvImHpN88NT3Sl1j/BXPpcw57aUOvThDkH7zxSbNBLIUTT11nJyse2g6UiIw754gju0hX/cGdjviZbaUZr3j0Mh7A8Eph2Z3ygMmBU8NYXTN7zXaSjEv3f64qHhlv8jlw7tBHR71xor2rTPGMoaYFcYkA1/QVE9x6TkRAiUDjHBFniGgaF4C5bWK9GyB11z7hMZ1GVTzsOBAgOewD24A46nCfb5TUm+Jxzs8JcyP9z61OkS3kLQ0KXTr+Ga94Yh4ZAhoeYG+t2lq9AqphrK4Vjz5AL9k3Dvvf9VYbWDcJnlrBNgqempjxGNq2ceck7zihC56meMZQq50fSoX0lZv/4dxErGm8v2JJlFTq71JGK4dwfmveY7Sg62bMpSl2UE9/UEBcvvYf84t7hUeb6FPxxDxjU0pFtkPbdCoQAGa84qGjXAjUrpIh4bFk3/jQW8UKqIaxRhGUNcwunj0ynkZLka2/M+cnYJGzGmv6Ata14+26fiFUnjDCTx7f7N3YBS9Wv1vW7nAvLfnp0IrjbzFhE9ZV+x5u+0jbjL2NJEIwJ/xq54a+1c4PZWr4Ixy/HEILPinaZFsuR+e6HyUrtbAvuXfBXPqaw17Xx/2q8LxE6pEnYydP45n0eKV9Kh6a1POU8hiWfG06FQiOs0Lx0Fm21Ta/8P4EoSOTLE+EUIlveg1j9cHs4rkj42hyogjvcmBhUbYp1Qqe2vF2Xb8f28A57otwnwKMZGuDbTZhbC1I2lY8WjjQj9gWTtNcpP4mfc/1uXZuaK92fihTwx/hmMRCFjpmnnDPDxM7GAgyHGSwvptS2I+ZpnjoNyGxnl7w4oTL6zJ2odOSKCOatjo74xkHO7ZdOOlMLljBtulUIPM9axSPdJjJxrpllRNOsrzn3IWpJyRoysGcqdQHs7N1xB2CcAx+ua46FeaDqYnYwG9NqVbw1I636/pZ4XGJlfGCDzfFd72zZ9KQRXgLhjkhPqmCzA9aONBOW23IXbVcfbVzw5Bq54cyNfyhYdNnstpa5h4I53FNTgVSZ9iPUq82KZt7anqhrVETZztEIMAJRugvfN76zaWNjjGatrpWPIxTX7rWK1DZDgV33ttOs07xCAAIJGKJxRQQlx4JGppKIUFDINOteOgn1mIY9w0F+sbKn43dFxo4f5Ma4kYAE2KDwJ4lzhW1gqdWuHVZP9YxESKEiXUYlHB+tSDJCfGwbMm7vj9Fn4giMeU0fns/R4e0Uzs3lKmdH8rU8Icev946Ds8HxNJObcHpusK7WbmzTF02939NL1NRPNIWApoVTkwBYTyljMTpUDzIm/DiOvQXrnrEsSP8TcbZxnPWKh4ZPCsgiEYsYhFSTQeXNYzVF7MzHiIhIGhhzFv+6sEJMZxQNliPKJyS+EqCT63gqR1vl/WHwiF3ZyLMCw20rXj02Rpt5KJMyBw0PbmAiEMJBlRum7h2bmi3dn4oU8MfsbFJSBnhRTm8lm3iJt4M6xOPKqlnFCGIIwDbtDppemlD8UgbRJCHh6XfPJu8x6ZD8dBXVp8odOknZ1aHdh31RjD3q5r6LGMd9TnrFQ8Dx/InXE6ofJoubdYwVl/MThRrLuHR77ZuB4NNreCpHW9X9WvLme0KwpWkkhYkbSse2g0tcJg1F04o1dfwd7kJX1JX7dzQTu38UKaGP8KxyLsoGBFoso2DwpF3ydv0DMNDifDOXngMKxw4fwYTi3ig6aVNxUMXMCJ//C8TY8elzgSnS/HoMzkw5nyZz06gdJou94Ywj/I+4xXPimvXOggwl+TQUoi96TCyhrH6YHb5sBNxpog31WaqFTy149Xu4E24M67S+rUXWa5eLUi6UDzaQgy3kUadM+l3LhhrDXZhX2rnn7I1/BG2Je+ypSa8yBMhhnKV1Y/kbXrGtjebtlt1Xft2HPLGXOzio+AufSxVPCgJHCOajCDph3iFSRspmpwuxUM/iawdrnqQQeJB3HQ/UMY46rNzxaOJOHdwpgdC+dIldtjWbFnxhHutOeGqsSn5f63gKVUM0rZWEDnLPfY5Bvqok653LN5VOpaWjo/XyvmL6pQ2bhAouZvfqooJ/5X7ILltRClUOzeUq51/yoR8xBhj8yN9Sj21kqaeURS13rajHhxMctuSXMEgQGdK0U1F8RDFmvHlklYoM23FQ/9jNO0x7sipQDDrVvEEB6cMhn+p2EnSIf2ECfCC4VsZjUm1lQw9o/LRp5QlQnuyBy/955ljxBpmD1cMOBTgfpo6hGwcf+KPNX2hiphwwypKJbbEUDaCD8Ilmn/g/Nca2WrRDiGxKLla8bCNGnMdByucTHTkAuhGEhiXrJolf9OT8ChhW7z7M4SKC4PUj+CU7wh578SMazFluqZFP+5K/khhFRNo2sMtVTb8nfhs+rwEWuMAH2cbtoXkWzhsufONH+gB1/smha4VD4F/xTU/bF+/izIpWXmFAXfhC+gwlsJ8jC11r0bKxnhOK0LGV2qwa09E+lBaVvpU++xU8Rw/eNJ/40KEEk8ESIkrpQxErC8mw+/VJhhcrEfaQLixzI4llsicF4R9agKZZTpxisL8Ob92HbeqKc6RDoQZtpN7h/k4F+Lzu6ycYklcdaWunEeRPluhXFNwzti2CnM11qcL/vyNb/4QUoRPVu98a/ekrxrG8I9tsyDkWf4jaFA4KFU+AMahKPXLGHkyxwSvhCEREil6iGHW+NvAecEWnifSL84YU3MQ1oeTgnxNln7WnOl1TYv0s5Y/wrHpd80HOb7R5eX/TR9oC+dcvyfvw0WiWOf4QvoiikdoLOk9q+gk9W0g6tVnWbmVYczRhdUdShe+4GOQ8ARbfSUp/PQE4+rSqUD604niwfJA2Nz9T49OEAZCGICClSiWinQm9hTFQ1mYnQlEmGCZk6gDC1usR4RAzDImL1YYxBgKDQEaQalXGkwIlpD0W54oNraMdH7GjUUsfZH8PKkHoa4TfZI91TB/7bu+KwAuYExfw7oYO5jCQNrCoy+rFq6fhE9qvDIWvQoI25N36sDii62oUKBsMz5wyVN+60roQlulUlf4ZNwwv7h/hn/jHXrIrpZlIKXPwVhQTOoO22MbGcWIwRXSBrhimXNeKas95oFzHYRISeqLFmv4I9dvuQsCRlO6D8Jqec22CSvNEPfYO/wWw5a5wDNUzx114KUoH0ZMjS1UPJTB25TdFbzBZM7h8/DrrMgD6p2Uxq9JoDT0GPj0Cd5xmkeljtgWZFgHfJwqK3WEz/ASe5dOBdJmq4pHb4+EQDS9N211hYqnqQ7+xvKaL5FqwGPCLlWXCGWESCpP+DsCE2LkGf6eeo+dcWEpYwXHmCFVT+x3+S58icCW8qwa9Hac/C32jM7VwPkP0sXuL1AHjMenikmxuaAcCgRLLVTOCInwHk/YHy24tScVeREKqQ/eCQNM5UnkBGJzaUMm7GfsHRrAKMBQySUt6GL1yW+j0mJsTqRO/YQ/ilNw+z22qi2uZzwjF4djn60O+wgtcR8utvqskSXwRCzVzAf9uuNby6J3CmtkZawv4pAUjp13zRexMcR+k50OytfsSMXqKvmtVcVT0mBtHg6JUSZYwVjMq256yW/fiZCG0Nhu4kuc3OmZjQlLac2iDW7xvy0vdqUGD5gAZsTiQsj2sURO4jtw7qNNe70gZk4gYBwC2G8P50WEHP1ddtlqv3qVFU6sbgQI8dmu/urYlyWZ9zv//hHf1gQDY+D8SpcVBe2jsHxInVilLf/GCoeVDitXvIJoPxQIl395kb+XxZYlAqdE4bTcxWmrju0ePiaozyBG7RC8giDm7hM0JMIW+lhzywa/2hy17pJy8BwrAp4Ia85k8XIjYLEYIPSLPOyKdDnX8BUrG9qj7QXfWFJs0Oixyuq0dMtRl6/9/4xXPLUDmm35YSSWzUw4VsyoST5ZHbOORq3TyhkChsD8QEDO45BFfSRTPH2gnGpj/ADyu798w5SXt7J0N8WTAtt+NwQMgRgCbGnjccg5LFvWfSRTPH2gnGiDQKB4gLURABGLpcl7LtEF+9kQMATmOQJy0bWNEFClUJriKUWq5Xxy1sEeNconFo26tElxJa/1ZCmt3/IZAobA3ESA6xCcoyfv33U0bFM8HQGbq3b/B4f9oascQuP5VfrhqGHdA+fdt3FPL7nQNixnL4aAIWAIBJ9HwCMSY7ivZIqnL6RVO9zLuPkvH5jg/YQSwl0U7ydWMVyA1F4xEMeRPcfd609sGbqW4tXXdow31V37ryFgCMxGBJS3J+7/nANf+OKCN3QxeDnbQd70mUzx9Im2aou7Lbl7CbIiij1xoSRsCHGpLBkChoAhoBGQ6Ocx+cFvXE9o/YK17kTk/6Z4IqD0+RP3VDY+FP+gXYpY+B33ayIG6BVRn323tgwBQ2BmI8CuCTsiMVmC0Rv7mm8fIzLF0wfKBW1wn4czHi7IchFMLscJwRDnDJdHLsr6+FD5S+8FrVoWQ8AQmOsIHNl9zEfq5mIz/3LxHfvAwxRPHyhbG4aAIWAIGAJDBEzxDKGwF0PAEDAEDIE+EDDF0wfK1oYhYAgYAobAEAFTPEMo7MUQMAQMAUOgDwRM8fSBsrVhCBgChoAhMETAFM8QCnsxBAwBQ8AQ6AMBUzx9oGxtGAKGgCFgCAwRMMUzhMJeDAFDwBAwBPpAwBRPHyhbG4aAIWAIGAJDBEzxDKGwF0PAEDAEDIE+EPh/U0y32e6ChyUAAAAASUVORK5CYII=;" vertex="1" parent="1">
          <mxGeometry x="262.76000000000005" y="612" width="123.4" height="23.25" as="geometry" />
        </mxCell>
      </root>
    </mxGraphModel>
  </diagram>
</mxfile>
